<svg id="Layer_2" data-name="Layer 2" xmlns="http://www.w3.org/2000/svg" width="112.667" height="39.454" viewBox="0 0 112.667 39.454">
  <g id="Layer_1" data-name="Layer 1">
    <path id="Path_272" data-name="Path 272" d="M303.493,36.509V7.416a4.776,4.776,0,0,0-4.776-4.776H235V41.285h63.718a4.776,4.776,0,0,0,4.776-4.776" transform="translate(-198.982 -2.235)" fill="#015a75"/>
    <path id="Path_273" data-name="Path 273" d="M296.491,39.454H232.37V0h64.121a5.187,5.187,0,0,1,5.18,5.18V34.274a5.187,5.187,0,0,1-5.18,5.18m-63.311-.809h63.311a4.376,4.376,0,0,0,4.371-4.371V5.18A4.376,4.376,0,0,0,296.491.809H233.179Z" transform="translate(-196.755)" fill="#015a75"/>
    <path id="Path_274" data-name="Path 274" d="M61.1,29.036l-1.666,2.3A3.109,3.109,0,0,0,60,35.348l3.09,2.23c.53.383.572.766.32,1.166l.449.334,1.565-2.167a2.932,2.932,0,0,0-.552-4.206l-3.117-2.271a.778.778,0,0,1-.205-1.073l-.449-.32M63.777,18.89l-2.595,3.588a4.454,4.454,0,0,0,.889,5.778l4.265,3.131a2.407,2.407,0,0,1,.348,3.079l.362.271L69.989,30.6a4.356,4.356,0,0,0-.831-6.112L64.6,21.172a1.387,1.387,0,0,1-.426-2l-.392-.277m-6.837,22.5h3.438l.613,2.084H66.61l.613-2.084h3.439l-.451-1.533H57.391l-.451,1.533m1.611,6.974a1.777,1.777,0,0,0,.975-1.586c0-1.424-1.166-2-2.44-2H53.53v7.561h3.525c1.505,0,3.1-.658,2.842-2.389-.153-.992-.546-1.226-1.344-1.582m-3.418-2.143h1.851a.808.808,0,1,1,.072,1.612H55.135ZM57.2,50.909H55.135V49.185H57.2C58.715,49.185,58.622,50.909,57.2,50.909Zm8.411-2.541a1.777,1.777,0,0,0,.975-1.586c0-1.424-1.166-2-2.44-2H60.589v7.561h3.525c1.5,0,3.1-.658,2.842-2.389-.153-.992-.546-1.226-1.344-1.582M62.2,46.221h1.847a.808.808,0,1,1,.072,1.612H62.2Zm2.06,4.687H62.2V49.185h2.06c1.514,0,1.422,1.724,0,1.724Zm9.754-.958c-.153-.992-.546-1.226-1.344-1.582a1.777,1.777,0,0,0,.975-1.586c0-1.424-1.166-2-2.44-2H67.649v7.561h3.525c1.5,0,3.1-.658,2.842-2.389m-4.751-3.726h1.841a.808.808,0,1,1,.072,1.612H69.258Zm2.06,4.687H69.258V49.185h2.06c1.514,0,1.422,1.724,0,1.724Z" transform="translate(-45.326 -15.995)" fill="#015a75" fill-rule="evenodd"/>
    <path id="Path_275" data-name="Path 275" d="M275.755,86.774l-.345-.952H273l-.354.952H271.28l2.175-5.622h1.5l2.166,5.622Zm-1.55-4.426-.877,2.419h1.753Zm3.228,1.618a2.86,2.86,0,0,1,2.992-2.912,2.573,2.573,0,0,1,2.351,1.379l-1.028.506a1.523,1.523,0,0,0-1.315-.822,1.841,1.841,0,0,0,0,3.678,1.507,1.507,0,0,0,1.323-.817l1.022.51a2.588,2.588,0,0,1-2.351,1.379A2.856,2.856,0,0,1,277.434,83.967Zm5.85,0a2.86,2.86,0,0,1,2.992-2.912,2.573,2.573,0,0,1,2.351,1.379l-1.028.506a1.523,1.523,0,0,0-1.323-.822,1.841,1.841,0,0,0,0,3.678,1.507,1.507,0,0,0,1.323-.817l1.028.5a2.588,2.588,0,0,1-2.351,1.379A2.833,2.833,0,0,1,283.284,83.967Zm9.3,2.808-1.1-1.992H290.6v1.992h-1.2V81.153h2.63a1.751,1.751,0,0,1,1.888,1.812,1.609,1.609,0,0,1-1.226,1.669l1.264,2.146Zm.113-3.81a.763.763,0,0,0-.843-.759H290.6v1.517h1.255A.761.761,0,0,0,292.694,82.964Zm2.189,3.81V81.153h3.985v1.053H296.08v1.188H298.8v1.053H296.08v1.272h2.782v1.053Zm4.974,0V81.153h2.216a2.816,2.816,0,1,1,0,5.622Zm3.985-2.806a1.648,1.648,0,0,0-1.761-1.761h-1.019V85.72h1.019a1.681,1.681,0,0,0,1.755-1.753Zm2.127,2.806V81.153h1.2v5.622Zm3.666,0V82.206H307.99V81.153h4.485v1.053H310.84v4.569Zm3.666,0V81.153h3.985v1.053H314.5v1.188h2.719v1.053H314.5v1.272h2.782v1.053Zm4.974,0V81.153h2.216a2.816,2.816,0,1,1,0,5.622Zm3.985-2.806a1.648,1.648,0,0,0-1.761-1.761h-1.019V85.72H320.5a1.68,1.68,0,0,0,1.755-1.753ZM271.879,96.43V90.808h2.958a1.453,1.453,0,0,1,1.618,1.433,1.248,1.248,0,0,1-.969,1.289,1.357,1.357,0,0,1,1.073,1.379,1.48,1.48,0,0,1-1.635,1.517Zm3.355-3.985a.613.613,0,0,0-.658-.613h-1.5v1.226h1.5a.6.6,0,0,0,.656-.607Zm.109,2.3a.657.657,0,0,0-.725-.658h-1.542v1.306h1.542a.637.637,0,0,0,.725-.648Zm2.178-.556v-3.38h1.226v3.338a1.319,1.319,0,1,0,2.638,0V90.808h1.226V94.18a2.553,2.553,0,0,1-5.09.008Zm5.864,1.45.648-.91a2.464,2.464,0,0,0,1.787.759c.658,0,.978-.307.978-.624,0-.412-.523-.53-1.137-.682-.92-.21-2.1-.46-2.1-1.744,0-.935.809-1.71,2.132-1.71a3.131,3.131,0,0,1,2.192.783l-.667.878a2.414,2.414,0,0,0-1.635-.613c-.513,0-.8.228-.8.564,0,.363.513.48,1.12.624.92.219,2.107.5,2.107,1.77,0,1.028-.733,1.8-2.25,1.8a3.252,3.252,0,0,1-2.377-.9Zm5.5.792V90.808h1.2V96.43Zm6.246,0-2.681-3.666V96.43h-1.2V90.808h1.226l2.606,3.525V90.808h1.2V96.43Zm2.327,0V90.808h3.985v1.053H298.65v1.188h2.722V94.1H298.65v1.272h2.78v1.053Zm4.59-.792.648-.91a2.464,2.464,0,0,0,1.787.759c.658,0,.978-.307.978-.624,0-.412-.523-.53-1.137-.682-.92-.21-2.1-.46-2.1-1.744,0-.935.809-1.71,2.132-1.71a3.131,3.131,0,0,1,2.192.783l-.662.878a2.415,2.415,0,0,0-1.635-.613c-.513,0-.8.228-.8.564,0,.363.515.48,1.12.624.92.219,2.107.5,2.107,1.77,0,1.028-.733,1.8-2.25,1.8a3.272,3.272,0,0,1-2.382-.9Zm5.122,0,.648-.91a2.465,2.465,0,0,0,1.787.759c.658,0,.978-.307.978-.624,0-.412-.523-.53-1.137-.682-.92-.21-2.1-.46-2.1-1.744,0-.935.809-1.71,2.132-1.71a3.131,3.131,0,0,1,2.192.783l-.667.878a2.416,2.416,0,0,0-1.635-.613c-.513,0-.8.228-.8.564,0,.363.515.48,1.12.624.92.219,2.107.5,2.107,1.77,0,1.028-.733,1.8-2.25,1.8a3.247,3.247,0,0,1-2.377-.9Z" transform="translate(-229.702 -68.631)" fill="#fff"/>
    <path id="Path_276" data-name="Path 276" d="M106.009,36.133v-.018a3.329,3.329,0,0,1,6.658-.018v.018a3.329,3.329,0,1,1-6.658.018Zm6.354-.018V36.1a3.026,3.026,0,0,0-6.051.018v.018a3.025,3.025,0,0,0,6.051-.018Zm-4.331-1.8h1.533a1.421,1.421,0,0,1,1.012.359.9.9,0,0,1,.276.662v.018a1.011,1.011,0,0,1-.883,1l1.058,1.37H110.4l-.984-1.287h-.874v1.287h-.506Zm1.481,1.674c.478,0,.809-.221.809-.613v-.018c0-.359-.294-.589-.782-.589h-1v1.214ZM36.424,39.454H5.18A5.187,5.187,0,0,1,0,34.274V5.18A5.187,5.187,0,0,1,5.18,0H36.424V39.454M5.18.809A4.376,4.376,0,0,0,.809,5.18V34.274A4.376,4.376,0,0,0,5.18,38.645H35.615V.809Z" fill="#015a75"/>
  </g>
</svg>
