<svg xmlns="http://www.w3.org/2000/svg" width="180" height="57" viewBox="0 0 180 57"><g transform="translate(-1059 -401)"><rect width="180" height="57" transform="translate(1059 401)" fill="none"/><g transform="translate(1062 417)"><g transform="translate(34.805 1.194)"><path d="M65.17,3.71H61.2V23.143H73.023V19.753H65.17Z" transform="translate(-61.2 -2.794)" fill="#fff"/><path d="M90.934,12.35a15.907,15.907,0,0,0-2.514.222,10.274,10.274,0,0,0-2.292.609l.694,3a7.871,7.871,0,0,1,1.774-.5,11.211,11.211,0,0,1,1.888-.165q2.832,0,2.832,2.5v.665a15.89,15.89,0,0,0-2.468-.222,6.619,6.619,0,0,0-4.055,1.194,3.8,3.8,0,0,0-1.524,3.19,3.8,3.8,0,0,0,1.484,3.151A6.534,6.534,0,0,0,90.985,27.2a15.971,15.971,0,0,0,3.486-.358,11.166,11.166,0,0,0,2.571-.859V18.264a5.893,5.893,0,0,0-1.553-4.373,6.212,6.212,0,0,0-4.555-1.541Zm2.383,11.715a4.087,4.087,0,0,1-1.945.387,2.765,2.765,0,0,1-1.695-.461,1.752,1.752,0,0,1,.028-2.679,2.812,2.812,0,0,1,1.638-.444,9.128,9.128,0,0,1,1.973.222Z" transform="translate(-71.581 -6.521)" fill="#fff"/><path d="M126.006,19.026a26.1,26.1,0,0,1-1.831,5.124,34.531,34.531,0,0,1-2.5-11.215h-3.554q.111,1.638.336,3.111a26.586,26.586,0,0,1-.847,4.191A20.126,20.126,0,0,1,116.1,24.15,29.373,29.373,0,0,1,114.325,19a33.233,33.233,0,0,1-.859-6.068H109.69a39.951,39.951,0,0,0,.762,5.551A25.866,25.866,0,0,0,111.8,22.8a31.058,31.058,0,0,0,2.246,4.316h3.691a31.083,31.083,0,0,0,2.246-5.357,52.722,52.722,0,0,0,2.445,5.357h3.833a36.264,36.264,0,0,0,3-6.83,36.5,36.5,0,0,0,1.359-7.359h-3.8a31.172,31.172,0,0,1-.808,6.1Z" transform="translate(-82.114 -6.771)" fill="#fff"/><rect width="3.97" height="19.433" transform="translate(57.803 0.916)" fill="#fff"/><path d="M185.553,13.823a6.883,6.883,0,0,0-4.72-1.473,17.037,17.037,0,0,0-3.276.336,15.077,15.077,0,0,0-3,.887v13.3h3.8V16.012a5.731,5.731,0,0,1,2.445-.5q2.585,0,2.582,2.8v8.548h3.833V18.043a5.331,5.331,0,0,0-1.672-4.22Z" transform="translate(-110.092 -6.521)" fill="#fff"/><path d="M207.4,18.212a12.261,12.261,0,0,1-1.5-.5,1.363,1.363,0,0,1-.654-.483,1.109,1.109,0,0,1-.154-.569.908.908,0,0,1,.529-.859,3.027,3.027,0,0,1,1.416-.279,14.249,14.249,0,0,1,3.856.751l.415-3.111a12.215,12.215,0,0,0-2.235-.58,13.949,13.949,0,0,0-2.343-.222,6.246,6.246,0,0,0-3.981,1.137,3.9,3.9,0,0,0-1.427,3.247,3.62,3.62,0,0,0,1.069,2.775,6.851,6.851,0,0,0,3.014,1.5,9.542,9.542,0,0,1,2.571.955,1.082,1.082,0,0,1,.4.847,1,1,0,0,1-.6.887,3.214,3.214,0,0,1-1.57.336,10.328,10.328,0,0,1-2.263-.262,16.114,16.114,0,0,1-2.15-.626L201.27,26.3a10.144,10.144,0,0,0,2.417.682,15.778,15.778,0,0,0,2.61.239,7.821,7.821,0,0,0,3.236-.586,4.5,4.5,0,0,0,1.945-1.553,4.113,4.113,0,0,0,.654-2.332,3.627,3.627,0,0,0-1.1-2.832,8.935,8.935,0,0,0-3.634-1.706Z" transform="translate(-121.612 -6.525)" fill="#fff"/><rect width="3.833" height="14.183" transform="translate(92.869 6.165)" fill="#fff"/><path d="M226.184,2.1a2.241,2.241,0,0,0-1.626.58,2.065,2.065,0,0,0-.6,1.553,2.065,2.065,0,0,0,.6,1.553,2.232,2.232,0,0,0,1.626.58,2.127,2.127,0,0,0,1.6-.6,2.083,2.083,0,0,0,.6-1.541,2.083,2.083,0,0,0-.6-1.541A2.156,2.156,0,0,0,226.184,2.1Z" transform="translate(-131.398 -2.1)" fill="#fff"/><path d="M244.64,8.312a8.2,8.2,0,0,0-1.723-.193,8.488,8.488,0,0,0-3.065.54,6.753,6.753,0,0,0-2.4,1.553,6.975,6.975,0,0,0-1.541,2.445,8.824,8.824,0,0,0-.54,3.122,6.948,6.948,0,0,0,2.025,5.249,7.644,7.644,0,0,0,5.522,1.945,14.323,14.323,0,0,0,2.969-.318,11.528,11.528,0,0,0,2.553-.819V2.54l-3.8.193V8.312h0Zm0,11.135a3.7,3.7,0,0,1-1.752.358,3.353,3.353,0,0,1-2.65-1.081,4.555,4.555,0,0,1-.955-3.111,4.715,4.715,0,0,1,.984-3.236,3.659,3.659,0,0,1,2.872-1.1,4.753,4.753,0,0,1,1.5.279Z" transform="translate(-136.319 -2.29)" fill="#fff"/><path d="M270.367,12.35a7.082,7.082,0,0,0-2.775.54,6.349,6.349,0,0,0-2.2,1.524,6.97,6.97,0,0,0-1.416,2.36,9.059,9.059,0,0,0,.04,6.051,6.54,6.54,0,0,0,1.541,2.371,6.68,6.68,0,0,0,2.4,1.484,8.774,8.774,0,0,0,3.037.512,13.267,13.267,0,0,0,2.639-.262,10.41,10.41,0,0,0,2.224-.682l-.609-3.082a9.944,9.944,0,0,1-3.861.808,3.5,3.5,0,0,1-3.884-3.219h8.769c.074-.739.114-1.445.114-2.11a6.339,6.339,0,0,0-1.666-4.555,5.757,5.757,0,0,0-4.356-1.74Zm2.36,6.079h-5.272a3.949,3.949,0,0,1,.955-2.224,2.59,2.59,0,0,1,1.956-.808,2.132,2.132,0,0,1,1.735.751,2.947,2.947,0,0,1,.626,1.945Z" transform="translate(-148.443 -6.521)" fill="#fff"/><path d="M297.139,12.35a15.382,15.382,0,0,0-3.111.336,11.129,11.129,0,0,0-2.718.887v13.3h3.833V15.984a5.357,5.357,0,0,1,2.3-.472,5.084,5.084,0,0,1,1.638.222l.557-3.139a11,11,0,0,0-2.5-.245Z" transform="translate(-160.446 -6.521)" fill="#fff"/></g><path d="M2.144,0H0V23.948H13.359V21.8H2.144Z" fill="#fff"/><rect width="2.144" height="23.891" transform="translate(23.789 0.057)" fill="#fff"/><rect width="14.837" height="2.144" transform="translate(5.431 2.252)" fill="#fff"/><path d="M29.641,27.7a3.494,3.494,0,1,0-1.427,2.8l2.1,2.1.944-.944-2.138-2.138a3.47,3.47,0,0,0,.523-1.826Zm-5.619,0a2.144,2.144,0,1,1,2.144,2.144A2.146,2.146,0,0,1,24.022,27.7Z" transform="translate(-9.782 -10.446)" fill="#fff"/><rect width="14.837" height="1.427" transform="translate(5.431 6.54)" fill="#fff"/><rect width="14.837" height="1.427" transform="translate(5.431 10.47)" fill="#fff"/><rect width="3.879" height="1.427" transform="translate(5.431 16.299)" fill="#fff"/></g></g></svg>