<svg xmlns="http://www.w3.org/2000/svg" width="89" height="72" viewBox="0 0 89 72"><g transform="translate(-2399 -1140)"><rect width="89" height="72" transform="translate(2399 1140)" fill="none"/><g transform="translate(2340.956 1143.75)"><path d="M134.177,10.55c-1.769,7.959-2.5,11.652-3.953,17.374-1.4,5.514-2.5,10.664-4.37,13.161a8.346,8.346,0,0,1-6.138,3.277,25.66,25.66,0,0,1-3.485.156,25.66,25.66,0,0,1-3.485-.156,8.346,8.346,0,0,1-6.138-3.277c-1.873-2.5-2.965-7.647-4.318-13.161-1.457-5.774-2.185-9.415-3.953-17.374,0,0-1.769.052-2.549.1-1.092.052-1.925.156-2.809.26,0,0,1.04,16.386,1.509,23.357.468,7.283,1.352,19.611,2.133,28.923a34.531,34.531,0,0,0,4.005.364c2.6.156,3.8.156,3.8.156,1.092-4.11,2.393-9.78,3.9-12.224a5.279,5.279,0,0,1,4.214-2.341,33.17,33.17,0,0,1,3.745-.26h0a23.649,23.649,0,0,1,3.745.26,5.279,5.279,0,0,1,4.214,2.341c1.509,2.445,2.861,8.115,3.9,12.224,0,0,1.144,0,3.745-.156,2.5-.156,4.005-.364,4.005-.364.78-9.311,1.665-21.588,2.133-28.923.468-6.919,1.509-23.357,1.509-23.357-.884-.1-1.769-.208-2.809-.26-.78-.052-2.549-.1-2.549-.1" transform="translate(-14.362 -4.942)" fill="#fff"/><path d="M140.466,15.284c-1.04-10.4-8.011-12.589-14.1-13.629-3.069-.52-8.531-.936-12.016-1.092C111.284.354,104.1.25,101.92.25s-9.363.1-12.433.312C86,.718,80.54,1.134,77.471,1.655c-6.086,1.04-13.057,3.225-14.1,13.629a92.452,92.452,0,0,0-.312,10.508c.1,6.606.676,11.028.988,14.149A67.31,67.31,0,0,0,66.287,51.7c1.561,4.526,2.965,5.826,4.63,7.179,3.017,2.445,8.011,3.225,9.051,3.433,5.618.988,16.958,1.2,22,1.2,4.994,0,16.386-.156,22-1.2,1.04-.208,6.034-.936,9.051-3.433,1.665-1.352,3.069-2.653,4.63-7.179a68.208,68.208,0,0,0,2.237-11.756c.312-3.069.884-7.543.988-14.149-.052-4.005-.156-7.7-.416-10.508m-3.849,17.478c-.624,8.323-1.352,13.317-2.393,16.906-.936,3.173-2.081,5.254-3.745,6.762-2.809,2.549-6.658,3.069-8.947,3.433a159.1,159.1,0,0,1-19.611.988,158.543,158.543,0,0,1-19.611-.988c-2.289-.364-6.138-.884-8.947-3.433-1.665-1.509-2.809-3.641-3.745-6.762-1.04-3.589-1.821-8.583-2.393-16.906a107.825,107.825,0,0,1,.26-17.478c.78-6.554,4.005-9.832,10.924-11.028a101.832,101.832,0,0,1,11.7-1.2c3.329-.208,8.739-.312,11.808-.312,3.017-.052,8.479.1,11.756.312a101.833,101.833,0,0,1,11.7,1.2C132.3,5.5,135.524,8.781,136.357,15.284a107.622,107.622,0,0,1,.26,17.478" transform="translate(0 0)" fill="#fff"/></g></g></svg>