<svg xmlns="http://www.w3.org/2000/svg" width="98" height="72" viewBox="0 0 98 72"><g transform="translate(-1362 -1140)"><rect width="98" height="72" transform="translate(1362 1140)" fill="none"/><g transform="translate(1342.8 1082.089)"><path d="M144.557,64.4c-9.922,0-17.257,6.33-17.257,13.113A11.253,11.253,0,0,0,131.746,86l.2-.126a9.847,9.847,0,0,1-3.743-7.662c.528-7.41,9.671-11.58,17.735-11.58,5.752,0,16.077,1.331,16.077,10.927,0,5.024-5.351,11.53-16.6,11.53-5.727,0-10.2-3.09-10.2-7.511,0-3.818,2.989-6.556,7.436-6.556a13.049,13.049,0,0,1,3.266.528,8.9,8.9,0,0,0-6.23,1.331v6.481h5.476V75.98a6.615,6.615,0,0,1,2.412.929v6.456H149a5.915,5.915,0,0,1-5.049,1.758V85.4c5.225.4,7.461-2.06,7.461-4.873,0-3.291-3.09-5.2-6.23-5.6v-4.9h-5.476V74.95c-3.567.728-7.059,2.839-7.059,6.33,0,5.4,7.536,8.742,14.067,8.742,9.973,0,17.659-4.823,17.659-11.58,0-8.189-11.1-14.042-19.82-14.042m7.611,16.3c0-2.386-1.633-4.3-4.6-5.225V70.027h5.5V83.341H151.34a4.582,4.582,0,0,0,.829-2.638" transform="translate(-77.875)" fill="#fff"/><path d="M42.743,194.306v19.116l1.482.2v1.13h-7.36v-1.13l1.583-.2v-8.692H29.052v8.692l1.457.2v1.13H23.3v-1.13l1.432-.2V194.306l-1.432-.2V193h7.209v1.105l-1.457.2v8.164h9.395v-8.164l-1.583-.2V193h7.36v1.105" transform="translate(0 -96.296)" fill="#fff"/><path d="M123.978,191.56a2.368,2.368,0,0,1-2.336,2.537,2.269,2.269,0,0,1-2.336-2.437,2.332,2.332,0,0,1,2.336-2.462,2.291,2.291,0,0,1,2.336,2.361m-.5,19.141,1.382.2v.98H118.1v-.98l1.382-.2V197.614l-1.382-.2v-.98h5.376Z" transform="translate(-70.986 -93.449)" fill="#fff"/><path d="M156.7,211.8l1.356-.2v-20l-1.356-.2v-1h5.376v21.2l1.382.2v1H156.7" transform="translate(-99.89 -94.349)" fill="#fff"/><path d="M195.733,204.821h3.642v1.457h-3.642v9.194c0,2.386.5,3.14,2.638,3.14a9.5,9.5,0,0,0,2.135-.151v1.055a14.76,14.76,0,0,1-4.974.98c-3.09,0-3.818-1.407-3.818-4.12v-10.1H188.9v-1.457h2.939v-3.24l3.919-1.181" transform="translate(-124.001 -101.837)" fill="#fff"/><path d="M249.432,224.514c0-4.9-1.457-7.034-3.793-7.034-2.286,0-3.718,2.035-3.718,7.034,0,4.9,1.457,6.933,3.718,6.933,2.437.025,3.793-1.934,3.793-6.933m4.421.1c0,4.823-3.24,8.038-8.315,8.038-4.924,0-8.038-2.11-8.038-8.038,0-4.974,3.24-8.315,8.315-8.315,5,0,8.038,2.989,8.038,8.315" transform="translate(-160.393 -113.743)" fill="#fff"/><path d="M327.33,231.571v.98h-6.757v-.98l1.356-.2v-8.792c0-2.437-.879-3.542-2.738-3.542a6.829,6.829,0,0,0-3.19,1.281v11.028l1.382.2v.98H310.6v-.98l1.382-.2V218.357l-1.382-.2V217.1H316v2.135c1.683-1.356,3.291-2.437,5.577-2.437,3.04,0,4.4,1.784,4.4,5.3v9.294" transform="translate(-215.13 -114.117)" fill="#fff"/><path d="M268.5,157.376H268V157.2h1.206v.176h-.452v1.784H268.5m2.11-.352h0l.628-1.608h.3v1.959h-.226v-1.482h0l-.578,1.482h-.226l-.6-1.482h0v1.482h-.226V157.2h.327Z" transform="translate(-183.231 -69.489)" fill="#fff"/></g></g></svg>