<svg xmlns="http://www.w3.org/2000/svg" width="97" height="57" viewBox="0 0 97 57"><g transform="translate(-749 -401)"><rect width="97" height="57" transform="translate(749 401)" fill="none"/><g transform="translate(-787 75)"><path d="M99.815,25.21h-.623l-.3,1.4H99.2l.092-.449h.247l.2.449h.366l-.238-.5a.57.57,0,0,0,.394-.439c.064-.293-.119-.458-.449-.458m.137.476a.267.267,0,0,1-.284.2h-.3l.082-.412h.3c.156,0,.229.073.2.211" transform="translate(1529.654 335.872)" fill="#fff"/><path d="M71.5,20.226c-.778-.833-.311-2.5.082-4.377l1.355-6.373h5.576l1.007-4.743H73.94L74.929,0H69.674L66.231,16.289c-.522,2.436-.714,4.34.339,6.382.98,1.9,4.34,3.727,8.579,2.573l.943-4.4c-2.875.357-4.038-.018-4.606-.623" transform="translate(1532.446 338)" fill="#fff"/><path d="M21.6,0,19.088,11.756H9.877L12.377,0h-5.3L1.71,25.243h5.3L8.861,16.5h9.22l-1.859,8.744h5.256L26.843,0Z" transform="translate(1537.856 338)" fill="#fff"/><path d="M55.926,6.922c-1.84,1.538-2.884,3.543-3.562,6.721L49.81,25.655h5.256l2.115-9.962c.5-2.326.879-3.791,1.758-4.679,1.2-1.227,2.948-1.3,5.045-1.126l1.007-4.743a10.035,10.035,0,0,0-9.074,1.785" transform="translate(1533.796 337.597)" fill="#fff"/><path d="M99.386,5.169H82.978L81.971,9.912h9.522l-11.9,11.207-.971,4.56H95.028l1.016-4.743H86.467L98.434,9.674,99.4,5.16Z" transform="translate(1531.365 337.565)" fill="#fff"/><path d="M39.788,4.76A10.734,10.734,0,0,0,33.2,7.186C27.812,11.407,25.148,26.02,36.7,26.02a14.949,14.949,0,0,0,8.643-2.692L43.258,19.8c-1.749,1.346-10.557,4.267-9.632-2.866H47.4s1.758-5.723-.769-9.174c-2.152-2.939-6.107-2.994-6.83-2.994M43.213,12.6H34.789A5.281,5.281,0,0,1,40.2,8.981,3.074,3.074,0,0,1,43.222,12.6" transform="translate(1535.587 337.598)" fill="#fff"/><path d="M86.9,35.267H0l1.053-4.7H87.871l-.98,4.7Z" transform="translate(1538 335.42)" fill="#fff"/></g></g></svg>