<svg xmlns="http://www.w3.org/2000/svg" width="144" height="57" viewBox="0 0 144 57"><g transform="translate(-315 -401)"><rect width="144" height="57" transform="translate(315 401)" fill="none"/><g transform="translate(320.669 405.394)"><g transform="translate(-0.003 -0.003)"><path d="M152.233,57.746c.951-.238,2.426-.951,2.426-2.379,0-1.094-.856-1.237-1.522-1.237a1.025,1.025,0,0,0-.809.238V54.32a1.441,1.441,0,0,0-.1.761Z" transform="translate(-79.801 -28.377)" fill="#fff"/><path d="M153.851,63.03l-1.617.476v2.379a1.15,1.15,0,0,0,.143.761.992.992,0,0,0,.761.19,1.792,1.792,0,0,0,2-1.9,2.049,2.049,0,0,0-1.284-1.9Z" transform="translate(-79.802 -33.043)" fill="#fff"/><path d="M181.281,32.855l-1.142-3.425-1.189,3.616h2.379Z" transform="translate(-93.816 -15.428)" fill="#fff"/><path d="M215.359,27.23c-.809,0-.809.333-.809,1.189v5.566c0,.951.048,1.332.856,1.332,1.855,0,2.712-1.855,2.712-3.949S217.262,27.23,215.359,27.23Z" transform="translate(-112.48 -14.275)" fill="#fff"/><path d="M119.384,5.294H38.747a23.787,23.787,0,1,0,1.38,35.775h79.21a6.04,6.04,0,0,0,5.994-6.042V11.335a6.04,6.04,0,0,0-5.947-6.042ZM75.326,15.336h.1A1.617,1.617,0,0,1,77,17h0a1.569,1.569,0,0,1-1.522,1.617h0A1.616,1.616,0,0,1,73.856,17a1.566,1.566,0,0,1,1.47-1.66ZM32.42,40.022a18.553,18.553,0,1,1-.9-32.921h.1l-.048.048a18.507,18.507,0,0,1,.951,32.826l-.1.048ZM55.826,21.373c-.143.571-.238.618-.761.618H49.737a.459.459,0,0,1-.523-.476.475.475,0,0,1,.238-.428l.143-.1c.238-.143.19-.476.19-.714V13.714a1.025,1.025,0,0,0-.19-.761l-.143-.048a.516.516,0,0,1,.285-.951h5.09a.749.749,0,0,1,.618.19,3.791,3.791,0,0,1,.19,1.284c0,.333-.1.618-.381.618-.238,0-.381-.19-.476-.428a1.233,1.233,0,0,0-.714-.571,4.707,4.707,0,0,0-1.094-.1,2.8,2.8,0,0,0-.951.1.475.475,0,0,0-.238.428V16h1.665c.761,0,.618-.476,1-.476s.381.571.381.951c0,.333.048,1.142-.381,1.142-.381,0-.285-.476-1-.476H51.782v2.379c0,1.427.1,1.475,1.617,1.475a1.569,1.569,0,0,0,1.522-.666c.19-.238.476-.666.714-.666a.476.476,0,0,1,.428.476,5.219,5.219,0,0,1-.238,1.237Zm7.517.285a4.873,4.873,0,0,1-2.236.523c-2.426,0-4.424-1.855-4.424-5.043s2.093-5.376,4.615-5.376a4.637,4.637,0,0,1,2.426.761A1.2,1.2,0,0,1,64.2,13a4.9,4.9,0,0,1,.1,1.237v.333c-.048.238-.19.428-.428.428s-.333-.19-.428-.476a2.94,2.94,0,0,0-.666-1.142,1.8,1.8,0,0,0-1.284-.571c-1.9,0-2.664,2.284-2.664,4.282,0,1.76.761,4,2.379,4a1.481,1.481,0,0,0,1.189-.523,2.838,2.838,0,0,0,.285-1.617c0-.9,0-1.142-.809-1.142-.333,0-.856.1-.856-.523,0-.571.476-.571.809-.571h1.76a3.054,3.054,0,0,1,.856.1.386.386,0,0,1,.19.381c.01.2.01.414,0,.618l-.1.951a7.061,7.061,0,0,0,.1,1.38c.019.076.033.157.048.238,0,.618-.951,1.094-1.332,1.284Zm2.046-4.519c0-3.33,2.046-5.376,4.567-5.376a4.63,4.63,0,0,1,2.474.761A1.2,1.2,0,0,1,72.9,13a4.9,4.9,0,0,1,.1,1.237v.333c-.048.238-.19.428-.428.428s-.333-.19-.476-.476a2.906,2.906,0,0,0-.618-1.142,1.8,1.8,0,0,0-1.284-.571c-1.9,0-2.664,2.284-2.664,4.282,0,1.76.761,4,2.379,4a1.489,1.489,0,0,0,1.142-.523,2.853,2.853,0,0,0,.333-1.617c0-.9-.048-1.142-.809-1.142-.333,0-.856.1-.856-.523,0-.571.476-.571.809-.571h1.76a3.054,3.054,0,0,1,.856.1.386.386,0,0,1,.19.381c.01.2.01.414,0,.618l-.1.951a7.061,7.061,0,0,0,.1,1.38v.238c0,.618-.951,1.094-1.284,1.284a4.873,4.873,0,0,1-2.236.523c-2.474,0-4.424-1.855-4.424-5.043ZM76.616,34.123a2.758,2.758,0,0,1-2,.714H70.383a.459.459,0,0,1-.523-.476.475.475,0,0,1,.238-.428l.143-.1c.19-.143.19-.476.19-.761V26.559c0-.333.048-.618-.19-.809H70.1a.483.483,0,0,1-.238-.476.459.459,0,0,1,.523-.476h3.949a2.752,2.752,0,0,1,1.713.428,2.133,2.133,0,0,1,.856,1.808,2.671,2.671,0,0,1-1.522,2.284,2.662,2.662,0,0,1,2.093,2.664,2.844,2.844,0,0,1-.856,2.141Zm.618-12.559a.483.483,0,0,1,.238-.476l.143-.1c.19-.143.19-.428.19-.714V13.714c0-.285.048-.571-.19-.761l-.143-.048a.516.516,0,0,1,.285-.951h2.093a.516.516,0,0,1,.285.951l-.143.048c-.238.19-.19.476-.19.761v6.47c0,.809.143.809.761.809h.428a1.569,1.569,0,0,0,1.522-.666c.19-.238.428-.666.714-.666a.375.375,0,0,1,.238.1l.19-.571c.428-1.665,1-3.187,1.522-4.757l.809-2.093a.717.717,0,0,1,.809-.476c.618,0,.761.19.951.856l2.284,6.518.381,1.427a.678.678,0,0,0,.333.476.479.479,0,0,1,.143.428.424.424,0,0,1-.476.476h-1.9c-.238,0-.618-.048-.618-.476s.476-.381.476-.666a13.911,13.911,0,0,0-.476-1.9l-.048-.238H84.8a12.344,12.344,0,0,0-.428,1.855c0,.561.547.48.566.928-.019.538-.571.452-.852.452h-.618a1.989,1.989,0,0,1-.476,0,1.562,1.562,0,0,1-.333.048h-4.9a.486.486,0,0,1-.523-.476Zm7.231,12.607c-.143.571-.238.666-.761.666H78.376a.459.459,0,0,1-.523-.476.483.483,0,0,1,.238-.476l.143-.048c.238-.143.19-.476.19-.761h0V26.559c0-.285,0-.618-.19-.761l-.143-.1a.475.475,0,0,1-.238-.428.459.459,0,0,1,.523-.476h5.09a.749.749,0,0,1,.618.19,3.791,3.791,0,0,1,.19,1.284c0,.333-.1.571-.381.571-.238,0-.381-.19-.523-.381a1.23,1.23,0,0,0-.666-.571,4.707,4.707,0,0,0-1.094-.1,2.8,2.8,0,0,0-.951.1.475.475,0,0,0-.238.428v2.521h1.617c.809,0,.666-.476,1.047-.476s.381.571.381.951c0,.333.048,1.094-.381,1.094-.381,0-.285-.476-1.047-.476H80.421v2.379c0,1.427.1,1.522,1.617,1.522a1.514,1.514,0,0,0,1.522-.666c.19-.285.476-.666.714-.666a.476.476,0,0,1,.428.476,5.326,5.326,0,0,1-.238,1.189Zm6.232-.1a3.414,3.414,0,0,1-2.474.951A4.234,4.234,0,0,1,86.13,34.5a2.55,2.55,0,0,1-1.284-1.9H84.8c0-.381.238-.761.523-.761.333,0,.476.238.618.523a3.131,3.131,0,0,0,.761,1.094,2.283,2.283,0,0,0,1.427.476,1.617,1.617,0,0,0,1.665-1.57h0a1.186,1.186,0,0,0-.571-1.094,5.6,5.6,0,0,0-1.427-.476,4.449,4.449,0,0,1-1.713-.761,2.847,2.847,0,0,1-.951-2.188,3.436,3.436,0,0,1,1.047-2.474,3.174,3.174,0,0,1,2.236-.761,4.593,4.593,0,0,1,2.379.714.658.658,0,0,1,.333.381,6.321,6.321,0,0,1,.048,1.237c0,.333-.143.571-.381.571-.618,0-.523-1.951-2.331-1.951a1.33,1.33,0,0,0-1.332,1.332h0c0,.951.714,1.237,1.38,1.427l.856.285a3.778,3.778,0,0,1,1.617.856,2.951,2.951,0,0,1,.761,2A3.562,3.562,0,0,1,90.7,34.075Zm7.517-7.136c-.476,0-.523-1.142-1.808-1.142-.476,0-.428.285-.428.761h0v6.518c0,.285,0,.618.19.761l.143.1a.48.48,0,0,1,.285.428c0,.381-.333.476-.571.476H93.98c-.238,0-.571-.1-.571-.476a.474.474,0,0,1,.285-.476l.1-.048c.238-.143.19-.476.19-.761V26.559c0-.476.048-.761-.428-.761-1.237,0-1.237,1.142-1.76,1.142a.439.439,0,0,1-.428-.476,6.6,6.6,0,0,1,.333-1.57c.1-.1.381-.1.476-.1h5.614c.143,0,.428,0,.476.1a3.005,3.005,0,0,1,.285,1.094,2.644,2.644,0,0,1,.048.476c0,.285-.143.476-.381.476Zm.618-14.034v-.048c-.19.1-.333.143-.428.381a2.273,2.273,0,0,0-.048.476v7.421c0,.761,0,.951-.714.951a.561.561,0,0,1-.523-.19,15.063,15.063,0,0,1-.809-1.427l-3.425-5.9v5.709a2.273,2.273,0,0,0,.048.476c.1.238.238.285.428.381a.427.427,0,0,1,.285.476c0,.428-.476.381-.761.381h-.951c-.238,0-.761.048-.761-.428a.427.427,0,0,1,.285-.476.508.508,0,0,0,.428-.333,2.273,2.273,0,0,0,.048-.476V14.237c0-.571.1-1.094-.476-1.284-.19-.1-.381-.19-.381-.476,0-.476.333-.476.618-.476h1.522c.381,0,.476,0,.714.333a34.647,34.647,0,0,1,2,3.33l1.475,2.569V13.714a2.649,2.649,0,0,0,0-.476.9.9,0,0,0-.476-.381.426.426,0,0,1-.238-.476c0-.476.476-.381.714-.381h.951c.285,0,.761-.048.761.428a.427.427,0,0,1-.285.476Zm7.85,7.707a3.752,3.752,0,0,1-3.092,1.427h-3.52a.527.527,0,0,1-.571-.476.474.474,0,0,1,.285-.476l.1-.1c.238-.143.238-.428.238-.714V13.714a.878.878,0,0,0-.238-.761l-.1-.048a.48.48,0,0,1-.285-.428c0-.381.333-.476.571-.476h3.14a4.012,4.012,0,0,1,3.14,1.094,5.224,5.224,0,0,1,1.427,3.806,6.045,6.045,0,0,1-1.094,3.711Zm3.425-5.9c-.143.143-.476.523-.666.523a.286.286,0,0,1-.285-.285.256.256,0,0,1,.048-.143v-.048a2.99,2.99,0,0,0,.761-1.522,1.3,1.3,0,0,1-.333,0,.857.857,0,0,1-.814-.9v-.052a1.044,1.044,0,0,1,1.047-1.047h.048c.618,0,1.094.618,1.094,1.427a3.081,3.081,0,0,1-.9,2.046Zm6.851,6.565a3.431,3.431,0,0,1-2.426.951,4.234,4.234,0,0,1-2.093-.523,2.567,2.567,0,0,1-1.332-1.9c0-.381.238-.761.571-.761a.661.661,0,0,1,.571.476,3.131,3.131,0,0,0,.761,1.094,2.236,2.236,0,0,0,1.427.476,1.62,1.62,0,0,0,1.617-1.522l.048-.048a1.187,1.187,0,0,0-.571-1.047,5.64,5.64,0,0,0-1.38-.476,4.414,4.414,0,0,1-1.76-.761,2.847,2.847,0,0,1-.951-2.188,3.436,3.436,0,0,1,1.047-2.474,3.171,3.171,0,0,1,2.188-.809,4.593,4.593,0,0,1,2.379.714.673.673,0,0,1,.333.428,6.322,6.322,0,0,1,.048,1.237c0,.333-.1.523-.381.523-.571,0-.476-1.9-2.284-1.9a1.331,1.331,0,0,0-1.422,1.232v.052c0,1,.809,1.284,1.427,1.475l.856.285a3.849,3.849,0,0,1,1.617.809,2.948,2.948,0,0,1,.761,2.046,3.562,3.562,0,0,1-1.047,2.617Z" transform="translate(0.003 0.003)" fill="#fff"/><path d="M23.99,30.449A12.844,12.844,0,0,0,41.473,47.937h.1a12.844,12.844,0,0,0,0-22.359h-.048l-.048-.048a12.851,12.851,0,0,0-17.488,4.919Zm11.589,10.59-6.946,2.807c-.333.143-.761.19-.951-.19a.7.7,0,0,1,.19-.618l.143-.143c.238-.285.048-.571-.1-.9l-2.712-6.8c-.143-.285-.238-.666-.571-.666h-.19c-.238-.048-.476-.1-.571-.333-.143-.381.19-.666.523-.761l6.66-2.712c.238-.1.618-.285.856-.143a3.576,3.576,0,0,1,.809,1.237c.1.333.1.666-.285.856a.906.906,0,0,1-.809-.19,1.706,1.706,0,0,0-1.142-.19,8.078,8.078,0,0,0-1.475.476,4.838,4.838,0,0,0-1.142.571.53.53,0,0,0-.19.571l1.094,2.617,2.141-.856c1-.381.618-.856,1.094-1.047.523-.238.761.428.951.761.143.381.523,1.189-.048,1.427-.476.19-.571-.381-1.522,0l-2.188.9,1.047,2.474c.618,1.427.809,1.475,2.759.714a2.477,2.477,0,0,0,1.76-1.522c.1-.381.238-.951.618-1.094a.526.526,0,0,1,.7.247c0,.014.01.024.014.038a4.826,4.826,0,0,1,.19,1.427h-.048c.1.666,0,.761-.666,1.047Zm5.9-11.227h.1l.1.048a2.323,2.323,0,0,1,1.9,1.427,3.165,3.165,0,0,1-1.142,3.187,3.181,3.181,0,0,1,3.806,1.808A2.954,2.954,0,0,1,46,38.9a4.461,4.461,0,0,1-2.331,1.76l-2.093.809h-.1L38.148,42.8c-.333.1-.761.143-.951-.238-.1-.238.048-.381.19-.571l.143-.143c.238-.285.048-.618-.048-.9l-2.664-6.851c-.1-.333-.19-.666-.571-.714h-.19a.573.573,0,0,1-.476-.333c-.19-.381.19-.666.476-.761l5.233-2A4.973,4.973,0,0,1,41.478,29.811Z" transform="translate(-11.715 -12.522)" fill="#fff"/><path d="M54.077,41.653l1.047,2.759c1.142-.761,2.807-2.236,2.236-3.758a1.238,1.238,0,0,0-1.251-.794,3.281,3.281,0,0,0-1.223.319h0a1.353,1.353,0,0,0-.128.043,1.175,1.175,0,0,1-.138.048,2.444,2.444,0,0,0-.276.128.889.889,0,0,0-.4.4,1.134,1.134,0,0,0-.019.219,1.332,1.332,0,0,0,.071.433,1.116,1.116,0,0,0,.09.2Z" transform="translate(-28.267 -20.896)" fill="#fff"/><path d="M58.4,52.836a1.916,1.916,0,0,0,.2.49.645.645,0,0,0,.281.271,1.307,1.307,0,0,0,.271.024,1.5,1.5,0,0,0,.68-.167h.19c1.332-.476,2.379-1.57,1.808-3.045a2.243,2.243,0,0,0-1.808-1.332h-.1a2.648,2.648,0,0,0-.476,0L59.4,49.03,57.45,50.362Z" transform="translate(-30.118 -25.704)" fill="#fff"/><path d="M84.915,89.13h-.048a1.617,1.617,0,1,0,1.618,1.617V90.7A1.571,1.571,0,0,0,84.915,89.13Z" transform="translate(-43.644 -46.727)" fill="#fff"/><path d="M18.673,28.413l1.047.951c.951.714,1.617.476,2.379-.476,1.047-1.284.571-1.855-.048-2.331l-1.189-.9c-.19-.143.1-.333-.1-.476-.1-.1-.19-.048-.333.143l-.476.571c-.143.19-.143.333-.048.333.19.19.381-.19.618,0l1.189.856c.523.381.666.761.285,1.237-.428.618-1,.285-1.38,0-.333-.238-1-.951-1.094-.951-.19-.19.1-.381-.048-.476s-.238-.1-.381.143l-.761.951v-.048c-.19.285-.238.428-.143.476C18.388,28.555,18.483,28.27,18.673,28.413Z" transform="translate(-9.514 -13.174)" fill="#fff"/><path d="M64.77,21.567l1,.714c.238.1.381.1.381,0,.19-.19-.143-.285,0-.476l.476-.666,1.76-.618c.238-.1.428,0,.476-.143.1-.143.048-.238-.19-.381l-.428-.285c-.238-.1-.333-.1-.428,0-.048.143.1.285.1.381a3.715,3.715,0,0,1-1.332.523c0-.143-.143-1.189,0-1.38.048-.1.285,0,.333-.1.1-.1.1-.19-.143-.381L65.531,18v-.048c-.19-.1-.333-.1-.381,0-.143.19.143.285.143.666a12.849,12.849,0,0,0,.19,1.76l-.476.666c-.143.19-.333-.048-.476.19-.048.1,0,.19.238.333Z" transform="translate(-33.822 -9.373)" fill="#fff"/><path d="M29.774,23.1c0,.1-.19.285-.143.428.1.1.19.1.333,0l.571-.333c.19-.143.238-.238.143-.333-.1-.19-.285,0-.381-.1a2.139,2.139,0,0,1-.143-.571l1.189-.761a4.968,4.968,0,0,1,.523.476.24.24,0,0,0-.048.285c.048.1.19.048.428-.048l.951-.618c.19-.143.285-.238.19-.333-.1-.19-.238,0-.381-.143L30.63,19.584c-.333-.19-.381-.19-.809.1a.67.67,0,0,0-.381.714,20.353,20.353,0,0,0,.381,2.759l-.048-.048Zm1.142-1.951-.038.024-.818.5-.01-.1-.133-1.094Z" transform="translate(-15.429 -10.196)" fill="#fff"/><path d="M47.583,14.781v2.284c.048.238-.285.143-.285.381,0,.143.1.143.381.143h1.237c.285,0,.333-.048.333-.19,0-.238-.285-.1-.333-.381V14.734c0-.238.285-.143.285-.381,0-.143-.048-.19-.333-.143H47.631c-.285,0-.381.048-.381.19C47.25,14.638,47.583,14.5,47.583,14.781Z" transform="translate(-24.77 -7.439)" fill="#fff"/><path d="M54.766,15.291c.285.1.381-.333.856-.19.143.048.143.1.143.238l-.571,2.188c-.1.238-.381.048-.381.285-.048.1,0,.19.285.285l1.189.285c.285.1.381.048.381-.048.1-.238-.238-.238-.19-.476l.571-2.141a.2.2,0,0,1,.285-.143c.476.1.285.523.618.571l.033.014a.245.245,0,0,0,.3-.157,1.644,1.644,0,0,0,0-.571L58,15.291l-2.854-.761h-.333a1.734,1.734,0,0,0-.285.476v-.048a.239.239,0,0,0,.238.333Z" transform="translate(-28.575 -7.616)" fill="#fff"/><path d="M38.178,16.067l.476,2.236c.048.238-.238.238-.19.476,0,.1.1.143.381.1l2.379-.571a.569.569,0,0,0,.381-.19,1.957,1.957,0,0,0,0-.666.236.236,0,0,0-.285-.143c-.381.1-.19.571-.856.761-.381.1-.476.1-.523-.19l-.476-2.093c-.048-.238.238-.19.19-.428,0-.143-.1-.19-.381-.143l-1.189.285c-.333.1-.333.143-.333.285.048.238.333.048.428.285Z" transform="translate(-19.79 -7.964)" fill="#fff"/><path d="M71.616,67.186c-.1-.143.1-.333-.1-.428-.1-.143-.238-.048-.476.238l-.238.333c-.285.238-.333.381-.19.476.143.143.428-.143.618,0s.428.381,1,1.9A7.908,7.908,0,0,1,70,69.089c-.19-.143.1-.333-.1-.476-.1-.1-.19-.048-.381.143l-.809.951c-.143.143-.143.285-.1.333.143.1.238-.048.571.1a9.465,9.465,0,0,0,2.569.714.664.664,0,0,0,.761-.285c.238-.333.285-.381.238-.618h.048a10.669,10.669,0,0,0-1.189-2.759Z" transform="translate(-35.958 -34.963)" fill="#fff"/><path d="M23.232,69.624l.048-.048a1,1,0,0,0-.19-.809.665.665,0,0,0-.809-.285l-2.712.761c-.143,0-.333-.143-.476-.048-.1.1-.048.19.048.333l.381.476c.19.19.285.238.381.143.143-.143-.1-.285.048-.428a2.017,2.017,0,0,1,.571-.19l.9,1.094a5.176,5.176,0,0,1-.381.571c-.1,0-.238-.1-.333,0-.1,0-.048.19.1.381l.761.951c.1.143.238.19.333.1.143-.1,0-.238.1-.381l1.237-2.617Zm-1.522.476-.033-.038-.633-.723,1.085-.262.1-.024L21.709,70.1Z" transform="translate(-9.981 -35.879)" fill="#fff"/><path d="M75.151,61.646c-.143.285-.1.381,0,.428.238.1.238-.238.476-.143l2.141.856c.238.1,0,.333.238.428.1.048.19,0,.285-.285l1.094-2.569c.048-.238.1-.381.048-.476A1.531,1.531,0,0,0,79,59.6a.256.256,0,0,0-.143-.048.236.236,0,0,0-.238.238c-.1.381.381.285,0,1.237-.19.476-.285.523-.666.381l-.666-.285.238-.618c.19-.428.333-.285.428-.476.048-.143,0-.238-.333-.381s-.428-.1-.476.048c-.048.238.143.238-.048.618l-.285.666-.476-.238c-.333-.1-.333-.19-.143-.571.381-1,.571-.523.761-.951a.287.287,0,0,0-.19-.333l-.19-.1c-.19-.1-.333,0-.428.333L75.1,61.646h.048Z" transform="translate(-39.351 -30.803)" fill="#fff"/><path d="M78.493,51.948V52c.285,0,.143-.285.428-.285H81.2c.238,0,.143.333.381.333.1,0,.19-.1.19-.381V49.712c.048-1.237-.476-2.236-1.665-2.284s-1.713.951-1.76,2.236v1.9c0,.285,0,.381.143.381Zm2.9-1.9v.048c0,.238-.1.285-.381.285h-1.9a.356.356,0,0,1-.252-.076.334.334,0,0,1-.081-.257,1.241,1.241,0,0,1,1.28-1.194h.052a1.27,1.27,0,0,1,.7.186,1.223,1.223,0,0,1,.58,1Z" transform="translate(-41.075 -24.863)" fill="#fff"/><path d="M40.7,78.738l-1.855-.428c-.285-.048-.381,0-.381.1-.048.238.238.19.19.476l-.476,2.236c-.1.238-.381.048-.428.285,0,.1,0,.19.333.285l1.237.285c.285.048.381,0,.381-.143.048-.238-.285-.19-.238-.428l.143-.714c1.427.238,2.379.1,2.521-.618s-.476-1.094-1.427-1.332Zm.048,1v-.048c-.1.476-.571.618-1.047.571h0l.285-1.047a.209.209,0,0,1,.076-.171.247.247,0,0,1,.209-.019.569.569,0,0,1,.49.642.379.379,0,0,1-.014.071Z" transform="translate(-19.79 -41.044)" fill="#fff"/><path d="M31.147,74.659h.048l-1.57-1.047c-.285-.143-.381-.143-.428,0-.143.19.19.238,0,.476l-1.189,1.9c-.143.238-.333,0-.476.143-.048.143,0,.238.19.381l1.094.714c.238.143.333.1.381,0,.143-.19-.19-.285-.048-.476l.381-.618c1.237.714,2.188.9,2.569.285S32.051,75.23,31.147,74.659Zm-.219.923a.137.137,0,0,1-.019.029.592.592,0,0,1-.461.281,1.387,1.387,0,0,1-.68-.138l.571-.9a.328.328,0,0,1,.152-.1.341.341,0,0,1,.228.048.574.574,0,0,1,.209.78Z" transform="translate(-14.423 -38.535)" fill="#fff"/><path d="M17.374,39.476h.048v-.1a2.225,2.225,0,0,0,.951-1.237c.1-.238.19-.666-.1-.761-.19-.048-.333.1-.428.285l-.1.523a1.145,1.145,0,0,1-.19.381,1.805,1.805,0,0,0-1.189-1.9c-1.094-.285-2.046.571-2.379,1.76s-.1,2.474,1,2.807S17.041,40.665,17.374,39.476Zm-1.951.381c-.856-.238-1.237-.666-1.047-1.284a.893.893,0,0,1,.366-.514,1.05,1.05,0,0,1,.637-.138H15.4a2.435,2.435,0,0,1,.552.124,2.837,2.837,0,0,1,.609.247.871.871,0,0,1,.485.657.682.682,0,0,1-.476,0,.5.5,0,0,0-.181-.033c-.071,0-.128.043-.152.176a.278.278,0,0,0,.238.381,1.231,1.231,0,0,0,.476.048.827.827,0,0,1-.794.457,2.478,2.478,0,0,1-.728-.124Z" transform="translate(-7.264 -19.194)" fill="#fff"/><path d="M61.389,76.041h-.048c-1.094.618-1.808,1.713-1.284,2.712a2.131,2.131,0,0,0,2.95.476l.1-.048h.048l.048-.048c.951-.618,1.57-1.665,1.047-2.617-.476-.951-1.76-1.047-2.854-.476Zm1.57,2.759h-.048l-.048.048a.85.85,0,0,1-.457.124c-.39-.01-.742-.333-1.018-.885-.428-.714-.381-1.284.1-1.57v-.048c0-.048.048,0,.1,0a.862.862,0,0,1,.552-.124c.352.043.666.333.923.837.381.761.381,1.284-.1,1.617Z" transform="translate(-31.393 -39.679)" fill="#fff"/><path d="M52.771,82.217v.048a3,3,0,0,0-.809-1,1.093,1.093,0,0,0,.714-.951c-.1-.666-.761-.809-1.427-.714l-2.379.238c-.285,0-.381.1-.333.238,0,.238.285.1.333.333l.238,2.284c0,.238-.285.19-.285.428,0,.1.1.143.381.143l1.237-.143c.285,0,.333-.1.333-.238,0-.238-.285-.1-.333-.333l-.1-.809.333-.1a2.386,2.386,0,0,1,.666.951c0,.1-.19.143-.143.285,0,.143.1.143.381.143l1.237-.143c.333,0,.381-.1.381-.19C53.2,82.5,53.009,82.6,52.771,82.217ZM50.759,81.19a.951.951,0,0,1-.266.067.2.2,0,0,0-.052.01l-.048.048h-.1v-.048l-.1-.809c0-.285.143-.381.428-.428h.038a.564.564,0,0,1,.623.461V80.5A.733.733,0,0,1,50.759,81.19Z" transform="translate(-25.439 -41.717)" fill="#fff"/></g></g></g></svg>