<svg xmlns="http://www.w3.org/2000/svg" width="202" height="57" viewBox="0 0 202 57"><g transform="translate(-710 724)"><rect width="202" height="57" transform="translate(710 -724)" fill="none"/><g transform="translate(716.111 -711.104)"><path d="M22.83,30.118c-2.551-1.6-4.437-7.122-4.437-13.678v-.71h0c-7.1-1.109-12.236-4.171-12.369-7.787L6,7.987a11.6,11.6,0,0,0-2.729,7.322c0,7.832,8.6,14.244,19.5,14.809h.044ZM0,15.863C0,7.1,10.9,0,24.35,0S48.71,7.1,48.71,15.863,37.806,31.727,24.35,31.727,0,24.627,0,15.863ZM24.361,2.285c2.6,0,4.8,3.938,5.624,9.44h0c5.047-.8,8.586-2.607,8.586-4.726,0-2.829-6.368-5.125-14.222-5.125S10.139,4.171,10.139,7c0,2.108,3.539,3.927,8.586,4.715h0c.821-5.491,3.028-9.429,5.624-9.429h0Zm1.575,27.822c10.9-.566,19.5-6.989,19.5-14.809a11.667,11.667,0,0,0-2.729-7.322l-.022-.044c-.133,3.616-5.258,6.678-12.369,7.787h0v.71c0,6.556-1.886,12.081-4.437,13.678h.044ZM24.361,12.125c1.132,0,2.252-.044,3.372-.144h0c-.544-3.517-1.841-6.013-3.372-6.013s-2.84,2.485-3.372,6.013h0c1.12.1,2.252.144,3.372.144Zm0,13.046c1.952,0,3.55-4.071,3.639-9.174h0a39.987,39.987,0,0,1-7.288,0h0c.089,5.1,1.675,9.163,3.639,9.163Zm99.917-9.307A12.125,12.125,0,1,1,136.4,27.988a12.12,12.12,0,0,1-12.125-12.125ZM136.4,23.54c3.738,0,6.778-3.439,6.778-7.677s-3.028-7.677-6.778-7.677-6.767,3.439-6.767,7.677,3.028,7.677,6.767,7.677ZM162.294,8.786V27.445H157.18V8.8h-7.122V4.582h19.369V8.8h-7.122Zm13.312,13.5h0l-1.964,5.147h-5.968L177.1,4.57h6.356l9.429,22.863h-5.968L184.958,22.3h-9.363Zm4.681-3.86H183.5l-3.195-8.364h-.044l-3.195,8.364h3.217ZM68.113,8.8V27.445H63V8.8H55.866V4.582H75.234V8.8H68.1Zm8.431,7.077A12.125,12.125,0,1,1,88.668,28,12.12,12.12,0,0,1,76.543,15.874Zm12.125,7.677c3.738,0,6.767-3.439,6.767-7.677S92.407,8.2,88.668,8.2,81.9,11.637,81.9,15.874,84.93,23.551,88.668,23.551Zm23.862,3.894h2.6V18.759L124.045,4.57h-5.968l-5.536,9.607L107.005,4.57h-5.968l8.919,14.188v8.686h2.585Z" transform="translate(0 0)" fill="#fff" fill-rule="evenodd"/></g></g></svg>