<svg xmlns="http://www.w3.org/2000/svg" width="42" height="42" viewBox="0 0 42 42"><g transform="translate(-1931 -10819)"><g transform="translate(1942.969 10826.1)"><path d="M19.735,7.35V6.3a5.024,5.024,0,0,0-4.455-5.045,4.967,4.967,0,0,0-3.767,1.278A4.866,4.866,0,0,0,9.94,6.073V7.318A4.059,4.059,0,0,0,6.5,11.347v6.191A3.873,3.873,0,0,0,10.366,21.4h8.943a3.873,3.873,0,0,0,3.866-3.866V11.314A4.014,4.014,0,0,0,19.735,7.35ZM12.3,3.386A3.716,3.716,0,0,1,15.181,2.4a3.857,3.857,0,0,1,3.407,3.9v.983H11.119V6.073A3.646,3.646,0,0,1,12.3,3.386Zm9.762,14.119a2.712,2.712,0,0,1-2.719,2.719H10.366a2.712,2.712,0,0,1-2.719-2.719V11.38a2.957,2.957,0,0,1,2.948-2.948H19.08a2.93,2.93,0,0,1,2.981,2.883Z" transform="translate(-6.445 -1.181)" fill="#00c999"/><path d="M14.893.636c.169,0,.337.008.5.024a5.693,5.693,0,0,1,5.048,5.7v.526A4.855,4.855,0,0,1,22.75,8.327a4.494,4.494,0,0,1,1.134,3.047v6.219a4.526,4.526,0,0,1-4.52,4.52H10.42a4.526,4.526,0,0,1-4.52-4.52V11.4A4.752,4.752,0,0,1,7.04,8.31a4.687,4.687,0,0,1,2.3-1.466V6.128a5.532,5.532,0,0,1,1.78-4.017l.008-.007A5.617,5.617,0,0,1,14.893.636Zm3.1,6.049V6.357A3.2,3.2,0,0,0,15.18,3.111Q15.03,3.1,14.887,3.1a3.053,3.053,0,0,0-2.091.827,2.987,2.987,0,0,0-.967,2.2v.557ZM19.4,19.625a2.066,2.066,0,0,0,2.064-2.064V11.369a2.281,2.281,0,0,0-2.326-2.228H10.65a2.3,2.3,0,0,0-2.293,2.293V17.56a2.066,2.066,0,0,0,2.064,2.064Z" transform="translate(-6.5 -1.236)" fill="#00c999"/><path d="M8.341.166,3.1,4.39,1.33,1.983A.706.706,0,0,0,.316,1.814.706.706,0,0,0,.147,2.827l2.2,3.083a.783.783,0,0,0,.507.3h.084A.635.635,0,0,0,3.4,6.037l5.828-4.73A.743.743,0,0,0,9.355.251.73.73,0,0,0,8.341.166Z" transform="matrix(0.985, -0.174, 0.174, 0.985, 3.167, 11.36)" fill="#00c999"/><path d="M9.13,0a1.063,1.063,0,0,1,.806.366l.013.017A1.071,1.071,0,0,1,9.762,1.9L3.95,6.614a.965.965,0,0,1-.684.252H3.148L3.116,6.86a1.109,1.109,0,0,1-.706-.421l0-.007L.216,3.36a.952.952,0,0,1-.21-.719A1.111,1.111,0,0,1,.44,1.886a.94.94,0,0,1,.612-.22,1.1,1.1,0,0,1,.872.448L3.5,4.247l4.965-4A1.035,1.035,0,0,1,9.13,0Zm.3.788a.394.394,0,0,0-.3-.128.374.374,0,0,0-.244.087L8.879.754,3.373,5.194,1.394,2.509a.444.444,0,0,0-.342-.182.284.284,0,0,0-.19.068l-.017.013a.449.449,0,0,0-.182.305.3.3,0,0,0,.066.229l.018.023L2.94,6.046a.438.438,0,0,0,.275.161h.05A.293.293,0,0,0,3.5,6.134l.025-.023L9.36,1.373A.412.412,0,0,0,9.427.788Z" transform="matrix(0.985, -0.174, 0.174, 0.985, 2.784, 11.092)" fill="#00c999"/></g><g transform="translate(-18745 -1814)"><rect width="42" height="42" transform="translate(20676 12633)" fill="none"/><g transform="translate(20670.701 12626.6)"><path d="M40.4,8.4h-29.2A5.893,5.893,0,0,0,5.3,14.307V41.888a3.423,3.423,0,0,0,1.756,3.033,3.459,3.459,0,0,0,3.512,0l9.259-5.348a.479.479,0,0,1,.319-.08H40.484a5.893,5.893,0,0,0,5.907-5.907v-19.2A6.031,6.031,0,0,0,40.4,8.4ZM43.6,33.666a3.113,3.113,0,0,1-3.113,3.113H20.067a3.418,3.418,0,0,0-1.756.479l-9.18,5.348a.724.724,0,0,1-.718,0,.785.785,0,0,1-.319-.639V14.387a3.113,3.113,0,0,1,3.113-3.113H40.4a3.113,3.113,0,0,1,3.113,3.113V33.666Z" transform="translate(0 0)" fill="#00c999"/></g></g></g></svg>