<svg xmlns="http://www.w3.org/2000/svg" xmlns:xlink="http://www.w3.org/1999/xlink" width="544.249" height="470.561" viewBox="0 0 544.249 470.561"><defs><filter id="a" x="352.051" y="50.758" width="100.859" height="100.859" filterUnits="userSpaceOnUse"><feOffset dy="3" input="SourceAlpha"/><feGaussianBlur stdDeviation="3" result="b"/><feFlood flood-opacity="0.11"/><feComposite operator="in" in2="b"/><feComposite in="SourceGraphic"/></filter><filter id="c" x="112.335" y="320.619" width="110.272" height="110.272" filterUnits="userSpaceOnUse"><feOffset dy="3" input="SourceAlpha"/><feGaussianBlur stdDeviation="3" result="d"/><feFlood flood-opacity="0.11"/><feComposite operator="in" in2="d"/><feComposite in="SourceGraphic"/></filter><filter id="e" x="370.272" y="247.574" width="110.311" height="110.311" filterUnits="userSpaceOnUse"><feOffset dy="3" input="SourceAlpha"/><feGaussianBlur stdDeviation="3" result="f"/><feFlood flood-opacity="0.11"/><feComposite operator="in" in2="f"/><feComposite in="SourceGraphic"/></filter><filter id="g" x="94.115" y="107.439" width="82.355" height="82.355" filterUnits="userSpaceOnUse"><feOffset dy="3" input="SourceAlpha"/><feGaussianBlur stdDeviation="3" result="h"/><feFlood flood-opacity="0.11"/><feComposite operator="in" in2="h"/><feComposite in="SourceGraphic"/></filter><filter id="i" x="341.239" y="171.727" width="76.001" height="76.001" filterUnits="userSpaceOnUse"><feOffset dy="3" input="SourceAlpha"/><feGaussianBlur stdDeviation="3" result="j"/><feFlood flood-opacity="0.11"/><feComposite operator="in" in2="j"/><feComposite in="SourceGraphic"/></filter><filter id="k" x="147.934" y="201.763" width="73.93" height="73.929" filterUnits="userSpaceOnUse"><feOffset dy="3" input="SourceAlpha"/><feGaussianBlur stdDeviation="3" result="l"/><feFlood flood-opacity="0.11"/><feComposite operator="in" in2="l"/><feComposite in="SourceGraphic"/></filter></defs><g transform="translate(-827.487 -194.271)"><g transform="translate(702 -1942.73)"><path d="M171.865,1a324.144,324.144,0,0,0-49.353,3.638A243.031,243.031,0,0,0,79.8,15.069,168.185,168.185,0,0,0,45.057,31.553,111.172,111.172,0,0,0,19.574,53.334,78.191,78.191,0,0,0,3.78,82.346a75.574,75.574,0,0,0-1.619,33.608,100.186,100.186,0,0,0,9.321,27.882,142.461,142.461,0,0,0,17.8,26.953,204.052,204.052,0,0,0,25.28,25.355A275.891,275.891,0,0,0,86.3,219.232a344.448,344.448,0,0,0,37.17,20.158,396.265,396.265,0,0,0,41.567,16.574,422.991,422.991,0,0,0,44.929,12.34,423.622,423.622,0,0,0,47.259,7.458c13.085,1.307,26.1,1.97,38.674,1.97a324.143,324.143,0,0,0,49.353-3.638,243.032,243.032,0,0,0,42.709-10.43,168.186,168.186,0,0,0,34.746-16.484A111.172,111.172,0,0,0,448.192,225.4a78.191,78.191,0,0,0,15.794-29.012,75.574,75.574,0,0,0,1.619-33.608,100.186,100.186,0,0,0-9.321-27.882,142.461,142.461,0,0,0-17.8-26.953A204.052,204.052,0,0,0,413.2,82.586,275.9,275.9,0,0,0,381.464,59.5a344.448,344.448,0,0,0-37.17-20.158,396.293,396.293,0,0,0-41.567-16.574,423.671,423.671,0,0,0-92.188-19.8C197.455,1.663,184.443,1,171.865,1m0-1q18.75,0,38.773,1.975C339.159,14.812,453.753,86.731,466.591,162.61,478.1,230.62,403.944,278.731,295.9,278.731q-18.75,0-38.773-1.975C128.607,263.918,14.013,192,1.175,116.121-10.331,48.111,63.823,0,171.865,0Z" transform="translate(125.487 2363.779) rotate(-29)" fill="#4469f3" opacity="0.11"/><g transform="translate(486.538 2193.759)"><g transform="matrix(1, 0, 0, 1, -361.05, -56.76)" filter="url(#a)"><circle cx="41.429" cy="41.429" r="41.429" transform="translate(361.05 56.76)" fill="#fff"/></g><g transform="translate(23.639 20.972)"><path d="M37.786,5.423l-13.327-4a4.608,4.608,0,0,0-2.332,0L8.8,5.423A4.02,4.02,0,0,0,6,9.288V25.414c0,4.931,4.731,9.329,8.663,12.195a56.388,56.388,0,0,0,6.864,4.2,3.965,3.965,0,0,0,3.732,0,53.186,53.186,0,0,0,6.864-4.2c3.932-2.865,8.663-7.33,8.663-12.195V9.288A4.293,4.293,0,0,0,37.786,5.423Zm.533,19.991c0,3.065-2.732,6.73-7.663,10.329a56.175,56.175,0,0,1-6.53,4,1.569,1.569,0,0,1-1.533,0,54.346,54.346,0,0,1-6.53-4c-5-3.6-7.73-7.263-7.73-10.329V9.288a1.64,1.64,0,0,1,1.2-1.6l13.327-4a1.666,1.666,0,0,1,.933,0l13.327,4a1.64,1.64,0,0,1,1.2,1.6Z" transform="translate(-6 -1.275)" fill="#00c999"/><path d="M41.211,23.674,29.621,33.022l-3.926-5.328a1.608,1.608,0,0,0-2.617,1.87l4.861,6.824a1.734,1.734,0,0,0,1.122.654h.187a1.406,1.406,0,0,0,1.028-.374L43.174,26.2a1.645,1.645,0,0,0,.28-2.337A1.615,1.615,0,0,0,41.211,23.674Z" transform="translate(-15.004 -10.481)" fill="#00c999"/></g></g><g transform="translate(246.822 2463.62)"><g transform="matrix(1, 0, 0, 1, -121.33, -326.62)" filter="url(#c)"><circle cx="46.136" cy="46.136" r="46.136" transform="translate(121.33 326.62)" fill="#fff"/></g><g transform="translate(21.914 22.869)"><g transform="translate(7.219 25.385)"><path d="M27.176,36.5H11.494a1.494,1.494,0,1,0,0,2.987H27.176a1.494,1.494,0,1,0,0-2.987Z" transform="translate(-10 -36.5)" fill="#00c999"/><path d="M24.77,45.1H11.494a1.494,1.494,0,1,0,0,2.987H24.853a1.487,1.487,0,0,0,1.494-1.494A1.56,1.56,0,0,0,24.77,45.1Z" transform="translate(-10 -37.964)" fill="#00c999"/></g><path d="M49.426,6.565,49.094,6.4a4.716,4.716,0,0,0-3.817-.166,5.05,5.05,0,0,0-2.821,2.572l-1.328,2.821h0L35.735,23.243H6.279A4.993,4.993,0,0,0,1.3,28.222V44.153a4.993,4.993,0,0,0,4.979,4.979h32.61a4.993,4.993,0,0,0,4.979-4.979V30.379L50.5,16.024h0L51.833,13.2A5.006,5.006,0,0,0,49.426,6.565ZM46.273,8.971a2.083,2.083,0,0,1,1.577.083l.332.166a2.022,2.022,0,0,1,1,2.738l-.664,1.494-4.149-1.908.664-1.494A2.3,2.3,0,0,1,46.273,8.971ZM40.05,31.624l-3.817,2.738L35.9,29.715l2.074-4.4h0L43.12,14.282l4.149,1.908Zm-1.245,14.6H6.279A2.054,2.054,0,0,1,4.2,44.153V28.222a2.054,2.054,0,0,1,2.074-2.074H34.408L33.163,28.8a2.423,2.423,0,0,0-.166.747l.5,7.717a1.453,1.453,0,0,0,.83,1.245,1.538,1.538,0,0,0,.581.166,1.4,1.4,0,0,0,.83-.249l5.145-3.734v9.459A2,2,0,0,1,38.805,46.227Z" transform="translate(-1.3 -5.906)" fill="#00c999"/></g></g><g transform="translate(504.759 2390.575)"><g transform="matrix(1, 0, 0, 1, -379.27, -253.57)" filter="url(#e)"><circle cx="46.155" cy="46.155" r="46.155" transform="translate(379.27 253.57)" fill="#fff"/></g><g transform="translate(25.647 23.488)"><path d="M47.892,41.756,44.3,45.5l-1.223-1.376a1.353,1.353,0,1,0-1.988,1.835L43.3,48.33a1.233,1.233,0,0,0,.994.459h0a1.61,1.61,0,0,0,.994-.382l4.587-4.816a1.341,1.341,0,0,0-.076-1.911A1.279,1.279,0,0,0,47.892,41.756Z" transform="translate(-10.66 -11.558)" fill="#00c999"/><path d="M40.848,24.418V15.932a4.824,4.824,0,0,0-1.3-3.287L31.9,4.082A4.884,4.884,0,0,0,28.234,2.4h-14.3a4.884,4.884,0,0,0-3.67,1.682L2.623,12.644A4.751,4.751,0,0,0,1.4,15.932V38.637a4.959,4.959,0,0,0,4.969,4.969H27.24a12.082,12.082,0,0,0,21.177-7.951A12.488,12.488,0,0,0,40.848,24.418ZM29.916,5.84l6.575,7.416H22.424V5.076h5.81A2.168,2.168,0,0,1,29.916,5.84Zm-17.736,0a2.455,2.455,0,0,1,1.682-.765h5.81v8.1H5.6ZM6.216,40.854a2.3,2.3,0,0,1-2.294-2.294V15.855H38.1v7.8a16.142,16.142,0,0,0-1.988-.153A12.1,12.1,0,0,0,24.029,35.579a12.762,12.762,0,0,0,1.223,5.352H6.216Zm29.969,4.128a9.4,9.4,0,1,1,9.4-9.4A9.4,9.4,0,0,1,36.185,44.983Z" transform="translate(-1.4 -2.4)" fill="#00c999"/></g></g><g transform="translate(0.958 -2.562)"><g transform="matrix(1, 0, 0, 1, 124.53, 2139.56)" filter="url(#g)"><circle cx="32.178" cy="32.178" r="32.178" transform="translate(103.12 113.44)" fill="#fff"/></g><g transform="translate(241.49 2266.465)"><path d="M2.234,10.1a.985.985,0,0,0,.989-.989V4.327a.551.551,0,0,1,.549-.549H8.5A.989.989,0,0,0,8.5,1.8H3.772A2.462,2.462,0,0,0,1.3,4.272v4.78A.956.956,0,0,0,2.234,10.1Z" transform="translate(-0.045 0)" fill="#00c999"/><path d="M53.514,1.9H48.789a.989.989,0,0,0,0,1.978h4.725a.551.551,0,0,1,.549.549v4.78a.989.989,0,0,0,1.978,0V4.372A2.509,2.509,0,0,0,53.514,1.9Z" transform="translate(-20.998 -0.045)" fill="#00c999"/><path d="M55.052,47.1a.985.985,0,0,0-.989.989v4.78a.551.551,0,0,1-.549.549H48.789a.989.989,0,0,0,0,1.978h4.725a2.462,2.462,0,0,0,2.472-2.472v-4.78A.926.926,0,0,0,55.052,47.1Z" transform="translate(-20.998 -20.412)" fill="#00c999"/><path d="M8.452,53.418H3.727a.551.551,0,0,1-.549-.549v-4.78a.989.989,0,1,0-1.978,0v4.78a2.462,2.462,0,0,0,2.472,2.472H8.4a.985.985,0,0,0,.989-.989A.926.926,0,0,0,8.452,53.418Z" transform="translate(0 -20.412)" fill="#00c999"/><path d="M33.966,26.908a1.7,1.7,0,0,0-.494-1.209c-1.538-1.483-5.549-5-10.439-5s-8.9,3.516-10.439,5a1.724,1.724,0,0,0,0,2.417c1.538,1.483,5.549,5,10.439,5s8.9-3.516,10.439-5A1.7,1.7,0,0,0,33.966,26.908ZM23.033,31.193c-4.011,0-7.472-2.912-8.9-4.285,1.428-1.428,4.89-4.285,8.9-4.285s7.472,2.912,8.9,4.285C30.5,28.337,27.044,31.193,23.033,31.193Z" transform="translate(-4.912 -8.516)" fill="#00c999"/><path d="M28.4,30.378A1.978,1.978,0,1,0,30.378,28.4,1.97,1.97,0,0,0,28.4,30.378Z" transform="translate(-12.256 -11.986)" fill="#00c999"/></g></g></g><path d="M36.493,0C56.648,0,72.986,15.953,72.986,35.633S56.648,71.266,36.493,71.266,0,55.313,0,35.633,16.338,0,36.493,0ZM52.579,19.261H30.731V57.783L51.859,28.892H45.536Z" transform="translate(1072.546 386)" fill="#4672ff" fill-rule="evenodd"/><path d="M78.7,1A147.9,147.9,0,0,0,56.187,2.66,110.751,110.751,0,0,0,36.724,7.412a76.479,76.479,0,0,0-15.8,7.495A50.371,50.371,0,0,0,9.378,24.774,35.269,35.269,0,0,0,2.252,37.859,34.071,34.071,0,0,0,1.524,53.01,45.339,45.339,0,0,0,5.744,65.627a64.7,64.7,0,0,0,8.083,12.24A92.9,92.9,0,0,0,25.337,89.41,125.8,125.8,0,0,0,39.81,99.937a157.191,157.191,0,0,0,16.963,9.2A180.931,180.931,0,0,0,75.751,116.7a192.85,192.85,0,0,0,42.1,9.041c5.974.6,11.915.9,17.656.9a147.9,147.9,0,0,0,22.518-1.66,110.752,110.752,0,0,0,19.463-4.753,76.479,76.479,0,0,0,15.8-7.495,50.37,50.37,0,0,0,11.546-9.867,35.27,35.27,0,0,0,7.126-13.085,34.071,34.071,0,0,0,.728-15.151,45.337,45.337,0,0,0-4.219-12.617,64.7,64.7,0,0,0-8.083-12.24,92.9,92.9,0,0,0-11.51-11.543A125.8,125.8,0,0,0,174.4,27.706a157.191,157.191,0,0,0-16.963-9.2A180.931,180.931,0,0,0,138.46,10.94,192.85,192.85,0,0,0,96.361,1.9C90.387,1.3,84.447,1,78.7,1m0-1q8.587,0,17.756.9c58.855,5.879,111.333,38.814,117.212,73.562,5.269,31.145-28.689,53.177-78.166,53.177q-8.587,0-17.756-.9C58.895,120.86,6.417,87.925.538,53.177-4.731,22.032,29.227,0,78.7,0Z" transform="translate(984.422 417.739) rotate(-29)" fill="#4469f3" opacity="0.11"/><g transform="translate(1177.727 371.997)"><g transform="matrix(1, 0, 0, 1, -350.24, -177.73)" filter="url(#i)"><circle cx="29" cy="29" r="29" transform="translate(350.24 177.73)" fill="#fff"/></g><g transform="translate(12.179 15.339)"><path d="M33.308,6.9H4.474A3.272,3.272,0,0,0,1.2,10.174v16.6a3.272,3.272,0,0,0,3.274,3.274H13.2L18.03,35.39a.926.926,0,0,0,.747.345h0a.926.926,0,0,0,.747-.345l4.94-5.4h8.788a3.272,3.272,0,0,0,3.274-3.274V10.174A3.224,3.224,0,0,0,33.308,6.9Zm1.264,19.874a1.275,1.275,0,0,1-1.264,1.264H24.061a.926.926,0,0,0-.747.345l-4.538,4.882-4.423-4.882a.926.926,0,0,0-.747-.345H4.417a1.275,1.275,0,0,1-1.264-1.264v-16.6A1.275,1.275,0,0,1,4.417,8.91H33.251a1.275,1.275,0,0,1,1.264,1.264v16.6Z" transform="translate(-1.2 -6.9)" fill="#00c999"/><path d="M31.784,20.677,25.7,26.823,23.513,24.64a1.015,1.015,0,1,0-1.436,1.436l2.872,2.872a.971.971,0,0,0,1.379,0l6.835-6.835a1.006,1.006,0,0,0,0-1.436A.938.938,0,0,0,31.784,20.677Z" transform="translate(-9.957 -12.635)" fill="#00c999"/></g></g><g transform="translate(-0.33 -20.465)"><g transform="translate(984.752 422.498)"><g transform="matrix(1, 0, 0, 1, -156.93, -207.76)" filter="url(#k)"><circle cx="27.965" cy="27.965" r="27.965" transform="translate(156.93 207.76)" fill="#fff"/></g></g><path d="M34.5,33.088H32.107V19.723a3.292,3.292,0,0,0-3.286-3.286H26.538a9.833,9.833,0,0,0,.39-2.562,8.327,8.327,0,0,0-1.169-4.344A8.519,8.519,0,0,0,18.519,5.3h-.278A8.449,8.449,0,0,0,11,9.532a8.62,8.62,0,0,0-1.169,4.344,7.943,7.943,0,0,0,.39,2.562H7.938a3.292,3.292,0,0,0-3.286,3.286V33.088H2.2a1,1,0,0,0-1,1,.952.952,0,0,0,1,.947H34.5a1,1,0,0,0,1-1A.952.952,0,0,0,34.5,33.088ZM24.088,10.535a7.363,7.363,0,0,1,.891,2.84L22.25,11.481A5.83,5.83,0,0,1,19.8,7.416,6.6,6.6,0,0,1,24.088,10.535Zm-11.472,0A6.525,6.525,0,0,1,17.851,7.3,7.612,7.612,0,0,0,21.136,13.1l3.62,2.506A6.829,6.829,0,0,1,23.7,17.83a3.834,3.834,0,0,1-.613.724l-.557-.724a6.707,6.707,0,0,0-5.4-2.45,4.967,4.967,0,0,1-1.782-.278l-3.675-1.337A7.694,7.694,0,0,1,12.616,10.535Zm8.91,9.189a6.687,6.687,0,0,1-3.119.835h-.167a6.674,6.674,0,0,1-5.29-2.729A7.847,7.847,0,0,1,12,16.048l2.673.947a7.388,7.388,0,0,0,2.506.39,4.542,4.542,0,0,1,3.787,1.726ZM6.546,33.088V19.723a1.355,1.355,0,0,1,1.337-1.337h2.784A.706.706,0,0,0,11,18.331a4.645,4.645,0,0,0,.446.668,8.369,8.369,0,0,0,6.794,3.508h.223A8.6,8.6,0,0,0,25.257,19a2.3,2.3,0,0,0,.39-.613h3.119A1.355,1.355,0,0,1,30.1,19.723V33.088H19.354V28.355l2.172,2.172a1.059,1.059,0,0,0,.724.278,1.027,1.027,0,0,0,.668-.278.975.975,0,0,0,0-1.392l-3.842-3.9a1.027,1.027,0,0,0-.668-.278h0a.922.922,0,0,0-.668.278l-3.9,3.9a.984.984,0,0,0,1.392,1.392L17.461,28.3v4.789H6.546Z" transform="translate(994.365 428.3)" fill="#00c999"/></g></g></svg>