<?xml version="1.0" encoding="UTF-8"?><svg id="Layer_2" xmlns="http://www.w3.org/2000/svg" viewBox="0 0 596.48 333.15"><defs><style>.cls-1{stroke:#4726ae;}.cls-1,.cls-2,.cls-3{fill:none;stroke-width:2px;}.cls-4{fill:#6d1afe;}.cls-4,.cls-5,.cls-6{stroke-width:0px;}.cls-5{fill:#fff;}.cls-2{stroke:#b68dff;}.cls-6{fill:#21325e;}.cls-3{stroke:#9099af;}</style></defs><g id="Layer_1-2"><path class="cls-1" d="M500.01,311.85c.2-1.9-.51-4.6.5-5.87" vector-effect="non-scaling-stroke"/><path class="cls-3" d="M500.51,305.98s89.43-.02,89.43-.02c1.1-.21.58-240.2.12-240.53-.08.24-584.43-.63-584.09.38,0,0,0,239.74,0,239.74-.3,1.33,89.97-.05,90.29.43" vector-effect="non-scaling-stroke"/><path class="cls-1" d="M96.26,305.98l-.03,5.87" vector-effect="non-scaling-stroke"/><path class="cls-2" d="M500.51,305.98c-1.74-7.2.52-16.56-.82-23.88,0,0-402.93-.01-402.93-.01-.41,0-.61.2-.6.6,0,0,.1,23.29.1,23.29" vector-effect="non-scaling-stroke"/><path class="cls-3" d="M159.51,40.87c.64-.03,2.2,5.64,2.83,5.62.24-.21,4.11.54,3.68-.42-15.31-31.73-6.68-30.83-22.52-.02-.44.95,3.4.25,3.67.44.23.39,2.57-5.43,2.65-5.46.05-.12.17-.2.3-.2l9.39.04" vector-effect="non-scaling-stroke"/><path class="cls-3" d="M377.95,41.03c.05-.12.17-.2.3-.2l9.36.05c.4-.27,2.36,5.3,2.54,5.41,0,.4,3.46.16,3.67.25.23,0,.41-.25.31-.46,0,0-10.69-23.93-10.69-23.93-1.02-1.37-11.29,23.9-11.83,23.9-.44.95,3.39.26,3.66.45.22.4,2.61-5.45,2.68-5.47" vector-effect="non-scaling-stroke"/><path class="cls-3" d="M343.97,26.45c2.15-.89,3.85-.36,5.1,1.61.19.29.43.34.72.15,8.11-3.73-10.4-10.43-11.02.44-.53,7.81,12.32,5.59,10.13,12.37-1.25,3.87-7.01,3.21-7.39-1,.01-1.42-2.52-.15-3.21-.2-1.87,2.86,2.99,7.11,5.79,7.15,12.02.5,11.12-13.82.36-15.66-2.22-.64-2.68-3.94-.48-4.86" vector-effect="non-scaling-stroke"/><path class="cls-3" d="M252.75,34.83c-.07-16.09-24.53-16.08-24.6,0,0,6.79,5.51,12.3,12.3,12.3,6.79,0,12.3-5.51,12.3-12.3" vector-effect="non-scaling-stroke"/><path class="cls-3" d="M444.47,26.46c2.12-.9,3.79-.39,5.02,1.54.19.3.44.36.75.17.35-.41,3.01-1.24,2.25-2.1-1.94-2.97-4.72-4.03-8.35-3.18-3.87.91-6.39,5.24-4.11,8.91,2.24,3.6,8.07,3.22,9.37,6.8,1.84,5.09-6.75,7.45-7.5,1.1,0-1.09-2.88.32-3.36.24-.97,3.52,3.16,6.9,6.18,7.01,9.47.95,12.2-11.21,3.07-14.47-2.75-.45-7.22-3.77-3.32-6.02" vector-effect="non-scaling-stroke"/><path class="cls-3" d="M175.56,37.02c14.31.29,10.08-18.37-4.52-13.48.25.28-.5,23,.25,22.96.2-.13,3.61.3,3.47-.23.34-.52-.83-9.94.8-9.25" vector-effect="non-scaling-stroke"/><path class="cls-3" d="M194.37,37c13.87.38,10.74-18.27-4.58-13.47.25.28-.49,23.02.26,22.98.21-.18,3.63.31,3.49-.26.35-.62-.9-9.9.83-9.25" vector-effect="non-scaling-stroke"/><path class="cls-3" d="M212.51,37.33c.63-1.39,6.51,9.71,7.29,9.19.03-.13,4.51.26,4.07-.28,0,0-6.7-9.12-6.7-9.12-.24-.32-.17-.55.2-.7,3.16-1.21,4.65-3.54,4.48-6.99-.36-6.95-7.74-6.51-12.53-6.38-.43.01-.64.23-.64.66v22.42c-.15.76,2.87.22,3.18.38,1.52-2.08-.33-6.42.65-9.18" vector-effect="non-scaling-stroke"/><path class="cls-3" d="M266.43,38.44c-.79,1.65-6.35-15.3-6.68-15.2,0-.44-3.44-.1-3.66-.2-.23,0-.4.25-.3.46,14.17,31.42,6.45,31.37,20.64.02.1-.21-.08-.47-.31-.46-.27.13-3.64-.23-3.66.22,0,0-6.03,15.16-6.03,15.16" vector-effect="non-scaling-stroke"/><path class="cls-3" d="M285.09,26.88c0-.2.17-.37.37-.37.16-.15,9.47.39,9.03-.38-.17-.28.32-3.21-.42-3.09,0,0-12.27.02-12.27.02-.2,0-.37.17-.37.37.35.37-.73,23.16.32,23.08,0,0,12.36,0,12.36,0,.21,0,.38-.17.37-.38-.17-.37.33-3.16-.41-3.1-.17-.19-9.39.47-8.96-.34.16-.22-.44-7.18.34-6.84,0,0,8.26-.04,8.26-.04.74.09.2-2.73.34-3.05,0-1.11-8.97.37-8.97-.74v-5.13" vector-effect="non-scaling-stroke"/><path class="cls-3" d="M300.95,23.32c.29.32-.68,23.22.18,23.18,8.01,1,17.9-1.41,17.94-10.97.76-10.48-9.49-14.05-18.12-12.21" vector-effect="non-scaling-stroke"/><path class="cls-3" d="M365.06,26.89c.12-1.08,5.35.32,5.47-.76-.15-.33.33-3.18-.4-3.09-.05,0-13.63,0-13.68.01-.64,0-.26,2.78-.39,3.11.19.99,5.22-.34,5.34.71l-.09,19.25c-.11.74,3.08.23,3.39.38.2,0,.37-.17.37-.37,0,0-.01-19.25-.01-19.25" vector-effect="non-scaling-stroke"/><path class="cls-3" d="M400.23,26.5c1.16-.25-.42,20.25.74,20,.33-.23,3.45.44,3.35-.36,0,0-.02-19.24-.02-19.24.12-1.08,5.38.32,5.48-.78-.18-.29.31-3.22-.43-3.1-.54.25-13.96-.49-14.1.4.17.37-.47,3.12.29,3.08,0,0,4.69,0,4.69,0" vector-effect="non-scaling-stroke"/><path class="cls-3" d="M428.47,37.8c0,7.58-10.03,7.62-10.05.43-.39-4.97.72-10.8-.39-15.21-.05,0-2.95,0-3.01.01-.77,4.68,0,10.25-.31,15.54.13,9.15,11.82,11.3,16.22,4.42,2.5-4.95.7-14.27,1.24-19.41-.03-1-2.64-.37-3.19-.53-1.35,4.07-.07,9.77-.51,14.75" vector-effect="non-scaling-stroke"/><path class="cls-3" d="M151.62,36.93c-.61,1.06,5.84.32,6.08.54.26,0,.45-.28.34-.52-3.88-8.57-2.48-8.51-6.42-.02" vector-effect="non-scaling-stroke"/><path class="cls-3" d="M379.74,36.92c-.64,1.08,5.83.33,6.07.55.26,0,.45-.28.34-.52-3.88-8.56-2.48-8.57-6.41-.03" vector-effect="non-scaling-stroke"/><path class="cls-3" d="M240.42,43.65c11.12.21,11.18-17.79.06-17.66-11.12-.21-11.18,17.79-.06,17.66" vector-effect="non-scaling-stroke"/><path class="cls-3" d="M174.75,26.81l.04,6.5c-.06.58,1.76.19,2.02.29,7.03-.7,3.55-9.17-2.06-6.79h0" vector-effect="non-scaling-stroke"/><path class="cls-3" d="M193.51,26.89l-.02,6.32c-.06.73,1.71.3,2.07.41,5.24.09,5.26-7.19.02-7.12-.35.12-2.1-.32-2.07.39" vector-effect="non-scaling-stroke"/><path class="cls-3" d="M212.33,26.89l.04,6.44c-.03.69,1.46.3,1.82.39,7.35-.59,3.7-9.48-1.86-6.83" vector-effect="non-scaling-stroke"/><path class="cls-3" d="M304.56,27.03v15.54c0,.3.24.54.54.54,5.14.66,10.32-2.72,10.26-8.06h0c.26-4.64-3.53-8.57-8.33-8.56-.48.13-2.52-.39-2.47.54" vector-effect="non-scaling-stroke"/><path class="cls-3" d="M206.82,111.25v-14.99c-5.72-2.11-11.53,3.02-11.67,8.39-1.38,13.45,20.55,15.37,21.87,2.06.5-4.71-1.58-9.33-5.97-10.72-4.25,4.82,6.18,4.58,1.84,12.63-.35,1.24-4.87,4.66-6.07,2.63" vector-effect="non-scaling-stroke"/><path class="cls-2" d="M285.5,101.65c-.02-1.05,8.92.37,8.9-.68h0c-.14-.31.41-3.81-.31-3.7-.04,0-21.5,0-21.54,0-.65-.06-.15,3.45-.28,3.74.05.91,9.63-.32,9.02.66,0,.7,0,32.4,0,32.46-.03.67,3.6.18,3.91.34.17-.02.31-.17.31-.35h0v-32.48" vector-effect="non-scaling-stroke"/><path class="cls-2" d="M299.08,112.74c0-2.28-.39-1.28-3.66-1.46-.31,0-.46.15-.46.46l-.02,22.38c-.18.74,3.52.18,3.79.35.87-3.46.07-8.25.29-12.87-.12-4.71,1.95-8.19,7.09-6.49-.07-.21,2.1-3.42,1.46-3.5-3.13-1.5-5.77-1.06-7.93,1.31-.32.34-.51.28-.56-.18" vector-effect="non-scaling-stroke"/><path class="cls-2" d="M327.82,132.26c.07.61-.43,2.32.7,2.2.49-.25,3.59.57,3.43-.56,0,0,0-21.8,0-21.8.16-1.41-2.76-.61-3.46-.82-1.66-.31.34,3.65-1.22,2.46-8.77-8.34-21.65,1.83-18.13,12.71,1.77,8.31,12.35,11.75,18.12,5.58.39-.42.57-.34.56.23" vector-effect="non-scaling-stroke"/><path class="cls-2" d="M343.43,113.18c-.03-.58.42-2.02-.63-1.91-.66.24-3.49-.54-3.34.8,0,0,0,22,0,22-.16.84,3.29.22,3.63.4.23,0,.41-.18.41-.41h0c.9-6.21-2.68-15.36,3.51-19.24,10.73-2.94,5.94,13.98,6.92,19.26-.17.8,3.36.22,3.67.4.31,0,.46-.15.46-.46-1.19-7.05,3.47-18.64-4.55-22.61-3.65-1.37-6.86-.71-9.61,1.98-.34.33-.5.26-.47-.21" vector-effect="non-scaling-stroke"/><path class="cls-2" d="M369.21,116.16c.99-2.37,4.43-2.31,5.41.03.19.48.52.59.97.34,8.62-2.98-8.15-10.73-10.21-.85-2.07,9.27,12.44,6.88,9.94,13.51-1.5,3.98-6.52,2.27-7.83-.99-.3-1.09-2.77.72-3.33.75-.77,2.9,3.43,5.59,5.97,5.99,4.65.85,9.05-1.38,9.68-6.36.76-6.07-5.22-7.52-9.54-9.62-1.04-.5-1.5-1.73-1.06-2.8" vector-effect="non-scaling-stroke"/><path class="cls-2" d="M389.05,113.41c.08-.65.54-2.15-.6-2.14-.62.26-3.56-.55-3.4.76.46.49-.9,35.35.49,35.2.54-.3,3.86.6,3.7-.61,0,0-.01-14.17-.01-14.17,0-.54.2-.63.6-.26,24.03,14.88,24.93-32.91-.78-18.78" vector-effect="non-scaling-stroke"/><path class="cls-2" d="M432,132.25c.06.56-.54,2.33.56,2.22.65-.24,3.66.62,3.5-.75,0,0,0-21.7,0-21.7.16-1.34-2.87-.52-3.52-.73-1.5-.16.37,3.6-1.13,2.46-5.93-5.69-15.75-3.04-18,4.95-3.42,13.88,8.88,20.36,18.59,13.55" vector-effect="non-scaling-stroke"/><path class="cls-2" d="M447.54,112.71c-.02-.4.27-1.43-.42-1.44-.04,0-3.11.03-3.15.03-1.24-.11-.15,22.35-.5,22.89-.19.62,3.6.13,3.8.28.19,0,.28-.09.28-.28.99-5.34-3.46-22.06,6.41-19,.89.59,1.76-2.58,2.16-2.93.21-.4.11-.69-.31-.86-4.98-2.72-8.26,3.09-8.27,1.31" vector-effect="non-scaling-stroke"/><path class="cls-2" d="M461.37,124.28c-.32-1.61,18.33.63,17.95-1.06-.11-19.09-25.92-15.22-21.73,3.56,1.75,10.31,18.43,11.22,21.32,1.54-.44.03-3.19-2.4-3.42-1.2-3.54,7.14-13.82,4.78-14.12-2.84" vector-effect="non-scaling-stroke"/><path class="cls-2" d="M489.41,112.56c.07-.54.19-1.4-.63-1.31-.39.25-3.69-.42-3.51.55,0,0-.02,22.16-.02,22.16-.17,1.01,3.33.3,3.76.5.32,0,.48-.16.48-.48-.03-4.49,0-8.95.05-13.4.1-7.47,10.32-8.86,10.3-.52.4,4.54-.81,10.23.43,14.4,0,0,3.27.02,3.27.02,1.35-4.41.1-10.57.42-15.5-.14-7.78-7.79-10.79-13.82-6.02-.55.43-.8.3-.73-.4" vector-effect="non-scaling-stroke"/><path class="cls-2" d="M526.27,115.35c1.07-.11,3.22,3.18,3.26,1.87-.19-.6.47-4.47-.47-4.69-9.15-5.36-20.58,1.77-18.99,12.18,1.16,9.47,12.03,13.22,19.47,8.2,1.69-10.12-2.4.66-9.25-1.68-10.29-2.15-7.15-20.97,5.98-15.88" vector-effect="non-scaling-stroke"/><path class="cls-2" d="M545.44,127.14c-.1.22-.44.23-.54,0-.26-.16-7.55-15.97-8.02-15.85-.19.18-4.83-.47-4.31.43,0,.26,10.59,20.36,10.35,20.64,0,0-7.11,14.41-7.11,14.41-.1.19.05.44.27.43.19-.17,4.28.31,4.26-.13-.24-.44,17.7-35.67,16.41-35.81-.23.14-4.23-.23-4.23.2,0,0-7.08,15.67-7.08,15.67" vector-effect="non-scaling-stroke"/><path class="cls-3" d="M214.46,135.31c8.4-8.86-3.88-20.85-13.62-15.52-6.21,2.84-7.65,10.66-3.03,15.6.41.44.32.65-.29.62-.69-.02-2.05-.32-1.95.8.19.67-.52,2.92.79,2.79,0,0,31.34.02,31.34.02.75.16.18-3.1.35-3.39,0-.15-.12-.27-.27-.27-.13-.35-15.27.82-13.32-.65" vector-effect="non-scaling-stroke"/><path class="cls-3" d="M217.28,154.94c-.07-14.58-22.24-14.58-22.3,0,.06,14.58,22.24,14.58,22.3,0" vector-effect="non-scaling-stroke"/><path class="cls-2" d="M347.59,167.06c-5.23-5.29-14.46-3.49-17.37,3.48-4.99,13.23,7.44,22.79,18,14.95.13.58-.24,2.4.85,2.24.63-.25,3.39.54,3.23-.78,0,0,0-39.38,0-39.38.16-.88-3.28-.26-3.64-.46-1.38-.39.86,21.8-1.07,19.95" vector-effect="non-scaling-stroke"/><path class="cls-2" d="M377.66,162.38c4.77-9.99,16.56-10.77,24.34-3.68-.02-.21.29-5.32-.13-5.31-14.73-10.81-35.35,5-29.19,21.95,3.8,12.29,18.46,16.74,29.12,9.73.47-1.05.32-2.72.23-5.24-12.54,12.11-32.05-2.31-24.37-17.45" vector-effect="non-scaling-stroke"/><path class="cls-2" d="M536.34,164.11c0,.24-.19.43-.43.42-.38.12-2.11-.39-2.09.37,0,0,.01,3,0,3,0,.23.2.42.43.41.39.1,2.06-.39,2.03.37,0,0,.01,18.57.01,18.57,0,.23.19.42.42.42.38-.26,3.74.44,3.66-.44,0,0,.13-18.49.13-18.49.12-1.09,3.55.1,3.72-.95-.14-.38.66-3.28-.21-3.21-.37-.14-3.68.29-3.57-.5-.18-.17.54-8.3-.34-7.85-.38.17-3.98-.47-3.86.4,0,0,.09,7.48.09,7.48" vector-effect="non-scaling-stroke"/><path class="cls-3" d="M147.01,200.05c-.49-.55.94-36.44-.5-36.35,0,0-16.55,0-16.55,0-1.79-.25-.06,88.4-.65,88.99.23,1.21,16.34.01,17.01.42.44,0,.66-.22.66-.65.21-.39-.52-4.58.69-3.67,24.41,14.78,48.22-10.9,38.92-35.37-6.84-17.28-24.88-20.92-39.58-13.37" vector-effect="non-scaling-stroke"/><path class="cls-2" d="M292.52,167.18c-3.19-3.1-6.93-3.94-11.22-2.53-16.48,6.15-3.01,33.38,11.14,20.58,1.43-1.12-.33,2.66,1.14,2.49.64-.23,3.59.63,3.43-.71,0,0,0-21.78,0-21.78,0-.4-.33-.73-.73-.73-.59.25-3.54-.58-3.33.69-.11.33.54,2.97-.43,1.99" vector-effect="non-scaling-stroke"/><path class="cls-2" d="M308.44,166.23c-.03-.41.51-1.84-.35-1.73-.47.26-3.77-.52-3.59.59,0,0,.03,22.25.03,22.25-.16.77,3.44.23,3.74.4,1.64-5.92-3.52-21.79,7.74-19.74,6.3,2.93,1.02,15.14,3.45,19.71,0,0,3.15.04,3.15.04,1.33-4.42,0-10.66.48-15.54.06-8.21-8.68-10.61-14.08-5.69-.45.41-.64.32-.57-.29" vector-effect="non-scaling-stroke"/><path class="cls-2" d="M431.77,176.22c-.07-16.12-24.59-16.12-24.66,0,0,6.81,5.52,12.33,12.33,12.33,6.81,0,12.33-5.52,12.33-12.33" vector-effect="non-scaling-stroke"/><path class="cls-2" d="M441.74,166.51c-.06-.42.41-2.05-.42-2.01-.43.25-3.78-.51-3.6.54,0,0-.01,22.27-.01,22.27-.18.85,3.33.24,3.66.42,1.22-3.96-.02-9.6.51-13.8.17-7.55,10.36-8.88,10.39-.85.49,4.83-.9,10.66.53,14.66.43-.25,3.7.5,3.51-.56-1.24-7.48,3.66-19.32-5.1-22.73-3.77-1.59-6.87.88-9.47,2.06" vector-effect="non-scaling-stroke"/><path class="cls-2" d="M467.9,168.76c1.54-1.99,4-1.04,5.18.82.28.44.62.49,1.02.16,6.13-2.23-1.96-6.76-5.37-5.6-5.47.99-7.45,8.54-2.3,11.33,3.95,1.84,11.92,5.13,4.74,9.13-2.45.67-4.59-1.07-5.44-3.26-.09-.23-.35-.35-.58-.26-.03.01-2.75,1.21-2.78,1.22-.24,3.56,4.38,6.17,7.66,6.08,4.03.05,6.6-1.65,7.71-5.09,2.19-6.8-4.12-8.84-8.88-10.86-1.43-.59-1.91-2.46-.96-3.67" vector-effect="non-scaling-stroke"/><path class="cls-2" d="M487.02,177l16.35.02c2.6-6.36-3.88-14.01-11.27-12.95-22.97,5.06-2.87,38.88,11.72,17.92.38-.29-2.79-1.73-2.85-1.88-.23-.13-.41-.08-.55.13-4.67,9.25-17.05,1.91-13.4-3.24" vector-effect="non-scaling-stroke"/><path class="cls-2" d="M514.06,166.27c.03-.5.66-1.85-.34-1.76-.41.23-3.8-.51-3.67.49,0,0-.01,22.23-.01,22.23-.18.99,3.29.28,3.71.48,2.26-5.31-3.65-22.11,7.95-19.69,6.19,3.33,1.07,14.59,3.38,19.7.31-.24,3.77.45,3.57-.44-.01-4.78,0-9.74.05-14.88.08-8.23-8.59-11.05-14.09-5.83-.22.22-.61,0-.55-.3" vector-effect="non-scaling-stroke"/><path class="cls-2" d="M62.17,176.73c-.07-15.1-23.01-15.09-23.08,0h0c.07,15.1,23.01,15.09,23.08,0h0" vector-effect="non-scaling-stroke"/><path class="cls-3" d="M196.57,173.58c-.44-.01-1.08-.02-1.03.6.2.4-.42,3.17.5,3.03,0,0,20.15-.03,20.15-.03.73.15.18-3.11.34-3.39-3.36-.85-7.91-.03-11.99-.36-4.87-.27-6.49-1.62-5.58-6.36,0,0-2.6-1.37-2.6-1.37-2.41,1.61-1.24,5.34.54,7.11.45.49.34.75-.33.77" vector-effect="non-scaling-stroke"/><path class="cls-3" d="M208.77,186.5c6.9.05,6.57,8.97.56,9.12-4.88.56-10.27-.69-13.77.58,0,0,0,2.63,0,2.63,3.77,1.52,9.58.1,13.73.54,10.45-.08,10.32-16.31.61-16.57-4.13.31-10.09-.97-14.34.4,0,0,0,2.8,0,2.8,3.57,1.34,8.86.02,13.22.5" vector-effect="non-scaling-stroke"/><path class="cls-3" d="M59.53,196.37c0-.18-.14-.32-.32-.32-.04,0-17.1,0-17.14,0-.16.02-.28.16-.28.32h0c.31.37-.6,56.8.32,56.76h17.1c.18,0,.32-.14.32-.32h0v-56.44" vector-effect="non-scaling-stroke"/><path class="cls-3" d="M105.91,249.19c.21.43-.55,4.17.63,3.92,0,0,16.77,0,16.77,0,.22,0,.39-.17.39-.38-.44-.46.84-56.76-.42-56.68,0,0-16.93,0-16.93,0-1.25-.02.52,5.26-1.1,4.36-20.66-13.87-46.25,7.61-40.29,30.68,4.66,20.33,24.22,26.46,40.95,18.1" vector-effect="non-scaling-stroke"/><path class="cls-2" d="M494.98,225.72l.02-25.12c.16-.55-3.68-.14-3.85-.27-.13,0-.23.11-.23.24.49.55-.97,40.49.54,40.38.56-.23,3.62.6,3.51-.55,0,0,.02-8.1.02-8.1-.48-6.04,9.14,8.97,10.25,8.64,1.1.07,3.07.22,5.05-.14-3.25-4.52-9.04-8.69-11.09-13.38,0,0,8.88-8.86,8.88-8.86,1.43-1.2-3.65-.47-3.91-.67-1.77-.72-7.94,8.6-9.19,7.83" vector-effect="non-scaling-stroke"/><path class="cls-3" d="M206.82,219.23v-14.95c-3.64-2.03-9.06,1.4-10.47,4.17-7.52,13.45,16.16,22.27,20.35,7.91,1.38-5.32-.37-9.5-5.24-12.54-.92.28-1.31,1.77-1.86,2.95,7.72,3.89,3.37,14.83-2.78,12.46" vector-effect="non-scaling-stroke"/><path class="cls-2" d="M280.49,223.07c0-.22.17-.39.39-.39.29-.21,12.22.49,11.93-.38h0c-.15-.35.41-3.72-.38-3.62-.2-.2-12.37.45-11.97-.4h0c.41-14.56-2.79-9.61,12.32-10.46.78.11.29-3.32.46-3.65,0-.22-.17-.4-.39-.4,0,0-16.21-.02-16.21-.02-1.12-.08.04,36.41-.34,36.8,0,.21.18.39.39.39.35-.17,3.84.43,3.73-.37,0,0,.07-17.5.07-17.5" vector-effect="non-scaling-stroke"/><path class="cls-2" d="M430.11,232.74c-.97,1.44-6.7-17.03-7.56-16.31-.74.18-6.4,17.4-7.41,16.35,0,0-6.34-14.65-6.34-14.65.01-.4-4.05-.12-4.24-.22-1.24.15,10.89,23.8,10.64,24.21.1.23.46.23.55-.01,0,0,6.58-15.94,6.58-15.94.72-1.48,6.8,16.05,7.11,15.96.97,1.26,11.11-23.81,11.62-23.81.46-.91-4.03-.22-4.25-.41-.55-.11-6.41,14.64-6.7,14.83" vector-effect="non-scaling-stroke"/><path class="cls-2" d="M302.26,219.08c-.03-.38.18-1.3-.48-1.22,0,0-2.99.09-2.99.09-1.4.43-.12,21.55-.53,22.52-.16,1.01,2.9.31,3.34.5.48,0,.72-.24.71-.72.75-5.07-3.21-21.22,6.2-18.62,1.11.65,1.86-2.35,2.36-2.85.16-.3.03-.68-.28-.81-4.52-2.79-8.09,2.95-8.33,1.11" vector-effect="non-scaling-stroke"/><path class="cls-2" d="M331.12,238.97c-.08.74-.19,2.03.9,2.01.64-.22,3.41.59,3.26-.74,0,0,0-21.41,0-21.41.16-1.51-2.69-.71-3.47-.9-1.2-.1-.58,1.62-.62,2.27-9.49-7.18-22.26.14-18.57,13.54,2.3,8.08,11.79,10.44,17.88,4.93.45-.4.65-.3.62.3" vector-effect="non-scaling-stroke"/><path class="cls-2" d="M346.73,219.03c.75-1.89-2.87-.86-3.72-1.13-1.04-.16-.05,22.28-.38,22.63-.19.93,3.33.25,3.7.44,2.33-5.38-2.85-16.73,4.04-19.78,3.33-1.09,5.47,1.53,5.49,4.61.56,4.62-1.06,11.04.62,15.15,0,0,3.05.05,3.05.05,1.45-4.36-.02-10.55.59-14.7.16-6.39,8.83-7.73,8.92-.63.06,4.86.07,9.73.04,14.62-.17,1.23,3.14.49,3.72.72,1.35-3.5.03-8.95.51-13.63.69-10.36-8.02-12.83-14.81-7-3.44-3.87-7.16-4.2-11.17-1.01-.47.38-.67.27-.6-.34" vector-effect="non-scaling-stroke"/><path class="cls-2" d="M383.49,230.82c-.03-.3.21-.56.51-.56,0,0,16.98.01,16.98.01,1.81-5.84-2.91-12.76-9.61-12.95-15.64-1.13-16.5,24.52-.67,24.36,4.29.65,15.1-6.11,7.28-8.39-4.05,6.91-13.56,6.18-14.49-2.47" vector-effect="non-scaling-stroke"/><path class="cls-2" d="M468.48,229.49c-.07-16.12-24.59-16.12-24.66,0,.07,16.12,24.59,16.12,24.66,0" vector-effect="non-scaling-stroke"/><path class="cls-2" d="M478.51,219.08c-.04-.37.17-1.3-.48-1.22,0,0-2.99.09-2.99.09-.35,0-.53.19-.53.54v21.99c-.15,1.02,3.08.29,3.52.49.33,0,.49-.16.49-.49.96-5.58-3.48-22.05,6.65-18.67.44.37,1.86-3.16,2.07-3.29-2.29-2.3-5.81-1.28-8.01.86-.46.43-.7.33-.72-.3" vector-effect="non-scaling-stroke"/><path class="cls-2" d="M218.17,242.04c-.07-15.1-23.01-15.09-23.08,0h0c.07,15.1,23.01,15.09,23.08,0h0" vector-effect="non-scaling-stroke"/><path class="cls-3" d="M203.8,111.3c-.11-.13.19-11.58-.13-11.57-6.87-.22-6.57,12.29.13,11.57" vector-effect="non-scaling-stroke"/><path class="cls-2" d="M320.43,131.55c9.91.24,10.03-17.3.12-17.2-9.91-.24-10.03,17.3-.12,17.2" vector-effect="non-scaling-stroke"/><path class="cls-2" d="M396.51,131.55c4.2,0,7.61-3.82,7.61-8.56h0c.16-11.13-15.32-11.15-15.2-.03h0c0,4.73,3.39,8.58,7.59,8.58" vector-effect="non-scaling-stroke"/><path class="cls-2" d="M424.53,131.55c4.22.02,7.66-3.81,7.68-8.56h0c.2-11.17-15.36-11.24-15.28-.08h0c-.02,4.75,3.38,8.62,7.59,8.64" vector-effect="non-scaling-stroke"/><path class="cls-2" d="M462.05,120.24l12.68.02c.77-7.42-13.43-7.44-12.68-.02" vector-effect="non-scaling-stroke"/><path class="cls-3" d="M213.89,129.18c.06-8.9-15.73-8.73-15.48.16-.06,8.9,15.73,8.73,15.48-.16h0" vector-effect="non-scaling-stroke"/><path class="cls-3" d="M213.89,154.95c.17-9.55-15.65-9.57-15.52-.03-.17,9.55,15.65,9.57,15.52.03" vector-effect="non-scaling-stroke"/><path class="cls-2" d="M340.84,184.83c9.91.2,9.97-17.36.06-17.22-4.22-.01-7.65,3.83-7.67,8.58h0c-.02,4.76,3.39,8.62,7.61,8.64" vector-effect="non-scaling-stroke"/><path class="cls-3" d="M169.83,224.5c0-6.3-5.11-11.41-11.41-11.41-14.92.07-14.92,22.76,0,22.82,6.3,0,11.41-5.11,11.41-11.41" vector-effect="non-scaling-stroke"/><path class="cls-2" d="M285.49,184.81c9.9.24,10.01-17.3.12-17.2-9.89-.24-10.01,17.3-.12,17.2" vector-effect="non-scaling-stroke"/><path class="cls-2" d="M419.29,184.8c4.49.08,8.2-3.7,8.28-8.45h0c.08-4.74-3.49-8.65-7.98-8.73-10.54-.35-10.85,17.16-.3,17.18" vector-effect="non-scaling-stroke"/><path class="cls-2" d="M486.66,173.69c.17-.15,13.15.27,13.1-.22.2-7.73-14.16-7.25-13.1.22" vector-effect="non-scaling-stroke"/><path class="cls-3" d="M105.9,224.5c0-6.3-5.11-11.41-11.41-11.41-14.92.07-14.92,22.76,0,22.82,6.3,0,11.41-5.11,11.41-11.41" vector-effect="non-scaling-stroke"/><path class="cls-3" d="M203.85,219.29c-.13-.16.29-11.78-.14-11.74-7.09-.19-6.71,12.64.14,11.74h0" vector-effect="non-scaling-stroke"/><path class="cls-2" d="M323.73,238.09c9.89.21,9.96-17.34.06-17.2-9.89-.21-9.95,17.34-.06,17.2" vector-effect="non-scaling-stroke"/><path class="cls-2" d="M384.05,226.86c.17-.16,13.09.27,13.05-.21h0c.16-7.6-14.04-7.15-13.05.21" vector-effect="non-scaling-stroke"/><path class="cls-2" d="M456.06,238.07c10.54.28,10.73-17.24.18-17.18-10.54-.28-10.73,17.24-.18,17.18" vector-effect="non-scaling-stroke"/><path class="cls-2" d="M398.56,306.89l1.77,10.56c.04,1.02,2.38.42,2.95.58,1.23-.04-3.43-20.47-3.18-21.06-.13-.79-.37-.82-.7-.09-8.98,18.53-4.39,18.67-13.27.03-.34-.76-.59-.73-.75.09l-4.01,20.76c-.41.41,3.61.38,3.35.04,0,0,1.69-10.24,1.69-10.24.19-1.13.51-1.17.96-.12.36,0,4.7,12.58,5.48,11.09,0,0,5.22-11.7,5.22-11.7.23-.53.4-.51.49.06" vector-effect="non-scaling-stroke"/><path class="cls-2" d="M225.53,311.26c-1.33,2.83-3.42,4.22-6.25,4.17-14.34-1.69-3.55-23.28,6.33-12.27.45.77,2.2-1.26,2.64-1.38-1.29-3.71-6.5-5.02-10.45-4.37-13.56,2.19-10.39,23.61,3.27,20.91,4.71-.59,9.48-6.1,7.45-11.02-.29.21-8.38-.52-7.96.46.15.42-.43,2.75.46,2.68.51.29,5.41-.76,4.51.82" vector-effect="non-scaling-stroke"/><path class="cls-2" d="M249.26,315.41c-2.97-.04-2.15-3.5-3.47-3.71,0,0-2.23.51-2.23.51-1.3,2.31,2.01,5.52,4.06,5.99,11.29,1.91,11.36-11.73.82-13.72-3.81-2.8,2.69-6.39,4.4-2.59.43.96,2.11-.85,2.59-.99-.94-5.3-11.12-4.96-11.4,1.4-.53,4.19,4.11,5.56,6.94,6.87,3.59,1.66,2.27,6.46-1.71,6.24" vector-effect="non-scaling-stroke"/><path class="cls-2" d="M365.08,303.14c2.6-3.36,7.59-4,10.92-.92.35.33.53.25.53-.24-.14-.9.48-3.38-.79-3.75-20.78-7.41-20,27.43.58,18.85.25.3.51-4.51-.16-3.76-7.01,6.59-16.5-3.26-11.08-10.18" vector-effect="non-scaling-stroke"/><path class="cls-2" d="M182.59,309.28c3.02-1.21,4.32-3.39,3.89-6.54-.49-5.34-7.99-6.35-11.42-4.52,0,0,.01,19.3.01,19.3,0,.28.22.5.5.5.47-.18,2.86.44,2.74-.53.29-.25-.93-10.2.84-7.07.68.58,4.87,7.93,6,7.58.31-.2,3.9.67,2.94-.5.07-.27-6.58-8.13-5.5-8.22" vector-effect="non-scaling-stroke"/><path class="cls-2" d="M196.71,305.72c-.82.16-.26-4.4-.44-4.72.04-1.18,8.19.38,8.23-.8-.15-.32.37-2.67-.4-2.58-.21.24-11.42-.51-11.03.39,0,0,0,19.6,0,19.6-.42.88,10.8.2,10.98.41.75.08.29-2.26.43-2.61,0-.23-.18-.42-.41-.41-.21-.17-8.16.49-7.74-.35.17-.31-.48-6.11.36-5.87.22-.18,7.95.41,7.54-.44-.16-.35.31-2.68-.45-2.61,0,0-7.07-.01-7.07-.01" vector-effect="non-scaling-stroke"/><path class="cls-2" d="M237.79,297.91c.1-.64-2.67-.18-2.93-.31-.17,0-.31.14-.31.31.29.31-.57,20.19.31,20.13.27-.18,3.02.36,2.93-.31,0,0,0-19.82,0-19.82" vector-effect="non-scaling-stroke"/><path class="cls-2" d="M266.99,300.9c.11-.99,4.63.26,4.7-.76-.16-.27.24-2.6-.42-2.51,0,0-11.86-.02-11.86-.02-.67-.09-.24,2.36-.37,2.65.1,1.02,4.6-.35,4.72.65,0,0,0,16.79,0,16.79,0,.19.16.35.35.34.3-.21,2.98.34,2.89-.38,0,0-.01-16.76-.01-16.76" vector-effect="non-scaling-stroke"/><path class="cls-2" d="M279.61,315.03c-.7.33-.25-5.74-.4-5.91-.35-.73,7.43-.21,7.59-.37.7.07.14-2.38.26-2.68-.03-.99-7.89.3-7.9-.71-.1-7-.73-4.25,7.85-4.76.67.07.21-2.32.34-2.63,0-.19-.15-.34-.34-.34l-10.64-.02c-.19,0-.34.15-.34.34,0,0,0,19.73,0,19.73,0,.19.15.34.34.34.39-.25,10.95.47,10.93-.32-.14-.35.39-2.72-.29-2.7,0,0-7.39.03-7.4.03" vector-effect="non-scaling-stroke"/><path class="cls-2" d="M300.6,309.23c6.28-2.29,4.86-11.29-2.01-11.55-1.66.3-4.77-.94-5.64.54,0,0,0,19.22,0,19.22-.14,1,2.44.44,2.91.62.27.01.41-.12.41-.39.32-.23-.81-10.03.91-7.18.81.73,4.66,7.85,6.05,7.52.37-.19,3.79.66,2.76-.6.04-.36-6.58-7.98-5.39-8.18" vector-effect="non-scaling-stroke"/><path class="cls-2" d="M314.7,305.72c-.82.16-.26-4.4-.44-4.72.04-1.18,8.15.38,8.19-.8-.15-.32.41-2.67-.37-2.58-.21.24-11.47-.51-11.07.39,0,0,0,19.6,0,19.6-.43.88,10.82.21,11,.42.75.08.29-2.28.43-2.63,0-.23-.18-.42-.41-.41-.21-.17-8.12.5-7.71-.34.17-.31-.48-6.12.36-5.88,0,0,7.09,0,7.09,0,.76.07.27-2.28.4-2.63.42-.83-7.29-.23-7.47-.41" vector-effect="non-scaling-stroke"/><path class="cls-2" d="M328.01,297.89c.28.3-.51,20.2.34,20.14,7,.81,15.49-1.33,15.48-9.73.63-9.02-8.53-12.22-15.82-10.41" vector-effect="non-scaling-stroke"/><path class="cls-2" d="M413.65,309.72c12.79.3,8.27-16.36-3.94-11.5.33.83-.68,19.47.43,19.8.33-.18,2.88.39,2.77-.36.3-.55-.73-8.45.74-7.94" vector-effect="non-scaling-stroke"/><path class="cls-2" d="M178.21,300.97l.12,5.62c0,.55.94.29,1.25.33,6.78-.48,3.59-8.23-1.37-5.95" vector-effect="non-scaling-stroke"/><path class="cls-2" d="M296.28,301c.19.36-.48,6.22.46,5.99,2.41.15,4.78-1.25,4.74-3.06.23-2.04-2.16-3.53-4.72-3.4-.26,0-.48.21-.48.47" vector-effect="non-scaling-stroke"/><path class="cls-2" d="M331.15,301.02l.14,13.62c0,.22.19.4.41.39,12.78,1.23,10.97-17.25-.55-14.01" vector-effect="non-scaling-stroke"/><path class="cls-2" d="M412.89,300.9l.02,5.58c-.02.59,1.11.29,1.43.36,6.55-.38,3.46-8.21-1.45-5.94" vector-effect="non-scaling-stroke"/><path class="cls-6" d="M500.01,311.85c.29-1.85-.57-4.64.5-5.87.36-.53,90.06.91,89.89-.48,0,0,0-239.74,0-239.74.23-1.03-583.8.05-584.05-.33-1.03.18-.59,240.41.06,240.56,0,0,89.85,0,89.85,0l-.03,5.87c-.3-.39-96.28.68-96.17-.36C.06,311.49,0,.53,0,.53c-.39-1.21,595.87.09,596.04-.37.46.39.82,311.52-.36,311.68,0,0-95.67.01-95.67.01ZM159.51,40.87c.64-.03,2.2,5.64,2.83,5.62.24-.21,4.11.54,3.68-.42-15.31-31.73-6.68-30.83-22.52-.02-.44.95,3.4.25,3.67.44.23.39,2.57-5.43,2.65-5.46.05-.12.17-.2.3-.2l9.39.04ZM377.95,41.03c.05-.12.17-.2.3-.2l9.36.05c.4-.27,2.36,5.3,2.54,5.41,0,.4,3.46.16,3.67.25.23,0,.41-.25.31-.46,0,0-10.69-23.93-10.69-23.93-1.02-1.37-11.29,23.9-11.83,23.9-.44.95,3.39.26,3.66.45.22.4,2.61-5.45,2.68-5.47ZM343.97,26.45c2.15-.89,3.85-.36,5.1,1.61.19.29.43.34.72.15,8.11-3.73-10.4-10.43-11.02.44-.53,7.81,12.32,5.59,10.13,12.37-1.25,3.87-7.01,3.21-7.39-1,.01-1.42-2.52-.15-3.21-.2-1.87,2.86,2.99,7.11,5.79,7.15,12.02.5,11.12-13.82.36-15.66-2.22-.64-2.68-3.94-.48-4.86ZM252.75,34.83c-.07-16.09-24.53-16.08-24.6,0,0,6.79,5.51,12.3,12.3,12.3,6.79,0,12.3-5.51,12.3-12.3ZM444.47,26.46c2.12-.9,3.79-.39,5.02,1.54.19.3.44.36.75.17.35-.41,3.01-1.24,2.25-2.1-1.94-2.97-4.72-4.03-8.35-3.18-3.87.91-6.39,5.24-4.11,8.91,2.24,3.6,8.07,3.22,9.37,6.8,1.84,5.09-6.75,7.45-7.5,1.1,0-1.09-2.88.32-3.36.24-.97,3.52,3.16,6.9,6.18,7.01,9.47.95,12.2-11.21,3.07-14.47-2.75-.45-7.22-3.77-3.32-6.02ZM175.56,37.02c14.31.29,10.08-18.37-4.52-13.48.25.28-.5,23,.25,22.96.2-.13,3.61.3,3.47-.23.34-.52-.83-9.94.8-9.25ZM194.37,37c13.87.38,10.74-18.27-4.58-13.47.25.28-.49,23.02.26,22.98.21-.18,3.63.31,3.49-.26.35-.62-.9-9.9.83-9.25ZM212.51,37.33c.63-1.39,6.51,9.71,7.29,9.19.03-.13,4.51.26,4.07-.28,0,0-6.7-9.12-6.7-9.12-.24-.32-.17-.55.2-.7,3.16-1.21,4.65-3.54,4.48-6.99-.36-6.95-7.74-6.51-12.53-6.38-.43.01-.64.23-.64.66v22.42c-.15.76,2.87.22,3.18.38,1.52-2.08-.33-6.42.65-9.18ZM266.43,38.44c-.79,1.65-6.35-15.3-6.68-15.2,0-.44-3.44-.1-3.66-.2-.23,0-.4.25-.3.46,14.17,31.42,6.45,31.37,20.64.02.1-.21-.08-.47-.31-.46-.27.13-3.64-.23-3.66.22,0,0-6.03,15.16-6.03,15.16ZM285.09,26.88c0-.2.17-.37.37-.37.16-.15,9.47.39,9.03-.38-.17-.28.32-3.21-.42-3.09,0,0-12.27.02-12.27.02-.2,0-.37.17-.37.37.35.37-.73,23.16.32,23.08,0,0,12.36,0,12.36,0,.21,0,.38-.17.37-.38-.17-.37.33-3.16-.41-3.1-.17-.19-9.39.47-8.96-.34.16-.22-.44-7.18.34-6.84,0,0,8.26-.04,8.26-.04.74.09.2-2.73.34-3.05,0-1.11-8.97.37-8.97-.74v-5.13ZM300.95,23.32c.29.32-.68,23.22.18,23.18,8.01,1,17.9-1.41,17.94-10.97.76-10.48-9.49-14.05-18.12-12.21ZM365.06,26.89c.12-1.08,5.35.32,5.47-.76-.15-.33.33-3.18-.4-3.09-.05,0-13.63,0-13.68.01-.64,0-.26,2.78-.39,3.11.19.99,5.22-.34,5.34.71l-.09,19.25c-.11.74,3.08.23,3.39.38.2,0,.37-.17.37-.37,0,0-.01-19.25-.01-19.25ZM400.23,26.5c1.16-.25-.42,20.25.74,20,.33-.23,3.45.44,3.35-.36,0,0-.02-19.24-.02-19.24.12-1.08,5.38.32,5.48-.78-.18-.29.31-3.22-.43-3.1-.54.25-13.96-.49-14.1.4.17.37-.47,3.12.29,3.08,0,0,4.69,0,4.69,0ZM428.47,37.8c0,7.58-10.03,7.62-10.05.43-.39-4.97.72-10.8-.39-15.21-.05,0-2.95,0-3.01.01-.77,4.68,0,10.25-.31,15.54.13,9.15,11.82,11.3,16.22,4.42,2.5-4.95.7-14.27,1.24-19.41-.03-1-2.64-.37-3.19-.53-1.35,4.07-.07,9.77-.51,14.75Z"/><path class="cls-5" d="M159.51,40.87l-9.39-.04c-.13,0-.25.08-.3.2-.07.04-2.42,5.84-2.65,5.46-.24-.21-4.13.53-3.67-.44,15.85-30.88,7.22-31.64,22.52.02.41.94-3.41.24-3.68.42-.63.02-2.19-5.65-2.83-5.62ZM151.62,36.93c-.61,1.06,5.84.32,6.08.54.26,0,.45-.28.34-.52-3.88-8.57-2.48-8.51-6.42-.02Z"/><path class="cls-5" d="M377.95,41.03c-.06.03-2.46,5.86-2.68,5.47-.24-.21-4.11.52-3.66-.45.54,0,10.81-25.28,11.83-23.9,0,0,10.69,23.93,10.69,23.93.1.21-.08.47-.31.46-.26-.11-3.65.16-3.67-.25-.19-.12-2.13-5.67-2.54-5.41,0,0-9.36-.05-9.36-.05-.13,0-.25.08-.3.2ZM379.74,36.92c-.64,1.08,5.83.33,6.07.55.26,0,.45-.28.34-.52-3.88-8.56-2.48-8.57-6.41-.03Z"/><path class="cls-5" d="M343.97,26.45c-2.2.92-1.74,4.22.48,4.86,10.77,1.84,11.65,16.17-.36,15.66-2.79-.03-7.66-4.31-5.79-7.15.71.03,3.21-1.21,3.21.2.38,4.21,6.14,4.87,7.39,1,2.19-6.78-10.66-4.56-10.13-12.37.62-10.87,19.13-4.17,11.02-.44-.29.19-.53.14-.72-.15-1.25-1.97-2.95-2.5-5.1-1.61Z"/><path class="cls-5" d="M252.75,34.83c-.07,16.09-24.53,16.08-24.6,0h0c.07-16.09,24.53-16.08,24.6,0ZM240.42,43.65c11.12.21,11.18-17.79.06-17.66-11.12-.21-11.18,17.79-.06,17.66Z"/><path class="cls-5" d="M444.47,26.46c-3.9,2.26.57,5.57,3.32,6.02,9.13,3.26,6.4,15.42-3.07,14.47-3.01-.1-7.15-3.5-6.18-7.01.51.05,3.34-1.31,3.36-.24.75,6.35,9.34,3.99,7.5-1.1-1.3-3.58-7.13-3.2-9.37-6.8-2.28-3.67.24-8,4.11-8.91,3.2-.97,8.5.7,8.16,4.03,0,0-2.06,1.25-2.06,1.25-.31.19-.56.13-.75-.17-1.23-1.93-2.9-2.44-5.02-1.54Z"/><path class="cls-5" d="M174.77,37.71v8.56c.15.51-3.3.12-3.48.23-.14,0-.26-.12-.26-.26,0,0,.01-22.7.01-22.7,14.61-4.88,18.82,13.77,4.52,13.48-.53-.07-.79.16-.79.69ZM174.75,26.81l.04,6.5c-.06.58,1.76.19,2.02.29,7.03-.7,3.55-9.17-2.06-6.79h0Z"/><path class="cls-5" d="M193.53,37.74v8.51c.17.55-3.29.13-3.48.26-.75.05,0-22.72-.26-22.98,0-.29.16-.45.45-.46,15.74-3.02,17.34,14.16,4.13,13.93-.56-.07-.84.18-.84.74ZM193.51,26.89l-.02,6.32c-.06.73,1.71.3,2.07.41,5.24.09,5.26-7.19.02-7.12-.35.12-2.1-.32-2.07.39Z"/><path class="cls-5" d="M212.51,37.33c-.98,2.76.87,7.1-.65,9.18-.29-.19-3.34.39-3.18-.38,0,0,0-22.42,0-22.42,0-.43.21-.65.64-.66,4.79-.13,12.17-.57,12.53,6.38.17,3.45-1.32,5.78-4.48,6.99-.37.15-.44.38-.2.7l6.7,9.12c.45.54-4.03.16-4.07.28-.79.5-6.65-10.57-7.29-9.19ZM212.33,26.89l.04,6.44c-.03.69,1.46.3,1.82.39,7.35-.59,3.7-9.48-1.86-6.83Z"/><path class="cls-5" d="M266.43,38.44l6.03-15.16c0-.44,3.44-.12,3.66-.22.23,0,.41.25.31.46-14.21,31.44-6.48,31.31-20.64-.02-.09-.21.07-.46.3-.46.27.13,3.64-.25,3.66.2.38-.03,5.85,16.79,6.68,15.2Z"/><path class="cls-5" d="M285.09,26.88c.16.27-.41,5.74.36,5.5h8.23c.73-.09.25,2.73.4,3.05.42.79-8.48.23-8.63.41-.78-.36-.17,6.65-.34,6.84-.46.81,8.83.15,8.96.34.73-.09.26,2.78.41,3.1,0,.21-.16.38-.37.38,0,0-12.36,0-12.36,0-1.05.08.03-22.71-.32-23.08,0-.2.17-.37.37-.37l12.27-.02c.72-.12.27,2.78.42,3.08.04,1.13-9.42-.36-9.4.76Z"/><path class="cls-5" d="M300.95,23.32c0-.17.13-.3.3-.3,8.83-.99,18.61,2.09,17.82,12.51-.04,9.56-9.92,11.97-17.94,10.97-.85.05.1-22.87-.18-23.18ZM304.56,27.03v15.54c0,.3.24.54.54.54,5.14.66,10.32-2.72,10.26-8.06h0c.26-4.64-3.53-8.57-8.33-8.56-.48.13-2.52-.39-2.47.54Z"/><path class="cls-5" d="M365.06,26.89v19.25c.12.75-3.07.21-3.38.36-1.17.23.52-20.22-.65-19.99-.07-.02-4.57,0-4.65-.01-.68,0-.13-2.78-.25-3.13,0-.24.39-.35.37-.31.72.22,14.02-.5,14,.36-.15.34.41,3.17-.34,3.09-.29.16-5.29-.37-5.1.39Z"/><path class="cls-5" d="M400.23,26.5h-4.68c-.76.08-.16-2.75-.3-3.08.01-.86,13.67-.17,14.1-.4.73-.11.28,2.79.43,3.1-.1,1.1-5.36-.3-5.48.78,0,0,.02,19.24.02,19.24.11.77-3.03.2-3.35.36-1.16.26.42-20.25-.74-20Z"/><path class="cls-5" d="M418.42,38.23c.02,7.19,10.05,7.15,10.05-.43.48-4.94-.94-10.81.56-14.75.52.18,3.21-.5,3.14.58-.56,5.14,1.32,14.77-1.35,19.53-4.69,6.84-16.19,4.35-16.11-4.86.37-5.05-.58-10.83.37-15.27.4.18,3.42-.43,3.35.39-.02,4.88-.02,9.82-.01,14.81Z"/><path class="cls-6" d="M249.02,34.85c.12,11.46-17.34,11.4-17.14-.06-.12-11.46,17.34-11.4,17.14.06Z"/><path class="cls-6" d="M174.75,26.81c0-.17.13-.3.3-.3,7.5-1.11,7.54,8.12.04,7.1-.64.32-.19-6.66-.34-6.8Z"/><path class="cls-6" d="M193.51,26.89c-.03-.7,1.72-.28,2.07-.39,5.24-.06,5.22,7.21-.02,7.12-.36-.12-2.12.32-2.07-.4,0,0,.02-6.33.02-6.33Z"/><path class="cls-6" d="M212.33,26.89c5.57-2.65,9.19,6.26,1.86,6.83-.35-.1-1.84.31-1.82-.38,0,0-.04-6.45-.04-6.45Z"/><path class="cls-6" d="M304.56,27.03c0-.3.24-.54.54-.54,5.14-.66,10.32,2.72,10.26,8.06h0c.26,4.64-3.53,8.57-8.33,8.56-.55-.07-2.69.27-2.47-.54,0-.3,0-15.54,0-15.54Z"/><path class="cls-6" d="M151.62,36.93c3.95-8.52,2.54-8.52,6.42.02.61,1.07-5.84.28-6.08.5-.26,0-.45-.28-.34-.52Z"/><path class="cls-6" d="M379.74,36.92c3.94-8.57,2.54-8.5,6.41.03.61,1.07-5.83.28-6.07.5-.27.01-.46-.29-.34-.53Z"/><path class="cls-5" d="M500.51,305.98c-1.74-7.2.52-16.56-.82-23.88,0,0-402.93-.01-402.93-.01-.41,0-.61.2-.6.6,0,0,.1,23.29.1,23.29-.3-.51-90.53.9-90.29-.43,0,0,0-239.74,0-239.74-.4-1.22,583.91.08,584.09-.38.86.22.65,240.38-.12,240.53,0,0-89.43.02-89.43.02ZM206.82,111.25v-14.99c-5.72-2.11-11.53,3.02-11.67,8.39-1.38,13.45,20.55,15.37,21.87,2.06.5-4.71-1.58-9.33-5.97-10.72-4.25,4.82,6.18,4.58,1.84,12.63-.35,1.24-4.87,4.66-6.07,2.63ZM285.5,101.65c-.02-1.05,8.92.37,8.9-.68h0c-.14-.31.41-3.81-.31-3.7-.04,0-21.5,0-21.54,0-.65-.06-.15,3.45-.28,3.74.05.91,9.63-.32,9.02.66,0,.7,0,32.4,0,32.46-.03.67,3.6.18,3.91.34.17-.02.31-.17.31-.35h0v-32.48ZM299.08,112.74c0-2.28-.39-1.28-3.66-1.46-.31,0-.46.15-.46.46l-.02,22.38c-.18.74,3.52.18,3.79.35.87-3.46.07-8.25.29-12.87-.12-4.71,1.95-8.19,7.09-6.49-.07-.21,2.1-3.42,1.46-3.5-3.13-1.5-5.77-1.06-7.93,1.31-.32.34-.51.28-.56-.18ZM327.82,132.26c.07.61-.43,2.32.7,2.2.49-.25,3.59.57,3.43-.56,0,0,0-21.8,0-21.8.16-1.41-2.76-.61-3.46-.82-1.66-.31.34,3.65-1.22,2.46-8.77-8.34-21.65,1.83-18.13,12.71,1.77,8.31,12.35,11.75,18.12,5.58.39-.42.57-.34.56.23ZM343.43,113.18c-.03-.58.42-2.02-.63-1.91-.66.24-3.49-.54-3.34.8,0,0,0,22,0,22-.16.84,3.29.22,3.63.4.23,0,.41-.18.41-.41h0c.9-6.21-2.68-15.36,3.51-19.24,10.73-2.94,5.94,13.98,6.92,19.26-.17.8,3.36.22,3.67.4.31,0,.46-.15.46-.46-1.19-7.05,3.47-18.64-4.55-22.61-3.65-1.37-6.86-.71-9.61,1.98-.34.33-.5.26-.47-.21ZM369.21,116.16c.99-2.37,4.43-2.31,5.41.03.19.48.52.59.97.34,8.62-2.98-8.15-10.73-10.21-.85-2.07,9.27,12.44,6.88,9.94,13.51-1.5,3.98-6.52,2.27-7.83-.99-.3-1.09-2.77.72-3.33.75-.77,2.9,3.43,5.59,5.97,5.99,4.65.85,9.05-1.38,9.68-6.36.76-6.07-5.22-7.52-9.54-9.62-1.04-.5-1.5-1.73-1.06-2.8ZM389.05,113.41c.08-.65.54-2.15-.6-2.14-.62.26-3.56-.55-3.4.76.46.49-.9,35.35.49,35.2.54-.3,3.86.6,3.7-.61,0,0-.01-14.17-.01-14.17,0-.54.2-.63.6-.26,24.03,14.88,24.93-32.91-.78-18.78ZM432,132.25c.06.56-.54,2.33.56,2.22.65-.24,3.66.62,3.5-.75,0,0,0-21.7,0-21.7.16-1.34-2.87-.52-3.52-.73-1.5-.16.37,3.6-1.13,2.46-5.93-5.69-15.75-3.04-18,4.95-3.42,13.88,8.88,20.36,18.59,13.55ZM447.54,112.71c-.02-.4.27-1.43-.42-1.44-.04,0-3.11.03-3.15.03-1.24-.11-.15,22.35-.5,22.89-.19.62,3.6.13,3.8.28.19,0,.28-.09.28-.28.99-5.34-3.46-22.06,6.41-19,.89.59,1.76-2.58,2.16-2.93.21-.4.11-.69-.31-.86-4.98-2.72-8.26,3.09-8.27,1.31ZM461.37,124.28c-.32-1.61,18.33.63,17.95-1.06-.11-19.09-25.92-15.22-21.73,3.56,1.75,10.31,18.43,11.22,21.32,1.54-.44.03-3.19-2.4-3.42-1.2-3.54,7.14-13.82,4.78-14.12-2.84ZM489.41,112.56c.07-.54.19-1.4-.63-1.31-.39.25-3.69-.42-3.51.55,0,0-.02,22.16-.02,22.16-.17,1.01,3.33.3,3.76.5.32,0,.48-.16.48-.48-.03-4.49,0-8.95.05-13.4.1-7.47,10.32-8.86,10.3-.52.4,4.54-.81,10.23.43,14.4,0,0,3.27.02,3.27.02,1.35-4.41.1-10.57.42-15.5-.14-7.78-7.79-10.79-13.82-6.02-.55.43-.8.3-.73-.4ZM526.27,115.35c1.07-.11,3.22,3.18,3.26,1.87-.19-.6.47-4.47-.47-4.69-9.15-5.36-20.58,1.77-18.99,12.18,1.16,9.47,12.03,13.22,19.47,8.2,1.69-10.12-2.4.66-9.25-1.68-10.29-2.15-7.15-20.97,5.98-15.88ZM545.44,127.14c-.1.22-.44.23-.54,0-.26-.16-7.55-15.97-8.02-15.85-.19.18-4.83-.47-4.31.43,0,.26,10.59,20.36,10.35,20.64,0,0-7.11,14.41-7.11,14.41-.1.19.05.44.27.43.19-.17,4.28.31,4.26-.13-.24-.44,17.7-35.67,16.41-35.81-.23.14-4.23-.23-4.23.2,0,0-7.08,15.67-7.08,15.67ZM214.46,135.31c8.4-8.86-3.88-20.85-13.62-15.52-6.21,2.84-7.65,10.66-3.03,15.6.41.44.32.65-.29.62-.69-.02-2.05-.32-1.95.8.19.67-.52,2.92.79,2.79,0,0,31.34.02,31.34.02.75.16.18-3.1.35-3.39,0-.15-.12-.27-.27-.27-.13-.35-15.27.82-13.32-.65ZM217.28,154.94c-.07-14.58-22.24-14.58-22.3,0,.06,14.58,22.24,14.58,22.3,0ZM347.59,167.06c-5.23-5.29-14.46-3.49-17.37,3.48-4.99,13.23,7.44,22.79,18,14.95.13.58-.24,2.4.85,2.24.63-.25,3.39.54,3.23-.78,0,0,0-39.38,0-39.38.16-.88-3.28-.26-3.64-.46-1.38-.39.86,21.8-1.07,19.95ZM377.66,162.38c4.77-9.99,16.56-10.77,24.34-3.68-.02-.21.29-5.32-.13-5.31-14.73-10.81-35.35,5-29.19,21.95,3.8,12.29,18.46,16.74,29.12,9.73.47-1.05.32-2.72.23-5.24-12.54,12.11-32.05-2.31-24.37-17.45ZM536.34,164.11c0,.24-.19.43-.43.42-.38.12-2.11-.39-2.09.37,0,0,.01,3,0,3,0,.23.2.42.43.41.39.1,2.06-.39,2.03.37,0,0,.01,18.57.01,18.57,0,.23.19.42.42.42.38-.26,3.74.44,3.66-.44,0,0,.13-18.49.13-18.49.12-1.09,3.55.1,3.72-.95-.14-.38.66-3.28-.21-3.21-.37-.14-3.68.29-3.57-.5-.18-.17.54-8.3-.34-7.85-.38.17-3.98-.47-3.86.4,0,0,.09,7.48.09,7.48ZM147.01,200.05c-.49-.55.94-36.44-.5-36.35,0,0-16.55,0-16.55,0-1.79-.25-.06,88.4-.65,88.99.23,1.21,16.34.01,17.01.42.44,0,.66-.22.66-.65.21-.39-.52-4.58.69-3.67,24.41,14.78,48.22-10.9,38.92-35.37-6.84-17.28-24.88-20.92-39.58-13.37ZM292.52,167.18c-3.19-3.1-6.93-3.94-11.22-2.53-16.48,6.15-3.01,33.38,11.14,20.58,1.43-1.12-.33,2.66,1.14,2.49.64-.23,3.59.63,3.43-.71,0,0,0-21.78,0-21.78,0-.4-.33-.73-.73-.73-.59.25-3.54-.58-3.33.69-.11.33.54,2.97-.43,1.99ZM308.44,166.23c-.03-.41.51-1.84-.35-1.73-.47.26-3.77-.52-3.59.59,0,0,.03,22.25.03,22.25-.16.77,3.44.23,3.74.4,1.64-5.92-3.52-21.79,7.74-19.74,6.3,2.93,1.02,15.14,3.45,19.71,0,0,3.15.04,3.15.04,1.33-4.42,0-10.66.48-15.54.06-8.21-8.68-10.61-14.08-5.69-.45.41-.64.32-.57-.29ZM431.77,176.22c-.07-16.12-24.59-16.12-24.66,0,0,6.81,5.52,12.33,12.33,12.33,6.81,0,12.33-5.52,12.33-12.33ZM441.74,166.51c-.06-.42.41-2.05-.42-2.01-.43.25-3.78-.51-3.6.54,0,0-.01,22.27-.01,22.27-.18.85,3.33.24,3.66.42,1.22-3.96-.02-9.6.51-13.8.17-7.55,10.36-8.88,10.39-.85.49,4.83-.9,10.66.53,14.66.43-.25,3.7.5,3.51-.56-1.24-7.48,3.66-19.32-5.1-22.73-3.77-1.59-6.87.88-9.47,2.06ZM467.9,168.76c1.54-1.99,4-1.04,5.18.82.28.44.62.49,1.02.16,6.13-2.23-1.96-6.76-5.37-5.6-5.47.99-7.45,8.54-2.3,11.33,3.95,1.84,11.92,5.13,4.74,9.13-2.45.67-4.59-1.07-5.44-3.26-.09-.23-.35-.35-.58-.26-.03.01-2.75,1.21-2.78,1.22-.24,3.56,4.38,6.17,7.66,6.08,4.03.05,6.6-1.65,7.71-5.09,2.19-6.8-4.12-8.84-8.88-10.86-1.43-.59-1.91-2.46-.96-3.67ZM487.02,177l16.35.02c2.6-6.36-3.88-14.01-11.27-12.95-22.97,5.06-2.87,38.88,11.72,17.92.38-.29-2.79-1.73-2.85-1.88-.23-.13-.41-.08-.55.13-4.67,9.25-17.05,1.91-13.4-3.24ZM514.06,166.27c.03-.5.66-1.85-.34-1.76-.41.23-3.8-.51-3.67.49,0,0-.01,22.23-.01,22.23-.18.99,3.29.28,3.71.48,2.26-5.31-3.65-22.11,7.95-19.69,6.19,3.33,1.07,14.59,3.38,19.7.31-.24,3.77.45,3.57-.44-.01-4.78,0-9.74.05-14.88.08-8.23-8.59-11.05-14.09-5.83-.22.22-.61,0-.55-.3ZM62.17,176.73c-.07-15.1-23.01-15.09-23.08,0h0c.07,15.1,23.01,15.09,23.08,0h0ZM196.57,173.58c-.44-.01-1.08-.02-1.03.6.2.4-.42,3.17.5,3.03,0,0,20.15-.03,20.15-.03.73.15.18-3.11.34-3.39-3.36-.85-7.91-.03-11.99-.36-4.87-.27-6.49-1.62-5.58-6.36,0,0-2.6-1.37-2.6-1.37-2.41,1.61-1.24,5.34.54,7.11.45.49.34.75-.33.77ZM208.77,186.5c6.9.05,6.57,8.97.56,9.12-4.88.56-10.27-.69-13.77.58,0,0,0,2.63,0,2.63,3.77,1.52,9.58.1,13.73.54,10.45-.08,10.32-16.31.61-16.57-4.13.31-10.09-.97-14.34.4,0,0,0,2.8,0,2.8,3.57,1.34,8.86.02,13.22.5ZM59.53,196.37c0-.18-.14-.32-.32-.32-.04,0-17.1,0-17.14,0-.16.02-.28.16-.28.32h0c.31.37-.6,56.8.32,56.76h17.1c.18,0,.32-.14.32-.32h0v-56.44ZM105.91,249.19c.21.43-.55,4.17.63,3.92,0,0,16.77,0,16.77,0,.22,0,.39-.17.39-.38-.44-.46.84-56.76-.42-56.68,0,0-16.93,0-16.93,0-1.25-.02.52,5.26-1.1,4.36-20.66-13.87-46.25,7.61-40.29,30.68,4.66,20.33,24.22,26.46,40.95,18.1ZM494.98,225.72l.02-25.12c.16-.55-3.68-.14-3.85-.27-.13,0-.23.11-.23.24.49.55-.97,40.49.54,40.38.56-.23,3.62.6,3.51-.55,0,0,.02-8.1.02-8.1-.48-6.04,9.14,8.97,10.25,8.64,1.1.07,3.07.22,5.05-.14-3.25-4.52-9.04-8.69-11.09-13.38,0,0,8.88-8.86,8.88-8.86,1.43-1.2-3.65-.47-3.91-.67-1.77-.72-7.94,8.6-9.19,7.83ZM206.82,219.23v-14.95c-3.64-2.03-9.06,1.4-10.47,4.17-7.52,13.45,16.16,22.27,20.35,7.91,1.38-5.32-.37-9.5-5.24-12.54-.92.28-1.31,1.77-1.86,2.95,7.72,3.89,3.37,14.83-2.78,12.46ZM280.49,223.07c0-.22.17-.39.39-.39.29-.21,12.22.49,11.93-.38h0c-.15-.35.41-3.72-.38-3.62-.2-.2-12.37.45-11.97-.4h0c.41-14.56-2.79-9.61,12.32-10.46.78.11.29-3.32.46-3.65,0-.22-.17-.4-.39-.4,0,0-16.21-.02-16.21-.02-1.12-.08.04,36.41-.34,36.8,0,.21.18.39.39.39.35-.17,3.84.43,3.73-.37,0,0,.07-17.5.07-17.5ZM430.11,232.74c-.97,1.44-6.7-17.03-7.56-16.31-.74.18-6.4,17.4-7.41,16.35,0,0-6.34-14.65-6.34-14.65.01-.4-4.05-.12-4.24-.22-1.24.15,10.89,23.8,10.64,24.21.1.23.46.23.55-.01,0,0,6.58-15.94,6.58-15.94.72-1.48,6.8,16.05,7.11,15.96.97,1.26,11.11-23.81,11.62-23.81.46-.91-4.03-.22-4.25-.41-.55-.11-6.41,14.64-6.7,14.83ZM302.26,219.08c-.03-.38.18-1.3-.48-1.22,0,0-2.99.09-2.99.09-1.4.43-.12,21.55-.53,22.52-.16,1.01,2.9.31,3.34.5.48,0,.72-.24.71-.72.75-5.07-3.21-21.22,6.2-18.62,1.11.65,1.86-2.35,2.36-2.85.16-.3.03-.68-.28-.81-4.52-2.79-8.09,2.95-8.33,1.11ZM331.12,238.97c-.08.74-.19,2.03.9,2.01.64-.22,3.41.59,3.26-.74,0,0,0-21.41,0-21.41.16-1.51-2.69-.71-3.47-.9-1.2-.1-.58,1.62-.62,2.27-9.49-7.18-22.26.14-18.57,13.54,2.3,8.08,11.79,10.44,17.88,4.93.45-.4.65-.3.62.3ZM346.73,219.03c.75-1.89-2.87-.86-3.72-1.13-1.04-.16-.05,22.28-.38,22.63-.19.93,3.33.25,3.7.44,2.33-5.38-2.85-16.73,4.04-19.78,3.33-1.09,5.47,1.53,5.49,4.61.56,4.62-1.06,11.04.62,15.15,0,0,3.05.05,3.05.05,1.45-4.36-.02-10.55.59-14.7.16-6.39,8.83-7.73,8.92-.63.06,4.86.07,9.73.04,14.62-.17,1.23,3.14.49,3.72.72,1.35-3.5.03-8.95.51-13.63.69-10.36-8.02-12.83-14.81-7-3.44-3.87-7.16-4.2-11.17-1.01-.47.38-.67.27-.6-.34ZM383.49,230.82c-.03-.3.21-.56.51-.56,0,0,16.98.01,16.98.01,1.81-5.84-2.91-12.76-9.61-12.95-15.64-1.13-16.5,24.52-.67,24.36,4.29.65,15.1-6.11,7.28-8.39-4.05,6.91-13.56,6.18-14.49-2.47ZM468.48,229.49c-.07-16.12-24.59-16.12-24.66,0,.07,16.12,24.59,16.12,24.66,0ZM478.51,219.08c-.04-.37.17-1.3-.48-1.22,0,0-2.99.09-2.99.09-.35,0-.53.19-.53.54v21.99c-.15,1.02,3.08.29,3.52.49.33,0,.49-.16.49-.49.96-5.58-3.48-22.05,6.65-18.67.44.37,1.86-3.16,2.07-3.29-2.29-2.3-5.81-1.28-8.01.86-.46.43-.7.33-.72-.3ZM218.17,242.04c-.07-15.1-23.01-15.09-23.08,0h0c.07,15.1,23.01,15.09,23.08,0h0Z"/><path class="cls-6" d="M207.59,111.9c7.15-1,8.58-9.48,2.09-12.97.04-.58.68-2.55,1.7-3.02,4.25,2.29,6.13,5.89,5.64,10.8-1.32,13.31-23.25,11.39-21.87-2.06.59-5.8,4.27-8.8,11.04-8.99,1.93-.44-.77,17.05,1.4,16.24ZM203.8,111.3c-.11-.13.19-11.58-.13-11.57-6.87-.22-6.57,12.29.13,11.57Z"/><path class="cls-4" d="M285.5,101.65c-.31.35.62,32.92-.35,32.83-.32-.28-3.98.41-3.87-.39,0,0,0-32.46,0-32.47-.05-.95-9.18.37-9.02-.65.12-.48-.32-4.12.34-3.7.78.33,21.9-.64,21.84.35h0c-.15.31.31,3.81-.39,3.7-.15.17-8.97-.43-8.55.33Z"/><path class="cls-5" d="M203.8,111.3c-6.88.71-6.9-12.15-.02-11.46,0,0,.02,11.46.02,11.46Z"/><path class="cls-4" d="M299.64,112.92c1.92-2.28,5.76-3.15,8.06-.95,0,0-1.59,3.14-1.59,3.14-5.15-1.7-7.2,1.78-7.09,6.49-.22,4.62.58,9.41-.29,12.87-.27-.24-3.97.42-3.79-.35,0,0,.02-22.38.02-22.38,0-.31.15-.46.46-.46,2.72.21,3.18-.57,3.62.45.02.42-.12,1.94.6,1.19Z"/><path class="cls-4" d="M327.26,132.03c-15.64,13.47-27.97-18.03-8.68-21.19,4.52-1.5,9.62,4.36,9.31,2.6.04-.61-.55-2.27.6-2.16.7.24,3.62-.61,3.46.82,0,0,0,21.8,0,21.8,0,.39-.19.58-.57.57-.66-.26-3.76.62-3.6-.75-.08-.36.4-2.73-.52-1.69ZM320.43,131.55c9.91.24,10.03-17.3.12-17.2-9.91-.24-10.03,17.3-.12,17.2Z"/><path class="cls-4" d="M343.9,113.39c4.91-5.49,14.99-1.93,14.17,5.77-.45,5.01.81,11.05-.47,15.32-.35-.22-3.82.42-3.67-.4-.97-5.27,3.81-22.2-6.92-19.26-6.69,3.89-1.79,13.91-3.92,19.65-.43-.18-4.06.37-3.63-.41,0-.54,0-21.96,0-22.08-.03-1.2,2.72-.51,3.43-.71.45,0,.65.35.61.73.05.41-.39,2.18.4,1.39Z"/><path class="cls-4" d="M374.62,116.19c-1.62-4.22-8.36.06-4.35,2.77,4.32,2.1,10.3,3.55,9.54,9.62-.89,8.36-13.34,8.65-15.96,1.12-.49-.94,2.46-1.47,2.86-1.82.37-.15.63-.05.78.32,1.31,3.26,6.33,4.97,7.83.99,2.5-6.63-12.01-4.24-9.94-13.51,2.03-9.87,18.84-2.15,10.21.85-.45.25-.78.14-.97-.34Z"/><path class="cls-4" d="M389.6,113.75c24.63-15.38,24.3,33.9.23,18.44-.4-.37-.6-.28-.6.26v14.17c.18,1.17-3.17.39-3.69.61-.33,0-.49-.16-.49-.49v-34.71c0-.47.23-.71.7-.72.71.22,3.53-.64,3.49.73.06.4-.69,2.46.36,1.71ZM396.51,131.55c4.2,0,7.61-3.82,7.61-8.56h0c.16-11.13-15.32-11.15-15.2-.03h0c0,4.73,3.39,8.58,7.59,8.58Z"/><path class="cls-4" d="M432,132.25c-9.71,6.8-22.02.33-18.59-13.55,2.25-7.99,12.07-10.64,18-4.95,1.5,1.13-.37-2.62,1.13-2.46.64.24,3.68-.63,3.52.73,0,0,0,21.7,0,21.7.16,1.35-2.84.54-3.5.75-1.1.1-.49-1.64-.56-2.22ZM424.53,131.55c4.22.02,7.66-3.81,7.68-8.56h0c.2-11.17-15.36-11.24-15.28-.08h0c-.02,4.75,3.38,8.62,7.59,8.64Z"/><path class="cls-4" d="M448.14,112.96c1.36-2.11,7.03-3.53,7.98-.7-.44.38-1.26,3.5-2.16,2.93-9.87-3.05-5.42,13.63-6.41,19,.18.63-3.6.13-3.81.28-.18,0-.27-.09-.27-.28.37-.78-.77-22.73.5-22.89,0,0,3.11-.03,3.11-.03,1.13-.13-.2,2.92,1.06,1.69Z"/><path class="cls-4" d="M461.37,124.28c.33,7.74,10.78,10.02,14.27,2.58.18-.56,3.01,1.46,3.27,1.46.13.07.19.23.12.37-4.13,9.31-19.43,8.28-21.44-1.91-4.77-19.84,24-21.65,21.16-3-.66.34-17.43-.74-17.38.5ZM462.05,120.24l12.68.02c.77-7.42-13.43-7.44-12.68-.02Z"/><path class="cls-4" d="M490.14,112.96c15.9-9.41,14.16,11.22,13.86,21.06.18.95-3.35.25-3.73.44-.24,0-.44-.2-.44-.44,0-4.72,0-9.37.01-13.96.02-8.34-10.2-6.95-10.3.52-.51,4.38.79,10.05-.53,13.88-.42-.25-3.94.53-3.76-.5,0,0,.02-22.16.02-22.16-.18-.94,3.11-.35,3.51-.55.5-.01.73.23.68.73-.06.61-.22,1.73.68.98Z"/><path class="cls-4" d="M526.27,115.35c-13.13-5.09-16.27,13.73-5.98,15.88,6.87,2.34,10.94-8.45,9.25,1.68-7.44,5.02-18.31,1.27-19.47-8.2-1.59-10.41,9.84-17.54,18.99-12.18.93.22.3,4.08.47,4.69-.03,1.3-2.2-1.98-3.26-1.87Z"/><path class="cls-4" d="M545.44,127.14l7.08-15.67c-.02-.41,4.05-.09,4.23-.2,1.3.15-16.66,35.38-16.41,35.81.03.41-4.09.02-4.26.13-.22,0-.37-.24-.27-.43,0,0,7.11-14.41,7.11-14.41.22-.31-10.34-20.36-10.35-20.64-.11-.19.05-.45.27-.44.2.14,4.33-.22,4.31.18.37.07,7.59,16.87,8.29,15.67Z"/><path class="cls-5" d="M328.13,123c.06,11.16-15.5,11.05-15.28-.11-.06-11.16,15.5-11.05,15.28.11Z"/><path class="cls-5" d="M404.12,122.99c.12,11.12-15.36,11.1-15.2-.03-.12-11.12,15.36-11.1,15.2.03Z"/><path class="cls-5" d="M432.21,122.99c.08,11.16-15.48,11.08-15.28-.08-.08-11.16,15.48-11.08,15.28.08Z"/><path class="cls-5" d="M462.05,120.24c-.78-7.2,13.01-7.5,12.79-.17.18.5-12.68,0-12.79.17Z"/><path class="cls-6" d="M214.74,135.97h13.04c.15-.01.27.11.27.26-.27.28.46,3.55-.35,3.39,0,0-31.34-.02-31.34-.02-1.28.13-.64-2.11-.79-2.79-.09-1.12,1.24-.81,1.95-.8.61.03.7-.18.29-.62-4.62-4.94-3.18-12.76,3.03-15.6,9.74-5.32,22.02,6.66,13.62,15.52-.44.45-.35.67.28.66ZM213.89,129.18c.06-8.9-15.73-8.73-15.48.16-.06,8.9,15.73,8.73,15.48-.16h0Z"/><path class="cls-5" d="M206.08,122.4c10.04-.23,10.19,13.74.14,13.72-10.04.23-10.19-13.74-.14-13.72Z"/><path class="cls-6" d="M217.28,154.94c-.07,14.58-22.24,14.58-22.3,0,.07-14.58,22.24-14.58,22.3,0ZM213.89,154.95c.17-9.55-15.65-9.57-15.52-.03-.17,9.55,15.65,9.57,15.52.03Z"/><path class="cls-4" d="M348.28,166.77s.01-19.3.01-19.3c-.16-.8,3.27-.14,3.58-.32.29,0,.43.14.43.42v39.38c.15,1.29-2.59.58-3.23.78-1.09.14-.71-1.63-.85-2.24-10.55,7.83-23-1.71-18-14.95,2.91-6.97,12.14-8.77,17.37-3.48.46.47.69.37.69-.29ZM340.84,184.83c9.91.2,9.97-17.36.06-17.22-4.22-.01-7.65,3.83-7.67,8.58h0c-.02,4.76,3.39,8.62,7.61,8.64Z"/><path class="cls-5" d="M206.14,147.58c10.07-.12,10.04,14.88-.03,14.72-10.07.12-10.04-14.88.03-14.72Z"/><path class="cls-4" d="M377.66,162.38c-7.68,15.14,11.83,29.56,24.37,17.45.1,2.52.23,4.19-.23,5.24-10.66,7.01-25.32,2.56-29.12-9.73-6.16-16.95,14.46-32.76,29.19-21.95.41-.12.17,5.24.09,5.33-7.75-7.21-19.57-6.25-24.3,3.66Z"/><path class="cls-4" d="M536.34,164.11c.18-.24-.55-8.31.32-7.91.38.17,3.97-.39,3.87.45h0l-.08,7.43c-.12.8,3.21.34,3.57.5.87-.07.08,2.83.21,3.21-.17,1.05-3.6-.14-3.72.95,0,0-.13,18.49-.13,18.49.1.83-3.3.26-3.66.44-.23,0-.42-.19-.42-.42h0v-18.57c.02-.76-1.66-.28-2.04-.37-.23,0-.42-.18-.43-.41,0,0-.01-2.99-.01-2.99-.04-.76,1.71-.28,2.09-.38.24,0,.43-.18.43-.42Z"/><path class="cls-6" d="M147.64,200.39c13.98-9.52,33.3-2.36,38.95,13.03,9.3,24.47-14.51,50.15-38.92,35.37-1.24-.88-.45,3.3-.69,3.67,0,.43-.22.65-.66.65h-16.58c-.24.01-.43-.18-.43-.42.61-.65-1.14-89.2.65-88.99.73.26,16.97-.67,17.05.51.58.41-1.14,37.11.63,36.18ZM169.83,224.5c0-6.3-5.11-11.41-11.41-11.41-14.92.07-14.92,22.76,0,22.82,6.3,0,11.41-5.11,11.41-11.41Z"/><path class="cls-4" d="M293.04,166.94c-.56-3.36.82-2.26,3.24-2.44,1.63-.74.34,22.17.73,22.51.16,1.32-2.79.51-3.43.71-1.47.17.29-3.61-1.14-2.49-14.14,12.8-27.62-14.43-11.14-20.58,4.29-1.41,8.03-.57,11.22,2.53.38.37.55.29.52-.24ZM285.49,184.81c9.9.24,10.01-17.3.12-17.2-9.89-.24-10.01,17.3-.12,17.2Z"/><path class="cls-4" d="M309.01,166.52c5.4-4.92,14.14-2.52,14.08,5.69-.03,4.95-.03,9.97,0,15.06.19.98-3.23.25-3.63.44-.31,0-.46-.16-.46-.46-1.09-5.28,2.82-16.2-2.99-19.25-11.27-2.04-6.09,13.81-7.74,19.74-.28-.22-3.91.4-3.74-.4,0,0-.03-22.25-.03-22.25,0-.37.19-.56.56-.56l3.03-.03c1.26-.2-.5,3.1.92,2.02Z"/><path class="cls-4" d="M431.77,176.22c-.08,16.13-24.59,16.12-24.66,0,.07-16.13,24.59-16.12,24.66,0ZM419.29,184.8c4.49.08,8.2-3.7,8.28-8.45h0c.08-4.74-3.49-8.65-7.98-8.73-10.54-.35-10.85,17.16-.3,17.18Z"/><path class="cls-4" d="M441.74,166.51c2.73-1.21,5.48-3.64,9.47-2.06,8.77,3.41,3.86,15.25,5.1,22.73.19,1.04-3.05.36-3.5.56-.29,0-.52-.23-.53-.52.01-4.58.01-9.3-.01-14.14-.03-8.03-10.22-6.7-10.39.85-.53,4.2.71,9.84-.51,13.8-.32-.23-3.84.46-3.66-.42,0,0,0-22.27,0-22.27-.17-1.03,3.15-.34,3.6-.54.84-.03.34,1.57.42,2.01Z"/><path class="cls-4" d="M473.08,169.58c-1.83-3.95-8.05-.79-4.74,2.55,4.76,2.33,11.69,4.02,9.4,11.16-1.93,7.05-13.21,6.67-15.61-.35-.55-.81,2.69-1.52,2.99-1.85.24-.11.52,0,.61.25.85,2.19,2.99,3.93,5.44,3.26,7.18-4-.79-7.29-4.74-9.13-5.15-2.79-3.17-10.34,2.3-11.33,3.41-1.16,11.5,3.37,5.37,5.6-.4.33-.74.28-1.02-.16Z"/><path class="cls-4" d="M486.21,177.91c1.28,8.67,10.44,8.42,14.76,2.2.04.15,3.24,1.59,2.85,1.88-2.66,4.75-6.63,6.87-11.92,6.34-13.69-1.37-13.16-23.31.2-24.26,7.38-1.07,13.87,6.6,11.27,12.95-.37.44-18.46-1.07-17.16.89ZM486.66,173.69c.17-.15,13.15.27,13.1-.22.2-7.73-14.16-7.25-13.1.22Z"/><path class="cls-4" d="M514.06,166.27c-.06.31.33.51.55.3,5.5-5.22,14.17-2.4,14.09,5.83-.05,5.14-.06,10.1-.05,14.88.18.86-3.23.25-3.57.44-2.31-5.11,2.81-16.36-3.38-19.7-11.6-2.41-5.69,14.37-7.95,19.69-.4-.25-3.89.54-3.71-.48,0,0,0-22.23,0-22.23-.12-.97,3.25-.3,3.67-.49,1-.07.37,1.25.34,1.76Z"/><path class="cls-4" d="M50.63,165.19c15.09.07,15.09,23.01,0,23.08-15.09-.07-15.09-23.01,0-23.08Z"/><path class="cls-6" d="M196.9,172.81c-1.79-1.76-2.95-5.51-.54-7.11.28.35,3.24,1.23,2.79,1.93-2.97,8.9,12.54,5,17.08,5.86.65-.15.15,3.11.3,3.35,0,.22-.11.33-.34.34l-20.15.03c-.31,0-.47-.16-.47-.47l-.03-2.56c-.16-1.13,2.46-.07,1.36-1.37Z"/><path class="cls-5" d="M293.18,176.26c.06,11.16-15.48,11.05-15.26-.11-.06-11.16,15.48-11.05,15.26.11Z"/><path class="cls-5" d="M348.51,176.25c.1,11.18-15.46,11.12-15.28-.05-.1-11.17,15.46-11.12,15.28.05Z"/><path class="cls-5" d="M427.57,176.35c-.04,11.15-16.6,10.86-16.26-.28.04-11.15,16.6-10.86,16.26.28Z"/><path class="cls-5" d="M486.66,173.69c-1.06-7.47,13.3-7.94,13.1-.22.05.48-12.93.07-13.1.22Z"/><path class="cls-6" d="M209.33,195.62c6.01-.15,6.34-9.07-.56-9.12-4.35-.48-9.65.84-13.22-.5,0,0,.01-2.8.01-2.8,4.25-1.37,10.2-.09,14.34-.4,9.71.26,9.84,16.49-.61,16.57-4.14-.43-9.97.98-13.73-.54,0,0,0-2.63,0-2.63,3.5-1.27,8.88-.02,13.77-.58Z"/><path class="cls-6" d="M42.11,196.05h17.1c.64.24.6,56.82,0,57.08,0,0-17.1,0-17.1,0-.64-.24-.6-56.82,0-57.08Z"/><path class="cls-6" d="M105.19,248.79c-15.58,10.72-37.05.08-40.23-17.7-5.95-23.06,19.63-44.55,40.29-30.68,1.62.89-.15-4.37,1.1-4.36,0,0,16.93-.01,16.93-.01,1.25-.11,0,56.26.42,56.68,0,.21-.18.38-.39.38,0,0-16.77.01-16.77.01-1.63.19.44-5.21-1.35-4.32ZM105.9,224.5c0-6.3-5.11-11.41-11.41-11.41-14.92.07-14.92,22.76,0,22.82,6.3,0,11.41-5.11,11.41-11.41Z"/><path class="cls-4" d="M494.98,225.72c1.26.76,7.41-8.54,9.19-7.83.24.21,5.35-.54,3.91.67-13.36,13.35-10.11,6.33,2.21,22.24-2.23.25-4.16.47-5.47-.07,0,0-7.98-9.12-7.98-9.12-1.23-1.41-1.84-1.18-1.85.69l-.02,8.1c.14,1.13-2.99.35-3.51.55-1.51.12-.05-39.84-.54-40.38-.22-.57,3.71-.07,3.83-.22.14,0,.25.11.25.25l-.02,25.12Z"/><path class="cls-6" d="M207.46,219.81c7.33-.73,8.64-9.47,2.14-13.04.55-1.18.94-2.67,1.86-2.95,4.87,3.04,6.62,7.22,5.24,12.54-4.19,14.35-27.87,5.54-20.35-7.91,1.39-2.77,6.84-6.2,10.46-4.17.33.24-.77,16.46.65,15.53ZM203.85,219.29c-.13-.16.29-11.78-.14-11.74-7.09-.19-6.71,12.64.14,11.74h0Z"/><path class="cls-4" d="M280.49,223.07l-.07,17.5c.12.79-3.4.21-3.73.37-.22,0-.39-.17-.39-.39h0c.39-.43-.79-36.85.34-36.8,0,0,16.21.02,16.21.02.22,0,.4.18.39.4-.21.36.34,3.75-.46,3.65,0,0-11.86,0-11.86,0-.22,0-.39.17-.39.39.21.17-.55,10.9.32,10.45.21.2,12.37-.45,11.97.4h0c-.16.35.38,3.72-.4,3.62-.27.21-12.23-.49-11.93.38h0Z"/><path class="cls-5" d="M203.85,219.29c0,.09-.07.16-.16.16-7.09.17-6.67-12.66.18-11.74h0l-.02,11.58Z"/><path class="cls-5" d="M94.49,213.09c14.92.07,14.92,22.76,0,22.82-14.92-.07-14.92-22.76,0-22.82Z"/><path class="cls-5" d="M158.42,213.09c14.92.07,14.92,22.76,0,22.82-14.92-.07-14.92-22.76,0-22.82Z"/><path class="cls-4" d="M430.11,232.74c.28-.19,6.16-14.94,6.7-14.83.11.19,4.79-.47,4.25.41-.4.17-10.71,24.37-11.47,23.97-.63-.05-6.34-17.37-7.26-16.12,0,0-6.58,15.94-6.58,15.94-.09.24-.45.25-.55,0,.24-.41-11.87-24.08-10.64-24.21.24.12,4.23-.19,4.24.22,0,0,6.34,14.65,6.34,14.65.97,1.4,6.75-17,7.63-16.35.75.19,6.32,17.36,7.34,16.31Z"/><path class="cls-4" d="M302.96,219.4c2.01-1.98,6.24-3.49,7.93-.67,0,.03-1.37,2.51-1.38,2.55-.23.42-.56.54-1,.35-9.42-2.58-5.45,13.53-6.2,18.62.18,1.32-2.91.51-3.54.73-.34,0-.51-.17-.51-.51v-21.97c0-.36.17-.54.53-.55,0,0,2.99-.09,2.99-.09,1.06-.13-.14,2.59,1.18,1.54Z"/><path class="cls-4" d="M330.5,238.67c-6.09,5.51-15.58,3.15-17.88-4.93-4.34-10.94,9.26-22.25,18.06-13.31,1.36.95-.55-2.83,1.13-2.5.78.22,3.63-.63,3.47.9,0,0,0,21.41,0,21.41.15,1.3-2.61.55-3.26.74-.52,0-.95-.42-.95-.95-.04-.45.38-2.24-.57-1.36ZM323.73,238.09c9.89.21,9.96-17.34.06-17.2-9.89-.21-9.95,17.34-.06,17.2Z"/><path class="cls-4" d="M347.33,219.37c5.58-4.31,7.4-1.41,11.87.97,1.43-1.97,3.47-2.99,6.14-3.05,6.59-.17,8.01,4.63,7.97,10.09-.48,4.68.84,10.14-.51,13.63-.64-.27-3.85.53-3.72-.72.03-4.89.02-9.76-.04-14.62-.09-7.1-8.76-5.76-8.92.63-.59,4.17.82,10.29-.57,14.7-.57-.26-3.83.52-3.68-.67-1.17-5.59,3.74-20.55-5.5-19.14-6.89,3.05-1.71,14.4-4.04,19.78-.33-.24-3.91.51-3.7-.44,0,0,0-22.25,0-22.25-.19-.81,3.37-.18,3.67-.35,1.13-.14-.27,2.39,1.03,1.44Z"/><path class="cls-4" d="M383.49,230.82c.93,8.65,10.44,9.38,14.49,2.47,7.82,2.28-2.99,9.03-7.28,8.39-15.83.16-14.97-25.49.67-24.36,6.7.19,11.42,7.11,9.61,12.95,0,0-16.98-.01-16.98-.01-.3,0-.54.26-.51.56ZM384.05,226.86c.17-.16,13.09.27,13.05-.21h0c.16-7.6-14.04-7.15-13.05.21Z"/><path class="cls-4" d="M468.48,229.49c-.07,16.12-24.59,16.12-24.66,0,.07-16.12,24.59-16.12,24.66,0ZM456.06,238.07c10.54.28,10.73-17.24.18-17.18-10.54-.28-10.73,17.24-.18,17.18Z"/><path class="cls-4" d="M479.23,219.38c2.2-2.14,5.72-3.16,8.01-.86-.25.17-1.61,3.64-2.07,3.29-10.98-3.46-4.6,14.29-7.14,19.16-.44-.26-3.67.57-3.51-.49,0,0-.01-21.99-.01-21.99-.16-1.02,3.06-.42,3.52-.63.3,0,.46.14.47.44.01.52-.12,1.92.73,1.08Z"/><path class="cls-5" d="M331.39,229.52c.1,11.16-15.44,11.11-15.26-.05-.1-11.16,15.44-11.11,15.26.05Z"/><path class="cls-5" d="M384.05,226.86c-1-7.61,13.84-7.65,12.88-.04l-12.88.04Z"/><path class="cls-5" d="M464.28,229.57c.03,11.15-16.53,10.97-16.26-.17-.03-11.15,16.53-10.97,16.26.17Z"/><path class="cls-4" d="M206.63,230.5c15.09.07,15.09,23.01,0,23.08-15.09-.07-15.09-23.01,0-23.08Z"/><path class="cls-4" d="M500.51,305.98c-.39,3.41-.79,22.3-.53,26.54-.31.83-403.33.86-403.61-.03-.14-13.69-.13-36.07-.21-49.8-.41-1.82,403.08.06,403.53-.59,1.34,7.32-.92,16.68.82,23.88ZM398.56,306.89l1.77,10.56c.04,1.02,2.38.42,2.95.58,1.23-.04-3.43-20.47-3.18-21.06-.13-.79-.37-.82-.7-.09-8.98,18.53-4.39,18.67-13.27.03-.34-.76-.59-.73-.75.09l-4.01,20.76c-.41.41,3.61.38,3.35.04,0,0,1.69-10.24,1.69-10.24.19-1.13.51-1.17.96-.12.36,0,4.7,12.58,5.48,11.09,0,0,5.22-11.7,5.22-11.7.23-.53.4-.51.49.06ZM225.53,311.26c-1.33,2.83-3.42,4.22-6.25,4.17-14.34-1.69-3.55-23.28,6.33-12.27.45.77,2.2-1.26,2.64-1.38-1.29-3.71-6.5-5.02-10.45-4.37-13.56,2.19-10.39,23.61,3.27,20.91,4.71-.59,9.48-6.1,7.45-11.02-.29.21-8.38-.52-7.96.46.15.42-.43,2.75.46,2.68.51.29,5.41-.76,4.51.82ZM249.26,315.41c-2.97-.04-2.15-3.5-3.47-3.71,0,0-2.23.51-2.23.51-1.3,2.31,2.01,5.52,4.06,5.99,11.29,1.91,11.36-11.73.82-13.72-3.81-2.8,2.69-6.39,4.4-2.59.43.96,2.11-.85,2.59-.99-.94-5.3-11.12-4.96-11.4,1.4-.53,4.19,4.11,5.56,6.94,6.87,3.59,1.66,2.27,6.46-1.71,6.24ZM365.08,303.14c2.6-3.36,7.59-4,10.92-.92.35.33.53.25.53-.24-.14-.9.48-3.38-.79-3.75-20.78-7.41-20,27.43.58,18.85.25.3.51-4.51-.16-3.76-7.01,6.59-16.5-3.26-11.08-10.18ZM182.59,309.28c3.02-1.21,4.32-3.39,3.89-6.54-.49-5.34-7.99-6.35-11.42-4.52,0,0,.01,19.3.01,19.3,0,.28.22.5.5.5.47-.18,2.86.44,2.74-.53.29-.25-.93-10.2.84-7.07.68.58,4.87,7.93,6,7.58.31-.2,3.9.67,2.94-.5.07-.27-6.58-8.13-5.5-8.22ZM196.71,305.72c-.82.16-.26-4.4-.44-4.72.04-1.18,8.19.38,8.23-.8-.15-.32.37-2.67-.4-2.58-.21.24-11.42-.51-11.03.39,0,0,0,19.6,0,19.6-.42.88,10.8.2,10.98.41.75.08.29-2.26.43-2.61,0-.23-.18-.42-.41-.41-.21-.17-8.16.49-7.74-.35.17-.31-.48-6.11.36-5.87.22-.18,7.95.41,7.54-.44-.16-.35.31-2.68-.45-2.61,0,0-7.07-.01-7.07-.01ZM237.79,297.91c.1-.64-2.67-.18-2.93-.31-.17,0-.31.14-.31.31.29.31-.57,20.19.31,20.13.27-.18,3.02.36,2.93-.31,0,0,0-19.82,0-19.82ZM266.99,300.9c.11-.99,4.63.26,4.7-.76-.16-.27.24-2.6-.42-2.51,0,0-11.86-.02-11.86-.02-.67-.09-.24,2.36-.37,2.65.1,1.02,4.6-.35,4.72.65,0,0,0,16.79,0,16.79,0,.19.16.35.35.34.3-.21,2.98.34,2.89-.38,0,0-.01-16.76-.01-16.76ZM279.61,315.03c-.7.33-.25-5.74-.4-5.91-.35-.73,7.43-.21,7.59-.37.7.07.14-2.38.26-2.68-.03-.99-7.89.3-7.9-.71-.1-7-.73-4.25,7.85-4.76.67.07.21-2.32.34-2.63,0-.19-.15-.34-.34-.34l-10.64-.02c-.19,0-.34.15-.34.34,0,0,0,19.73,0,19.73,0,.19.15.34.34.34.39-.25,10.95.47,10.93-.32-.14-.35.39-2.72-.29-2.7,0,0-7.39.03-7.4.03ZM300.6,309.23c6.28-2.29,4.86-11.29-2.01-11.55-1.66.3-4.77-.94-5.64.54,0,0,0,19.22,0,19.22-.14,1,2.44.44,2.91.62.27.01.41-.12.41-.39.32-.23-.81-10.03.91-7.18.81.73,4.66,7.85,6.05,7.52.37-.19,3.79.66,2.76-.6.04-.36-6.58-7.98-5.39-8.18ZM314.7,305.72c-.82.16-.26-4.4-.44-4.72.04-1.18,8.15.38,8.19-.8-.15-.32.41-2.67-.37-2.58-.21.24-11.47-.51-11.07.39,0,0,0,19.6,0,19.6-.43.88,10.82.21,11,.42.75.08.29-2.28.43-2.63,0-.23-.18-.42-.41-.41-.21-.17-8.12.5-7.71-.34.17-.31-.48-6.12.36-5.88,0,0,7.09,0,7.09,0,.76.07.27-2.28.4-2.63.42-.83-7.29-.23-7.47-.41ZM328.01,297.89c.28.3-.51,20.2.34,20.14,7,.81,15.49-1.33,15.48-9.73.63-9.02-8.53-12.22-15.82-10.41ZM413.65,309.72c12.79.3,8.27-16.36-3.94-11.5.33.83-.68,19.47.43,19.8.33-.18,2.88.39,2.77-.36.3-.55-.73-8.45.74-7.94Z"/><path class="cls-5" d="M398.07,306.83c-.42.36-4.87,12.15-5.68,11.87-.57.2-5.59-15.18-5.98-11.14,0,0-1.69,10.24-1.69,10.24.07.48-2.96.09-3.16.2-.16,0-.22-.08-.19-.24l4.01-20.76c.16-.82.41-.85.75-.09,8.91,18.8,4.32,18.33,13.27-.03.33-.73.57-.7.7.09l3.59,20.57c.29.94-2.32.31-2.69.48-.38,0-.6-.19-.67-.57-.28,0-1.48-12.56-2.26-10.62Z"/><path class="cls-5" d="M225.01,310.44c-.42-.19-4.59.48-4.47-.47h0c.17-.42-.39-2.78.49-2.67.44.27,8.54-.67,8.08.62-.23,5.92-2.91,9.39-8.04,10.4-22.56,1.24-9.24-33.26,7.24-17.09.14.16.11.42-.06.55-.46.14-2.18,2.14-2.64,1.38-9.88-11.01-20.67,10.58-6.33,12.27,1.85.79,8.02-3.57,5.73-4.99Z"/><path class="cls-5" d="M249.26,315.41c3.98.22,5.3-4.58,1.71-6.24-2.83-1.31-7.47-2.68-6.94-6.87.28-6.36,10.46-6.71,11.4-1.4-.51.16-2.15,1.93-2.59.99-1.58-3.54-7.88-.66-4.68,2.41,11.48,2.78,10.4,15.65-.54,13.9-2.05-.46-5.36-3.69-4.06-5.99,0,0,2.23-.51,2.23-.51.37-.09.58.06.62.44.19,1.57,1.07,3.17,2.85,3.27Z"/><path class="cls-5" d="M376,302.22c-16.03-9.73-16.87,20.92.54,11.28-.1.19.19,3.59-.22,3.58-20.59,8.58-21.35-26.27-.58-18.85,1.26.38.66,2.84.79,3.75,0,.49-.18.57-.53.24Z"/><path class="cls-5" d="M182.59,309.28c-1.11.05,5.6,8,5.5,8.22.95,1.15-2.62.32-2.94.5-1.11.38-5.34-7.02-6-7.58-1.76-3.16-.55,6.85-.84,7.07.14.96-2.28.37-2.74.53-.28,0-.5-.22-.5-.5v-19.3c3.42-1.84,10.92-.82,11.41,4.52.43,3.15-.87,5.33-3.89,6.54ZM178.21,300.97l.12,5.62c0,.55.94.29,1.25.33,6.78-.48,3.59-8.23-1.37-5.95Z"/><path class="cls-5" d="M196.71,305.72h7.07c.75-.07.31,2.27.45,2.62.44.85-7.35.26-7.54.44-.84-.26-.19,5.6-.36,5.87-.3.88,7.49.15,7.74.35.79-.07.25,2.25.38,2.62,0,.22-.18.4-.4.4-.22-.25-11.36.49-10.98-.41,0,0,0-19.6,0-19.6-.43-.88,10.86-.18,11.03-.39.76-.08.27,2.23.4,2.58-.04,1.18-8.19-.38-8.23.8.19.36-.39,4.86.44,4.72Z"/><path class="cls-5" d="M234.86,297.6c.27.18,3.02-.35,2.93.31-.29.31.57,20.19-.31,20.13-.27-.18-3.02.36-2.93-.31.29-.31-.57-20.19.31-20.13Z"/><path class="cls-5" d="M266.99,300.9v16.76c.11.68-2.59.23-2.88.38-.89-.05-.09-16.69-.35-17.13-.12-1-4.62.37-4.72-.65.16-.28-.31-2.74.37-2.65.5.23,12.08-.45,12.2.35-.14.34.45,2.58-.26,2.54-.3.17-4.5-.31-4.36.4Z"/><path class="cls-5" d="M279.61,315.03c.19.15,8.07-.43,7.73.32-.15.25.29,2.79-.38,2.68,0,0-10.59,0-10.59,0-.19,0-.34-.15-.34-.34.32-.34-.62-20.14.34-20.07,0,0,10.64.02,10.64.02.67-.09.21,2.34.34,2.63,0,.19-.15.34-.34.34-8.57.51-7.95-2.24-7.85,4.76,0,1,7.87-.28,7.9.71-.14.31.45,2.75-.26,2.68-.19.16-7.91-.36-7.59.37.15.18-.3,6.22.4,5.91Z"/><path class="cls-5" d="M300.6,309.23c-1.22.16,5.47,7.87,5.39,8.18,1.02,1.24-2.37.43-2.76.6-1.37.35-5.26-6.81-6.05-7.52-1.71-2.87-.6,6.98-.91,7.18.12.8-2.43.18-2.78.32-.36,0-.54-.19-.54-.55v-19.22c.87-1.5,3.98-.22,5.64-.54,6.87.26,8.29,9.26,2.01,11.55ZM296.28,301c.19.36-.48,6.22.46,5.99,2.41.15,4.78-1.25,4.74-3.06.23-2.04-2.16-3.53-4.72-3.4-.26,0-.48.21-.48.47Z"/><path class="cls-5" d="M314.7,305.72h7.07c.76-.06.27,2.29.4,2.64.43.83-7.31.23-7.49.41-.84-.26-.19,5.61-.36,5.88-.44.86,7.53.16,7.71.34.79-.07.25,2.27.38,2.64,0,.22-.18.4-.4.4-.21-.25-11.39.48-11-.42,0,0,0-19.6,0-19.6-.37-.88,10.86-.19,11.07-.39.77-.08.24,2.23.37,2.58-.04,1.18-8.15-.38-8.19.8.19.36-.39,4.86.44,4.72Z"/><path class="cls-5" d="M328.01,297.89c7.36-1.78,16.4,1.33,15.82,10.41,0,8.4-8.48,10.54-15.48,9.73-.85.06-.06-19.84-.34-20.14ZM331.15,301.02l.14,13.62c0,.22.19.4.41.39,12.78,1.23,10.97-17.25-.55-14.01Z"/><path class="cls-5" d="M412.93,310.37c-.22.23.47,7.97-.39,7.65-.37-.19-2.96.43-2.83-.43.38-.93-.8-19.63.55-19.96,6-.97,13.01,1.57,10.52,8.44-1.22,2.73-3.6,3.95-7.13,3.65-.48-.04-.72.18-.72.65ZM412.89,300.9l.02,5.58c-.02.59,1.11.29,1.43.36,6.55-.38,3.46-8.21-1.45-5.94Z"/><path class="cls-4" d="M178.21,300.97c4.92-2.28,8.18,5.44,1.37,5.95-.31-.05-1.25.23-1.25-.33,0,0-.12-5.62-.12-5.62Z"/><path class="cls-4" d="M296.28,301c0-.26.22-.48.48-.47,2.56-.13,4.94,1.36,4.72,3.39.05,1.82-2.33,3.22-4.74,3.07-.94.25-.27-5.65-.46-5.99Z"/><path class="cls-4" d="M331.15,301.02c11.53-3.24,13.32,15.24.55,14.01-.22,0-.4-.17-.41-.39,0,0-.14-13.62-.14-13.62Z"/><path class="cls-4" d="M412.89,300.9c4.91-2.27,8,5.56,1.45,5.94-.32-.08-1.45.24-1.43-.36,0,0-.02-5.58-.02-5.58Z"/></g></svg>