<svg xmlns="http://www.w3.org/2000/svg" width="74.36" height="74.239" viewBox="0 0 74.36 74.239">
  <g id="apartment" transform="translate(-1.2 -1.3)">
    <path id="Path_497" data-name="Path 497" d="M69.766,1.3h-30.9a5.694,5.694,0,0,0-5.674,5.794v7H6.994A5.8,5.8,0,0,0,1.2,19.89V69.745a5.8,5.8,0,0,0,5.794,5.794H69.766a5.8,5.8,0,0,0,5.794-5.794V6.974A5.771,5.771,0,0,0,69.766,1.3Zm-36.7,70.014H6.994a1.6,1.6,0,0,1-1.569-1.569v-50.1a1.6,1.6,0,0,1,1.569-1.569H33.068Zm38.266-1.569a1.6,1.6,0,0,1-1.569,1.569H37.293V6.974A1.581,1.581,0,0,1,38.742,5.4H69.766a1.6,1.6,0,0,1,1.569,1.569Z" transform="translate(0)" fill="#00c999"/>
    <path id="Path_498" data-name="Path 498" d="M9.3,31.5h5.191a.57.57,0,0,0,.6-.6V25.7a.57.57,0,0,0-.6-.6H9.3a.57.57,0,0,0-.6.6v5.191A.57.57,0,0,0,9.3,31.5Z" transform="translate(1.554 4.93)" fill="#00c999"/>
    <path id="Path_499" data-name="Path 499" d="M19.4,31.5h5.191a.57.57,0,0,0,.6-.6V25.7a.57.57,0,0,0-.6-.6H19.4a.57.57,0,0,0-.6.6v5.191A.57.57,0,0,0,19.4,31.5Z" transform="translate(3.646 4.93)" fill="#00c999"/>
    <path id="Path_500" data-name="Path 500" d="M9.3,46h5.191a.57.57,0,0,0,.6-.6V40.2a.57.57,0,0,0-.6-.6H9.3a.57.57,0,0,0-.6.6v5.191A.647.647,0,0,0,9.3,46Z" transform="translate(1.554 7.933)" fill="#00c999"/>
    <path id="Path_501" data-name="Path 501" d="M19.4,46h5.191a.57.57,0,0,0,.6-.6V40.2a.57.57,0,0,0-.6-.6H19.4a.57.57,0,0,0-.6.6v5.191A.647.647,0,0,0,19.4,46Z" transform="translate(3.646 7.933)" fill="#00c999"/>
    <path id="Path_502" data-name="Path 502" d="M42.994,12.1H37.8a.57.57,0,0,0-.6.6v5.191a.57.57,0,0,0,.6.6h5.191a.57.57,0,0,0,.6-.6V12.7A.647.647,0,0,0,42.994,12.1Z" transform="translate(7.457 2.237)" fill="#00c999"/>
    <path id="Path_503" data-name="Path 503" d="M53.594,12.1H48.4a.57.57,0,0,0-.6.6v5.191a.57.57,0,0,0,.6.6h5.191a.57.57,0,0,0,.6-.6V12.7A.647.647,0,0,0,53.594,12.1Z" transform="translate(9.653 2.237)" fill="#00c999"/>
    <path id="Path_504" data-name="Path 504" d="M42.994,26.4H37.8a.57.57,0,0,0-.6.6v5.191a.57.57,0,0,0,.6.6h5.191a.57.57,0,0,0,.6-.6V27A.57.57,0,0,0,42.994,26.4Z" transform="translate(7.457 5.199)" fill="#00c999"/>
    <path id="Path_505" data-name="Path 505" d="M53.594,26.4H48.4a.57.57,0,0,0-.6.6v5.191a.57.57,0,0,0,.6.6h5.191a.57.57,0,0,0,.6-.6V27A.57.57,0,0,0,53.594,26.4Z" transform="translate(9.653 5.199)" fill="#00c999"/>
    <path id="Path_506" data-name="Path 506" d="M42.994,40.7H37.8a.57.57,0,0,0-.6.6v5.191a.57.57,0,0,0,.6.6h5.191a.57.57,0,0,0,.6-.6V41.3A.57.57,0,0,0,42.994,40.7Z" transform="translate(7.457 8.161)" fill="#00c999"/>
    <path id="Path_507" data-name="Path 507" d="M53.594,40.7H48.4a.57.57,0,0,0-.6.6v5.191a.57.57,0,0,0,.6.6h5.191a.57.57,0,0,0,.6-.6V41.3A.57.57,0,0,0,53.594,40.7Z" transform="translate(9.653 8.161)" fill="#00c999"/>
  </g>
</svg>
