<svg xmlns="http://www.w3.org/2000/svg" width="36" height="35.942" viewBox="0 0 36 35.942">
  <g id="Group_610" data-name="Group 610" transform="translate(-1.3 -1.299)">
    <path id="Path_231" data-name="Path 231" d="M3.349,19.271A15.916,15.916,0,0,1,31.1,8.558H27.817a1.054,1.054,0,1,0,0,2.107h5.5a.975.975,0,0,0,1-.937l.351-4.683a1.028,1.028,0,0,0-2.049-.176l-.176,2.224A18.208,18.208,0,0,0,19.212,1.3,17.888,17.888,0,0,0,1.3,19.271a17.394,17.394,0,0,0,2.459,9.015.966.966,0,0,0,.878.527,1.709,1.709,0,0,0,.527-.117,1.042,1.042,0,0,0,.351-1.4A15.571,15.571,0,0,1,3.349,19.271Z" fill="#00c999"/>
    <path id="Path_232" data-name="Path 232" d="M39.825,21.508a1.018,1.018,0,1,0-1.932.644,15.365,15.365,0,0,1,.878,5.151,15.974,15.974,0,0,1-24.761,13.4h2.634a1.054,1.054,0,1,0,0-2.107h-5.5a.975.975,0,0,0-1,.937L9.8,44.22a1,1,0,0,0,.937,1.112h.059a.975.975,0,0,0,1-.937L12.02,41.7a17.951,17.951,0,0,0,27.8-20.2Z" transform="translate(-3.52 -8.091)" fill="#00c999"/>
    <path id="Path_233" data-name="Path 233" d="M27.4,33.837a1.049,1.049,0,0,0,1.054-1.054v-4.39h4.39a1.038,1.038,0,0,0,1.054-1,1.088,1.088,0,0,0-1.054-1.054h-4.39v-4.39a1.054,1.054,0,0,0-2.107,0v4.39h-4.39A1.049,1.049,0,0,0,20.9,27.4a1,1,0,0,0,1.054,1h4.39v4.39A1.088,1.088,0,0,0,27.4,33.837Z" transform="translate(-8.127 -8.127)" fill="#00c999"/>
  </g>
</svg>
