<svg id="code_1_" data-name="code (1)" xmlns="http://www.w3.org/2000/svg" width="44.204" height="27.319" viewBox="0 0 44.204 27.319">
  <path id="Path_124" data-name="Path 124" d="M13.738,15.175a1.273,1.273,0,0,0-1.87-1.726L2.084,24.455a3.379,3.379,0,0,0,0,4.388l9.783,11.078a1.16,1.16,0,0,0,.935.432,1.382,1.382,0,0,0,.863-.288,1.259,1.259,0,0,0,.072-1.8L3.955,27.188a.98.98,0,0,1,0-1.079Z" transform="translate(-1.275 -13.033)" fill="#00c999"/>
  <path id="Path_125" data-name="Path 125" d="M56.919,24.444,47.136,13.438a1.273,1.273,0,0,0-1.87,1.726L55.049,26.17a.98.98,0,0,1,0,1.079L45.266,38.183a1.331,1.331,0,0,0,.072,1.8,1.256,1.256,0,0,0,.863.288,1.16,1.16,0,0,0,.935-.432l9.783-11.006A3.378,3.378,0,0,0,56.919,24.444Z" transform="translate(-13.525 -13.022)" fill="#00c999"/>
  <path id="Path_126" data-name="Path 126" d="M34.281,13.976a1.262,1.262,0,0,0-1.583.791L24.786,38.289a1.3,1.3,0,0,0,.863,1.583.912.912,0,0,0,.432.072,1.4,1.4,0,0,0,1.223-.863l7.913-23.522A1.419,1.419,0,0,0,34.281,13.976Z" transform="translate(-7.863 -13.272)" fill="#00c999"/>
</svg>
