<svg xmlns="http://www.w3.org/2000/svg" width="30" height="23.202" viewBox="0 0 30 23.202">
  <path id="wallet" d="M27.718,15.05h-.5V12.264a3.584,3.584,0,0,0-1.493-2.935,3.423,3.423,0,0,0-3.234-.448L4.683,15.05A3.562,3.562,0,0,0,1.3,18.632v9.652a3.567,3.567,0,0,0,3.582,3.582H27.718A3.567,3.567,0,0,0,31.3,28.284V18.632A3.6,3.6,0,0,0,27.718,15.05Zm-4.677-4.527a1.879,1.879,0,0,1,1.692.249,1.819,1.819,0,0,1,.8,1.493V15.05H10.006Zm4.677,19.6H4.882a1.869,1.869,0,0,1-1.841-1.841V18.632a1.869,1.869,0,0,1,1.841-1.841H27.718a1.869,1.869,0,0,1,1.841,1.841v1.343H23.738a3.532,3.532,0,1,0,0,7.065h5.821v1.194A1.88,1.88,0,0,1,27.718,30.124Zm1.841-8.408v3.632H23.738a1.791,1.791,0,1,1,0-3.582h5.821Z" transform="translate(-1.3 -8.664)" fill="#00c999"/>
</svg>
