<svg xmlns="http://www.w3.org/2000/svg" width="121.949" height="121.132" viewBox="0 0 121.949 121.132">
  <g id="Group_692" data-name="Group 692" transform="translate(-289 -5401)">
    <g id="GoldStars" transform="translate(289 5401)">
      <path id="Path_310" data-name="Path 310" d="M-86.763-100l1.969,6.061h6.373l-5.156,3.746,1.969,6.061-5.156-3.746-5.156,3.746,1.969-6.061-5.156-3.746h6.373Z" transform="translate(147.737 100)" fill="#00c999"/>
      <path id="Path_311" data-name="Path 311" d="M-86.763-100l1.969,6.061h6.373l-5.156,3.746,1.969,6.061-5.156-3.746-5.156,3.746,1.969-6.061-5.156-3.746h6.373Z" transform="translate(174.053 107.051)" fill="#00c999"/>
      <path id="Path_312" data-name="Path 312" d="M-86.763-100l1.969,6.061h6.373l-5.156,3.746,1.969,6.061-5.156-3.746-5.156,3.746,1.969-6.061-5.156-3.746h6.373Z" transform="translate(193.318 126.316)" fill="#00c999"/>
      <path id="Path_313" data-name="Path 313" d="M-86.763-100l1.969,6.061h6.373l-5.156,3.746,1.969,6.061-5.156-3.746-5.156,3.746,1.969-6.061-5.156-3.746h6.373Z" transform="translate(200.369 152.632)" fill="#00c999"/>
      <path id="Path_314" data-name="Path 314" d="M-86.763-100l1.969,6.061h6.373l-5.156,3.746,1.969,6.061-5.156-3.746-5.156,3.746,1.969-6.061-5.156-3.746h6.373Z" transform="translate(193.318 178.948)" fill="#00c999"/>
      <path id="Path_315" data-name="Path 315" d="M-86.763-100l1.969,6.061h6.373l-5.156,3.746,1.969,6.061-5.156-3.746-5.156,3.746,1.969-6.061-5.156-3.746h6.373Z" transform="translate(174.053 198.212)" fill="#00c999"/>
      <path id="Path_316" data-name="Path 316" d="M-86.763-100l1.969,6.061h6.373l-5.156,3.746,1.969,6.061-5.156-3.746-5.156,3.746,1.969-6.061-5.156-3.746h6.373Z" transform="translate(147.737 205.264)" fill="#00c999"/>
      <path id="Path_317" data-name="Path 317" d="M-86.763-100l1.969,6.061h6.373l-5.156,3.746,1.969,6.061-5.156-3.746-5.156,3.746,1.969-6.061-5.156-3.746h6.373Z" transform="translate(121.422 198.212)" fill="#00c999"/>
      <path id="Path_318" data-name="Path 318" d="M-86.763-100l1.969,6.061h6.373l-5.156,3.746,1.969,6.061-5.156-3.746-5.156,3.746,1.969-6.061-5.156-3.746h6.373Z" transform="translate(102.157 178.948)" fill="#00c999"/>
      <path id="Path_319" data-name="Path 319" d="M-86.763-100l1.969,6.061h6.373l-5.156,3.746,1.969,6.061-5.156-3.746-5.156,3.746,1.969-6.061-5.156-3.746h6.373Z" transform="translate(95.106 152.632)" fill="#00c999"/>
      <path id="Path_320" data-name="Path 320" d="M-86.763-100l1.969,6.061h6.373l-5.156,3.746,1.969,6.061-5.156-3.746-5.156,3.746,1.969-6.061-5.156-3.746h6.373Z" transform="translate(121.422 107.051)" fill="#00c999"/>
      <path id="Path_321" data-name="Path 321" d="M-86.763-100l1.969,6.061h6.373l-5.156,3.746,1.969,6.061-5.156-3.746-5.156,3.746,1.969-6.061-5.156-3.746h6.373Z" transform="translate(102.157 126.316)" fill="#00c999"/>
    </g>
    <g id="Group_691" data-name="Group 691" transform="translate(317.5 5427.766)">
      <path id="Path_322" data-name="Path 322" d="M46.9,19.9V16.7A15.336,15.336,0,0,0,33.3,1.3,15.161,15.161,0,0,0,21.8,5.2,14.854,14.854,0,0,0,17,16v3.8A12.392,12.392,0,0,0,6.5,32.1V51A11.822,11.822,0,0,0,18.3,62.8H45.6A11.822,11.822,0,0,0,57.4,51V32A12.252,12.252,0,0,0,46.9,19.9ZM24.2,7.8a11.344,11.344,0,0,1,8.8-3c5.8.5,10.4,5.7,10.4,11.9v3H20.6V16A11.13,11.13,0,0,1,24.2,7.8ZM54,50.9a8.28,8.28,0,0,1-8.3,8.3H18.3A8.28,8.28,0,0,1,10,50.9V32.2a9.026,9.026,0,0,1,9-9H44.9A8.944,8.944,0,0,1,54,32Z" fill="#00c999"/>
      <path id="Path_323" data-name="Path 323" d="M32,35.5a1.793,1.793,0,0,0-1.8,1.8V47.8a1.8,1.8,0,1,0,3.6,0V37.3A1.793,1.793,0,0,0,32,35.5Z" fill="#00c999"/>
    </g>
  </g>
</svg>
