<svg xmlns="http://www.w3.org/2000/svg" width="22.31" height="22.309" viewBox="0 0 22.31 22.309">
  <path id="Icon_awesome-linkedin-in" data-name="Icon awesome-linkedin-in" d="M4.994,22.31H.369V7.415H4.994ZM2.679,5.383a2.691,2.691,0,1,1,2.679-2.7A2.7,2.7,0,0,1,2.679,5.383ZM22.3,22.31H17.69V15.059c0-1.728-.035-3.944-2.4-3.944-2.4,0-2.773,1.877-2.773,3.82V22.31H7.891V7.415h4.436V9.447h.065a4.86,4.86,0,0,1,4.376-2.405c4.681,0,5.542,3.083,5.542,7.086V22.31Z" transform="translate(0 -0.001)" fill="#4469f3"/>
</svg>
