<svg xmlns="http://www.w3.org/2000/svg" width="42" height="42" viewBox="0 0 42 42"><g transform="translate(-20543 -12629)"><path d="M41.515,38.94h-2.9V22.761a3.985,3.985,0,0,0-3.978-3.978H31.874a11.9,11.9,0,0,0,.472-3.1,10.081,10.081,0,0,0-1.416-5.258A10.313,10.313,0,0,0,22.166,5.3h-.337a10.228,10.228,0,0,0-8.764,5.124,10.435,10.435,0,0,0-1.416,5.258,9.616,9.616,0,0,0,.472,3.1H9.357A3.985,3.985,0,0,0,5.38,22.761V38.94H2.413A1.208,1.208,0,0,0,1.2,40.154,1.153,1.153,0,0,0,2.413,41.3h39.1a1.208,1.208,0,0,0,1.213-1.213A1.153,1.153,0,0,0,41.515,38.94Zm-12.607-27.3a8.914,8.914,0,0,1,1.079,3.438l-3.3-2.292a7.057,7.057,0,0,1-2.966-4.921A7.99,7.99,0,0,1,28.908,11.637Zm-13.888,0a7.9,7.9,0,0,1,6.337-3.91,9.215,9.215,0,0,0,3.978,7.011l4.382,3.034a8.267,8.267,0,0,1-1.281,2.7,4.642,4.642,0,0,1-.742.876l-.674-.876A8.12,8.12,0,0,0,20.481,17.5a6.014,6.014,0,0,1-2.157-.337l-4.449-1.618A9.314,9.314,0,0,1,15.02,11.637ZM25.807,22.761a8.1,8.1,0,0,1-3.775,1.011h-.2a8.08,8.08,0,0,1-6.4-3.3,9.5,9.5,0,0,1-1.146-2.157l3.236,1.146a8.944,8.944,0,0,0,3.034.472,5.5,5.5,0,0,1,4.584,2.09ZM7.672,38.94V22.761A1.64,1.64,0,0,1,9.29,21.143h3.371a.855.855,0,0,0,.4-.067,5.624,5.624,0,0,0,.539.809,10.131,10.131,0,0,0,8.225,4.247h.27a10.409,10.409,0,0,0,8.225-4.247,2.784,2.784,0,0,0,.472-.742h3.775a1.64,1.64,0,0,1,1.618,1.618V38.94H23.178V33.21l2.629,2.629a1.282,1.282,0,0,0,.876.337,1.244,1.244,0,0,0,.809-.337,1.18,1.18,0,0,0,0-1.685L22.84,29.435a1.244,1.244,0,0,0-.809-.337h0a1.116,1.116,0,0,0-.809.337L16.5,34.154a1.192,1.192,0,0,0,1.685,1.685l2.7-2.7v5.8H7.672Z" transform="translate(20541.801 12626.7)" fill="#00c999"/><rect width="42" height="42" transform="translate(20543 12629)" fill="none"/></g></svg>