<svg xmlns="http://www.w3.org/2000/svg" width="42" height="42" viewBox="0 0 42 42"><g transform="translate(-20654 -12760)"><rect width="42" height="42" transform="translate(20654 12760)" fill="none"/><path d="M36.4,4.127A2.936,2.936,0,0,0,33.471,1.2H8.827A2.936,2.936,0,0,0,5.9,4.127V33.8a3.746,3.746,0,0,0,3.688,3.4H35.4a1.054,1.054,0,0,0,0-2.107H9.588a1.639,1.639,0,0,1,0-3.278H35.4a1.05,1.05,0,0,0,1.054-1.054V4.127Zm-22.42-.82h3.688v7.376l-1.346-.7a1,1,0,0,0-1,0l-1.346.7ZM7.949,30.234V4.127a.9.9,0,0,1,.878-.878h3.1V12.38a.966.966,0,0,0,.527.878,1.006,1.006,0,0,0,1,0l2.4-1.288,2.4,1.288a1.377,1.377,0,0,0,.468.117,1.709,1.709,0,0,0,.527-.117,1.088,1.088,0,0,0,.527-.878V3.307H33.588a.9.9,0,0,1,.878.878v25.7H9.588a3.928,3.928,0,0,0-1.639.351Z" transform="translate(20653.1 12761.8)" fill="#00c999"/><path d="M8.827,1.1H33.471A3.043,3.043,0,0,1,36.5,4.027h.06V30.761a1.157,1.157,0,0,1-.337.817,1.142,1.142,0,0,1-.813.337H9.588a1.539,1.539,0,1,0,0,3.078H35.4a1.154,1.154,0,1,1,0,2.307H9.588A3.839,3.839,0,0,1,5.8,33.814V4.127A3.043,3.043,0,0,1,8.827,1.1Zm27.53,3.127H36.3v-.1A2.842,2.842,0,0,0,33.47,1.3H8.827A2.842,2.842,0,0,0,6,4.127V33.8a3.639,3.639,0,0,0,3.589,3.3H35.4a.954.954,0,0,0,0-1.907H9.588a1.739,1.739,0,1,1,0-3.478H35.4a.946.946,0,0,0,.676-.278.956.956,0,0,0,.278-.675ZM11.929,3.149h.1V12.38a.872.872,0,0,0,.472.789.906.906,0,0,0,.9,0l2.449-1.314L18.3,13.169a1.273,1.273,0,0,0,.425.107,1.607,1.607,0,0,0,.482-.107.987.987,0,0,0,.471-.791V3.207H33.588a1,1,0,0,1,.978.976v25.8H9.572a3.8,3.8,0,0,0-1.582.342l-.141.064V4.127a1,1,0,0,1,.976-.978Zm-.1.2h-3a.8.8,0,0,0-.778.78V30.082a4,4,0,0,1,1.524-.3H34.366V4.185a.8.8,0,0,0-.78-.778H19.873v8.978a1.186,1.186,0,0,1-.575.959l-.015.007a1.806,1.806,0,0,1-.558.124h-.013a1.472,1.472,0,0,1-.5-.126l-.006,0-2.353-1.262L13.5,13.347a1.106,1.106,0,0,1-1.092,0,1.07,1.07,0,0,1-.577-.967Zm2.049-.141h3.888v7.641l-1.493-.779a.9.9,0,0,0-.9,0l-1.5.781Zm3.688.2H14.078v7.111l1.2-.626a1.1,1.1,0,0,1,1.091,0l1.2.624Z" transform="translate(20653.1 12761.8)" fill="#00c999"/></g></svg>