<svg xmlns="http://www.w3.org/2000/svg" width="42" height="42" viewBox="0 0 42 42"><g transform="translate(-20540 -12678)"><rect width="42" height="42" transform="translate(20540 12678)" fill="none"/><g transform="translate(-2.431 0)"><path d="M32.789,16.276H32.2V12.955a4.272,4.272,0,0,0-1.779-3.5,4.08,4.08,0,0,0-3.855-.534L5.333,16.276A4.245,4.245,0,0,0,1.3,20.546v11.5a4.252,4.252,0,0,0,4.27,4.27h27.22a4.252,4.252,0,0,0,4.27-4.27v-11.5A4.29,4.29,0,0,0,32.789,16.276Zm-5.574-5.4a2.239,2.239,0,0,1,2.016.3,2.169,2.169,0,0,1,.949,1.779v3.321h-18.5Zm5.574,23.365H5.57A2.228,2.228,0,0,1,3.376,32.05v-11.5A2.228,2.228,0,0,1,5.57,18.351h27.22a2.228,2.228,0,0,1,2.194,2.194v1.6H28.045a4.21,4.21,0,1,0,0,8.421h6.938v1.423A2.241,2.241,0,0,1,32.789,34.244Zm2.194-10.022v4.329H28.045a2.135,2.135,0,1,1,0-4.27h6.938Z" transform="translate(20544.809 12679.68)" fill="#00c999"/><path d="M.983,1.988A15.9,15.9,0,0,1,12.795,7.25H9.52a1.052,1.052,0,0,0,0,2.1h5.5a.974.974,0,0,0,.994-.936l.351-4.678a1.027,1.027,0,0,0-2.046-.175l-.175,2.222A18.188,18.188,0,0,0,.925,0,1,1,0,0,0,.983,1.988Z" transform="translate(20545.432 12691.573) rotate(-45)" fill="#00c999"/></g></g></svg>