<svg xmlns="http://www.w3.org/2000/svg" width="42" height="42" viewBox="0 0 42 42"><g transform="translate(-20425 -12730)"><g transform="translate(20428 12733)"><path d="M46.415,41.659l-2.853,2.975-.971-1.093A1.074,1.074,0,1,0,41.012,45l1.761,1.882a.979.979,0,0,0,.789.364h0a1.279,1.279,0,0,0,.789-.3l3.643-3.825a1.065,1.065,0,0,0-.061-1.518A1.016,1.016,0,0,0,46.415,41.659Z" transform="translate(-16.85 -17.679)" fill="#00c999"/><path d="M32.725,19.884V13.145a3.831,3.831,0,0,0-1.032-2.61l-6.071-6.8A3.878,3.878,0,0,0,22.709,2.4H11.356A3.878,3.878,0,0,0,8.442,3.736l-6.071,6.8a3.773,3.773,0,0,0-.971,2.61v18.03a3.938,3.938,0,0,0,3.946,3.946H21.919a9.594,9.594,0,0,0,16.816-6.314A9.917,9.917,0,0,0,32.725,19.884ZM24.044,5.132l5.221,5.889H18.095v-6.5h4.614A1.722,1.722,0,0,1,24.044,5.132Zm-14.084,0A1.95,1.95,0,0,1,11.3,4.525h4.614V10.96H4.739Zm-4.735,27.8A1.826,1.826,0,0,1,3.4,31.115V13.085H30.54v6.192a12.818,12.818,0,0,0-1.578-.121,9.612,9.612,0,0,0-9.592,9.592A10.134,10.134,0,0,0,20.341,33H5.225Zm23.8,3.278a7.467,7.467,0,1,1,7.467-7.467A7.462,7.462,0,0,1,29.022,36.215Z" transform="translate(-1.4 -2.4)" fill="#00c999"/></g><rect width="42" height="42" transform="translate(20425 12730)" fill="none"/></g></svg>