<svg xmlns="http://www.w3.org/2000/svg" width="42" height="42" viewBox="0 0 42 42"><g transform="translate(-20424 -12681)"><g transform="translate(20425 12684)"><path d="M36.838,4.1H6.245A4.981,4.981,0,0,0,1.3,9.045V29.287a4.981,4.981,0,0,0,4.945,4.945h9.1l3.89,4.747a3.074,3.074,0,0,0,4.747,0l3.89-4.747h9.1a4.981,4.981,0,0,0,4.945-4.945V9.045A5.1,5.1,0,0,0,36.838,4.1Zm2.7,25.187A2.645,2.645,0,0,1,36.9,31.924H27.871a2.67,2.67,0,0,0-1.78.725l-.066.066-3.89,4.813a.675.675,0,0,1-.593.264.919.919,0,0,1-.593-.264l-3.89-4.813-.066-.066a2.547,2.547,0,0,0-1.78-.725H6.245a2.645,2.645,0,0,1-2.637-2.637V9.045A2.645,2.645,0,0,1,6.245,6.408H36.9a2.645,2.645,0,0,1,2.637,2.637Z" transform="translate(-1.3 -4.1)" fill="#00c999"/><path d="M16.087,16.974H34.878a1.187,1.187,0,1,0,0-2.374H16.087a1.187,1.187,0,1,0,0,2.374Z" transform="translate(-5.933 -7.677)" fill="#00c999"/><path d="M16.087,27.474H29.669a1.187,1.187,0,1,0,0-2.374H16.087a1.187,1.187,0,0,0,0,2.374Z" transform="translate(-5.933 -11.254)" fill="#00c999"/><path d="M36.592,35.8H16.087a1.187,1.187,0,0,0,0,2.374H36.592a1.187,1.187,0,0,0,0-2.374Z" transform="translate(-5.933 -14.899)" fill="#00c999"/></g><rect width="42" height="42" transform="translate(20424 12681)" fill="none"/></g></svg>