<svg xmlns="http://www.w3.org/2000/svg" width="42" height="42" viewBox="0 0 42 42"><g transform="translate(-20428 -12833)"><g transform="translate(20427 12836)"><path d="M39.288,6.9h-32A4.086,4.086,0,0,0,3.2,10.988V31.713A4.086,4.086,0,0,0,7.288,35.8h8.9l6.024,6.669a1.156,1.156,0,0,0,.932.43h0a1.156,1.156,0,0,0,.932-.43l6.167-6.741h8.972A4.086,4.086,0,0,0,43.3,31.641V10.988A4.025,4.025,0,0,0,39.288,6.9Zm1.578,24.813a1.592,1.592,0,0,1-1.578,1.578H29.742a1.156,1.156,0,0,0-.932.43l-5.665,6.1-5.522-6.1a1.156,1.156,0,0,0-.932-.43H7.216a1.592,1.592,0,0,1-1.578-1.578V10.988A1.592,1.592,0,0,1,7.216,9.41h32a1.592,1.592,0,0,1,1.578,1.578V31.713Z" transform="translate(-1.2 -6.9)" fill="#00c999"/><path d="M34.271,20.751l-7.6,7.673L23.944,25.7a1.268,1.268,0,0,0-1.793,1.793l3.586,3.586a1.212,1.212,0,0,0,1.721,0l8.534-8.534a1.255,1.255,0,0,0,0-1.793A1.171,1.171,0,0,0,34.271,20.751Z" transform="translate(-7.02 -10.712)" fill="#00c999"/></g><rect width="42" height="42" transform="translate(20428 12833)" fill="none"/></g></svg>