<svg xmlns="http://www.w3.org/2000/svg" width="42" height="42" viewBox="0 0 42 42"><g transform="translate(-20421 -12548)"><rect width="42" height="42" transform="translate(20421 12548)" fill="none"/><g transform="translate(20427 12551)"><path d="M33.911,4.917l-11.7-3.511a4.046,4.046,0,0,0-2.048,0L8.458,4.917A3.53,3.53,0,0,0,6,8.311v14.16c0,4.33,4.154,8.192,7.607,10.708a49.514,49.514,0,0,0,6.027,3.686,3.482,3.482,0,0,0,3.277,0,46.7,46.7,0,0,0,6.027-3.686c3.452-2.516,7.607-6.436,7.607-10.708V8.311A3.77,3.77,0,0,0,33.911,4.917Zm.468,17.554c0,2.692-2.4,5.91-6.729,9.069a49.326,49.326,0,0,1-5.734,3.511,1.377,1.377,0,0,1-1.346,0,47.72,47.72,0,0,1-5.734-3.511c-4.388-3.16-6.787-6.378-6.787-9.069V8.311A1.44,1.44,0,0,1,9.1,6.907L20.8,3.4a1.463,1.463,0,0,1,.819,0l11.7,3.511a1.44,1.44,0,0,1,1.053,1.4Z" transform="translate(-6 -1.275)" fill="#00c999"/><path d="M38.961,23.629,28.783,31.837l-3.447-4.679a1.412,1.412,0,0,0-2.3,1.642l4.268,5.992a1.522,1.522,0,0,0,.985.575h.164a1.234,1.234,0,0,0,.9-.328l11.327-9.193a1.444,1.444,0,0,0,.246-2.052A1.418,1.418,0,0,0,38.961,23.629Z" transform="translate(-15.948 -12.044)" fill="#00c999"/></g></g></svg>