<svg xmlns="http://www.w3.org/2000/svg" width="42" height="42" viewBox="0 0 42 42"><g transform="translate(-20483 -12548)"><g transform="translate(20483 12551)"><g transform="translate(5.945 20.905)"><path d="M24.145,36.5H11.23a1.23,1.23,0,1,0,0,2.46H24.145a1.23,1.23,0,1,0,0-2.46Z" transform="translate(-10 -36.5)" fill="#00c999"/><path d="M22.163,45.1H11.23a1.23,1.23,0,1,0,0,2.46h11a1.225,1.225,0,0,0,1.23-1.23A1.285,1.285,0,0,0,22.163,45.1Z" transform="translate(-10 -39.223)" fill="#00c999"/></g><path d="M40.933,6.449l-.273-.137a3.884,3.884,0,0,0-3.143-.137,4.159,4.159,0,0,0-2.323,2.118L34.1,10.617h0l-4.442,9.567H5.4a4.112,4.112,0,0,0-4.1,4.1V37.4a4.112,4.112,0,0,0,4.1,4.1H32.255a4.112,4.112,0,0,0,4.1-4.1V26.06l5.467-11.822h0l1.093-2.323A4.123,4.123,0,0,0,40.933,6.449Zm-2.6,1.982a1.715,1.715,0,0,1,1.3.068l.273.137a1.666,1.666,0,0,1,.82,2.255l-.547,1.23-3.417-1.572.547-1.23A1.9,1.9,0,0,1,38.337,8.43ZM33.212,27.085,30.068,29.34,29.8,25.514,31.5,21.892h0L35.74,12.8l3.417,1.572ZM32.187,39.112H5.4A1.692,1.692,0,0,1,3.692,37.4V24.284A1.692,1.692,0,0,1,5.4,22.575H28.565L27.54,24.762a2,2,0,0,0-.137.615l.41,6.355a1.2,1.2,0,0,0,.683,1.025,1.267,1.267,0,0,0,.478.137,1.154,1.154,0,0,0,.683-.205L33.9,29.614V37.4A1.651,1.651,0,0,1,32.187,39.112Z" transform="translate(-1.3 -5.906)" fill="#00c999"/></g><rect width="42" height="42" transform="translate(20483 12548)" fill="none"/></g></svg>