<svg id="Layer_8" data-name="Layer 8" xmlns="http://www.w3.org/2000/svg" xmlns:xlink="http://www.w3.org/1999/xlink" viewBox="0 0 306.88 39"><defs><style>.cls-1{fill:none;}.cls-2{fill:#00c999;}.cls-3{clip-path:url(#clip-path);}.cls-4{clip-path:url(#clip-path-2);}.cls-5{fill:#9e9e9e;}.cls-6{fill:#4e4e4e;}.cls-7{fill:#1f1e33;}</style><clipPath id="clip-path"><rect class="cls-1" x="117" y="-10.1" width="20.52" height="59.2"/></clipPath><clipPath id="clip-path-2"><rect class="cls-1" x="125.57" width="23.43" height="39"/></clipPath></defs><g id="Group_344" data-name="Group 344"><g id="Group_341" data-name="Group 341"><path id="Path_193" data-name="Path 193" class="cls-2" d="M22.52,17.7l-7.2-1.11L12.06,9.75a.61.61,0,0,0-.81-.31.62.62,0,0,0-.31.31L7.68,16.62.53,17.7a.64.64,0,0,0-.52.75.68.68,0,0,0,.2.36l5.21,5.37L4.18,31.7a.6.6,0,0,0,.92.63l6.48-3.54L18,32.33a.59.59,0,0,0,.87-.63l-1.23-7.52,5.21-5.37a.67.67,0,0,0-.07-1A.58.58,0,0,0,22.52,17.7Z"/><path id="Path_197" data-name="Path 197" class="cls-2" d="M52.81,17.7l-7.2-1.11L42.35,9.75a.61.61,0,0,0-.81-.31.61.61,0,0,0-.3.31L38,16.62,30.82,17.7a.65.65,0,0,0-.52.75.68.68,0,0,0,.2.36l5.21,5.37L34.48,31.7a.58.58,0,0,0,.45.71.57.57,0,0,0,.46-.08l6.48-3.54,6.45,3.54a.61.61,0,0,0,.88-.63L48,24.18l5.21-5.37a.67.67,0,0,0-.07-1A.54.54,0,0,0,52.81,17.7Z"/><path id="Path_198" data-name="Path 198" class="cls-2" d="M83.1,17.7l-7.2-1.11L72.64,9.75a.61.61,0,0,0-.81-.31.61.61,0,0,0-.3.31l-3.26,6.87L61.11,17.7a.63.63,0,0,0-.51.75.57.57,0,0,0,.2.36L66,24.18,64.77,31.7a.6.6,0,0,0,.92.63l6.48-3.54,6.44,3.54a.6.6,0,0,0,.82-.24.66.66,0,0,0,.06-.39l-1.23-7.52,5.2-5.37a.68.68,0,0,0-.06-1A.61.61,0,0,0,83.1,17.7Z"/><path id="Path_199" data-name="Path 199" class="cls-2" d="M113.4,17.7l-7.2-1.11-3.26-6.84a.61.61,0,0,0-.81-.31.62.62,0,0,0-.31.31l-3.26,6.87L91.41,17.7a.64.64,0,0,0-.52.75.68.68,0,0,0,.2.36l5.21,5.37L95.06,31.7a.6.6,0,0,0,.92.63l6.48-3.54,6.45,3.54a.59.59,0,0,0,.87-.63l-1.23-7.52,5.21-5.37a.67.67,0,0,0-.07-1A.58.58,0,0,0,113.4,17.7Z"/><g id="Group_340" data-name="Group 340"><g class="cls-3"><g id="Mask_Group_40" data-name="Mask Group 40"><path id="Path_200" data-name="Path 200" class="cls-2" d="M143.69,17.7l-7.2-1.11-3.26-6.84a.61.61,0,0,0-.81-.31.61.61,0,0,0-.3.31l-3.26,6.87L121.7,17.7a.65.65,0,0,0-.52.75.68.68,0,0,0,.2.36l5.21,5.37-1.23,7.52a.6.6,0,0,0,.91.63l6.48-3.54,6.45,3.54a.59.59,0,0,0,.81-.24.54.54,0,0,0,.06-.39l-1.23-7.52,5.21-5.37a.67.67,0,0,0-.07-1A.54.54,0,0,0,143.69,17.7Z"/></g></g><g class="cls-4"><g id="Mask_Group_41" data-name="Mask Group 41"><path id="Path_201" data-name="Path 201" class="cls-2" d="M132.67,10.9l-3.14,6.63-7,1,5.11,5.26-1.19,7.25,6.28-3.43,6.2,3.4-1.18-7.22,5.1-5.26-7.05-1.09-3.15-6.59m0-1.51a.62.62,0,0,1,.56.35l3.26,6.85,7.2,1.11a.68.68,0,0,1,.51.82.73.73,0,0,1-.15.29l-5.21,5.37,1.23,7.52a.59.59,0,0,1-.48.69.54.54,0,0,1-.39-.06l-6.44-3.54-6.49,3.54a.6.6,0,0,1-.83-.17.58.58,0,0,1-.08-.46l1.23-7.52-5.21-5.37a.65.65,0,0,1,0-.91.59.59,0,0,1,.36-.2l7.16-1.08,3.26-6.88a.62.62,0,0,1,.55-.35Z"/></g></g></g></g><g id="trustpilot-vector-logo"><path id="Path_194" data-name="Path 194" d="M258.4,20.15h6.66v1.24h-2.62v7H261v-7h-2.61V20.15Zm6.37,2.27H266v1.15h0a1.37,1.37,0,0,1,.23-.47,2,2,0,0,1,.4-.42,2.17,2.17,0,0,1,.53-.31,1.87,1.87,0,0,1,.58-.12h.32l.17,0v1.26L268,23.5l-.29,0a1.48,1.48,0,0,0-1.14.52,2.16,2.16,0,0,0-.35.63,2.89,2.89,0,0,0-.13.88v2.83h-1.31l0-5.92Zm9.51,5.95H273v-.84h0a1.87,1.87,0,0,1-.72.73,2,2,0,0,1-1,.27,2.18,2.18,0,0,1-1.7-.58,2.56,2.56,0,0,1-.52-1.75V22.42h1.31v3.64a1.56,1.56,0,0,0,.31,1.11,1.07,1.07,0,0,0,.84.33,1.63,1.63,0,0,0,.69-.13,1.17,1.17,0,0,0,.45-.34,1.26,1.26,0,0,0,.25-.52,2.29,2.29,0,0,0,.08-.64V22.42h1.31v5.95Zm2.24-1.91a1,1,0,0,0,.44.81,1.69,1.69,0,0,0,.91.23l.41,0a2.18,2.18,0,0,0,.44-.11.81.81,0,0,0,.34-.24.6.6,0,0,0,.12-.41.53.53,0,0,0-.19-.41,1.48,1.48,0,0,0-.43-.27,4.34,4.34,0,0,0-.62-.16l-.7-.15c-.24-.06-.48-.12-.71-.2a2,2,0,0,1-.61-.32,1.38,1.38,0,0,1-.43-.5,1.56,1.56,0,0,1-.16-.76,1.25,1.25,0,0,1,.24-.81,1.59,1.59,0,0,1,.6-.52,2.53,2.53,0,0,1,.81-.29,4.78,4.78,0,0,1,.84-.08,4.32,4.32,0,0,1,.88.1,2.27,2.27,0,0,1,.75.32,1.79,1.79,0,0,1,.56.57,2,2,0,0,1,.29.85h-1.37a.83.83,0,0,0-.43-.64,1.73,1.73,0,0,0-.78-.16l-.33,0a1.19,1.19,0,0,0-.36.09.84.84,0,0,0-.28.18.43.43,0,0,0-.12.32.45.45,0,0,0,.16.38,1.5,1.5,0,0,0,.44.26,4.21,4.21,0,0,0,.61.16l.71.15a6.43,6.43,0,0,1,.7.2,2,2,0,0,1,.62.32,1.59,1.59,0,0,1,.44.49,1.57,1.57,0,0,1,.16.74,1.6,1.6,0,0,1-.24.9,2.12,2.12,0,0,1-.63.6,3.15,3.15,0,0,1-.85.34,4.92,4.92,0,0,1-.93.11,4.06,4.06,0,0,1-1-.13,2.68,2.68,0,0,1-.84-.39,1.85,1.85,0,0,1-.54-.64,2,2,0,0,1-.22-.93h1.32v0Zm4.33-4h1v-1.8h1.31V22.4h1.18v1h-1.18v3.18c0,.12,0,.24,0,.36a.81.81,0,0,0,.08.25.4.4,0,0,0,.19.15,1,1,0,0,0,.35.06h.27l.28-.05v1l-.43,0a3.11,3.11,0,0,1-.43,0,2.91,2.91,0,0,1-.83-.11,1.09,1.09,0,0,1-.49-.28,1.07,1.07,0,0,1-.25-.47,3.7,3.7,0,0,1-.07-.66V23.39h-1v-1h0Zm4.41,0h1.24v.81h0a1.69,1.69,0,0,1,.77-.75,2.64,2.64,0,0,1,1.07-.23,2.85,2.85,0,0,1,1.23.25,2.42,2.42,0,0,1,.87.68,2.92,2.92,0,0,1,.51,1,4.32,4.32,0,0,1,0,2.39,2.87,2.87,0,0,1-.47,1,2.32,2.32,0,0,1-.8.69,2.36,2.36,0,0,1-1.14.26,3.66,3.66,0,0,1-.57-.05,2.19,2.19,0,0,1-.55-.17A1.75,1.75,0,0,1,287,28a1.62,1.62,0,0,1-.37-.41h0v3h-1.31V22.42Zm4.59,3a2.27,2.27,0,0,0-.11-.78,2,2,0,0,0-.31-.67,1.79,1.79,0,0,0-.52-.47,1.6,1.6,0,0,0-2,.39,2.71,2.71,0,0,0-.42,1.54,3.32,3.32,0,0,0,.11.83,2,2,0,0,0,.33.66,1.62,1.62,0,0,0,.53.44,1.45,1.45,0,0,0,.71.16,1.43,1.43,0,0,0,.76-.18,1.94,1.94,0,0,0,.51-.48,1.78,1.78,0,0,0,.29-.66,5.18,5.18,0,0,0,.09-.78Zm2.32-5.25h1.31v1.24h-1.31Zm0,2.27h1.31v5.95h-1.31Zm2.48-2.27H296v8.22h-1.32V20.15ZM300,28.53a3.06,3.06,0,0,1-1.27-.24,2.88,2.88,0,0,1-.94-.65,2.79,2.79,0,0,1-.58-1,3.83,3.83,0,0,1-.21-1.26,3.35,3.35,0,0,1,.21-1.25,3,3,0,0,1,.58-1,2.54,2.54,0,0,1,.94-.64,3.48,3.48,0,0,1,2.54,0,2.54,2.54,0,0,1,.94.64,2.79,2.79,0,0,1,.58,1,3.86,3.86,0,0,1,.21,1.25,3.37,3.37,0,0,1-.21,1.26,2.79,2.79,0,0,1-.58,1,2.45,2.45,0,0,1-.94.65A3.22,3.22,0,0,1,300,28.53Zm0-1a1.56,1.56,0,0,0,.76-.19,1.41,1.41,0,0,0,.52-.48,2,2,0,0,0,.31-.67,3,3,0,0,0,0-1.52,1.86,1.86,0,0,0-.31-.67,1.79,1.79,0,0,0-.52-.47,1.69,1.69,0,0,0-1.52,0,1.79,1.79,0,0,0-.52.47,2,2,0,0,0-.31.67,3,3,0,0,0,0,1.52,2,2,0,0,0,.31.67,1.7,1.7,0,0,0,.52.48A1.46,1.46,0,0,0,300,27.49Zm3.4-5.07h1v-1.8h1.31V22.4h1.19v1h-1.19v3.18c0,.12,0,.24,0,.36a1.21,1.21,0,0,0,.08.25.4.4,0,0,0,.19.15,1,1,0,0,0,.35.06h.27l.28-.05v1l-.43,0a3,3,0,0,1-.43,0,2.91,2.91,0,0,1-.83-.11,1.14,1.14,0,0,1-.49-.28,1,1,0,0,1-.24-.47,3,3,0,0,1-.08-.66V23.39h-1v-1h0Z"/><g id="Group_345" data-name="Group 345"><path id="Path_195" data-name="Path 195" class="cls-5" d="M256.87,20.15h-6L249,14.43l-1.86,5.72h-6L246,23.68l-1.86,5.72L249,25.86l4.87,3.54L252,23.68Z"/><path id="Path_196" data-name="Path 196" class="cls-6" d="M252.42,25,252,23.68l-3,2.18Z"/></g></g><path id="Path_477" data-name="Path 477" class="cls-7" d="M174.17,24a4.1,4.1,0,0,1,.4-1.82,2.93,2.93,0,0,1,1.1-1.24,3,3,0,0,1,1.62-.44,2.93,2.93,0,0,1,2.27,1,3.75,3.75,0,0,1,.86,2.59v.08a4.13,4.13,0,0,1-.38,1.8,2.87,2.87,0,0,1-1.1,1.24,3.07,3.07,0,0,1-1.64.45,2.93,2.93,0,0,1-2.27-1,3.71,3.71,0,0,1-.86-2.57Zm1.18.14a3,3,0,0,0,.53,1.83,1.79,1.79,0,0,0,2.84,0,3.21,3.21,0,0,0,.53-2,2.92,2.92,0,0,0-.54-1.83,1.78,1.78,0,0,0-2.82,0,3.23,3.23,0,0,0-.54,2Zm10.79,2.68a2.53,2.53,0,0,1-2,.81,2.14,2.14,0,0,1-1.67-.64,2.8,2.8,0,0,1-.58-1.89V20.63h1.18v4.44c0,1,.42,1.56,1.27,1.56a1.76,1.76,0,0,0,1.79-1v-5h1.17V27.5h-1.12ZM190.66,19v1.66h1.28v.91h-1.28V25.8a.92.92,0,0,0,.17.62.74.74,0,0,0,.58.21,2.61,2.61,0,0,0,.56-.08v.95a3.83,3.83,0,0,1-.9.13,1.48,1.48,0,0,1-1.19-.48,2.05,2.05,0,0,1-.4-1.35V21.54h-1.25v-.91h1.25V19Zm5.56,5a4.1,4.1,0,0,1,.4-1.82,2.93,2.93,0,0,1,1.1-1.24,3.07,3.07,0,0,1,1.61-.44,2.91,2.91,0,0,1,2.27,1,3.71,3.71,0,0,1,.87,2.59v.08a4.13,4.13,0,0,1-.38,1.8,2.94,2.94,0,0,1-1.1,1.24,3.1,3.1,0,0,1-1.64.45,2.93,2.93,0,0,1-2.27-1,3.72,3.72,0,0,1-.86-2.58Zm1.18.14a2.91,2.91,0,0,0,.53,1.83,1.79,1.79,0,0,0,2.84,0,3.28,3.28,0,0,0,.53-2,2.92,2.92,0,0,0-.54-1.83,1.79,1.79,0,0,0-2.83,0,3.16,3.16,0,0,0-.53,2Zm7.12,3.36v-6h-1.09v-.91h1.09v-.7a2.39,2.39,0,0,1,.59-1.71,2.25,2.25,0,0,1,1.67-.6,3.22,3.22,0,0,1,.81.11l-.07.94a3.36,3.36,0,0,0-.63-.06A1.12,1.12,0,0,0,206,19a1.33,1.33,0,0,0-.32.95v.73h1.47v.91h-1.47v6Zm7.57-4.63.47-4.61h4.74v1.08h-3.74l-.28,2.52a3,3,0,0,1,1.54-.4,2.56,2.56,0,0,1,2,.84,3.24,3.24,0,0,1,.74,2.25,3.13,3.13,0,0,1-.77,2.25,2.8,2.8,0,0,1-2.16.82,2.93,2.93,0,0,1-2-.68,2.74,2.74,0,0,1-.88-1.88h1.11a1.86,1.86,0,0,0,.57,1.2,1.71,1.71,0,0,0,1.2.4,1.56,1.56,0,0,0,1.29-.56,2.35,2.35,0,0,0,.47-1.54,2.19,2.19,0,0,0-.5-1.49,1.77,1.77,0,0,0-1.35-.56,2,2,0,0,0-1.2.34l-.31.25ZM221.88,24a4.1,4.1,0,0,1,.4-1.82,2.93,2.93,0,0,1,1.1-1.24A3,3,0,0,1,225,20.5a2.93,2.93,0,0,1,2.27,1,3.72,3.72,0,0,1,.86,2.58v.09a4.16,4.16,0,0,1-.38,1.8,2.93,2.93,0,0,1-1.1,1.24,3.06,3.06,0,0,1-1.64.44,2.9,2.9,0,0,1-2.27-1,3.7,3.7,0,0,1-.86-2.57Zm1.18.14a3,3,0,0,0,.53,1.83,1.79,1.79,0,0,0,2.84,0,3.21,3.21,0,0,0,.53-2,2.92,2.92,0,0,0-.54-1.83,1.72,1.72,0,0,0-1.42-.7,1.7,1.7,0,0,0-1.4.69,3.25,3.25,0,0,0-.54,2Zm7.66-3.51,0,.87a2.49,2.49,0,0,1,2.06-1c1.45,0,2.19.82,2.2,2.46V27.5h-1.18V23a1.59,1.59,0,0,0-.34-1.1,1.38,1.38,0,0,0-1-.35,1.68,1.68,0,0,0-1,.3,2,2,0,0,0-.68.8v4.9h-1.17V20.63Z"/><path class="cls-7" d="M158.08,24.42h1.27v.95h-1.27v2.14H156.9V25.37h-4.19v-.69l4.12-6.38h1.25Zm-4,0h2.86V19.9l-.14.26Z"/><path class="cls-7" d="M160.55,26.89a.71.71,0,0,1,.18-.5.69.69,0,0,1,.55-.21.69.69,0,0,1,.73.71.66.66,0,0,1-.19.49.7.7,0,0,1-.54.2.73.73,0,0,1-.55-.2A.69.69,0,0,1,160.55,26.89Z"/><path class="cls-7" d="M169.4,20.71a2.09,2.09,0,0,1-.37,1.22,2.44,2.44,0,0,1-1,.84,2.65,2.65,0,0,1,1.14.91,2.25,2.25,0,0,1,.42,1.34,2.41,2.41,0,0,1-.8,1.9,3.54,3.54,0,0,1-4.25,0,2.43,2.43,0,0,1-.8-1.9,2.33,2.33,0,0,1,.41-1.34,2.49,2.49,0,0,1,1.13-.91,2.44,2.44,0,0,1-1-.85,2.1,2.1,0,0,1-.36-1.21,2.37,2.37,0,0,1,.75-1.85,3.18,3.18,0,0,1,3.93,0A2.37,2.37,0,0,1,169.4,20.71Zm-1,4.29a1.67,1.67,0,0,0-.49-1.26,1.75,1.75,0,0,0-3,1.26,1.63,1.63,0,0,0,.46,1.23,1.79,1.79,0,0,0,1.3.45,1.81,1.81,0,0,0,1.29-.45A1.66,1.66,0,0,0,168.44,25Zm-1.75-5.86a1.52,1.52,0,0,0-1.12.42,1.61,1.61,0,0,0-.43,1.16,1.57,1.57,0,0,0,.42,1.14,1.69,1.69,0,0,0,2.25,0,1.73,1.73,0,0,0,0-2.28A1.5,1.5,0,0,0,166.69,19.14Z"/></g></svg>